<?xml version="1.0" standalone="no"?>
<!DOCTYPE svg PUBLIC "-//W3C//DTD SVG 20010904//EN"
 "http://www.w3.org/TR/2001/REC-SVG-20010904/DTD/svg10.dtd">
<svg version="1.0" xmlns="http://www.w3.org/2000/svg"
 width="900.000000pt" height="900.000000pt" viewBox="0 0 900.000000 900.000000"
 preserveAspectRatio="xMidYMid meet">
<metadata>
Created by potrace 1.10, written by Peter Selinger 2001-2011
</metadata>
<g transform="translate(0.000000,900.000000) scale(0.100000,-0.100000)"
fill="#000000" stroke="none">
<path d="M4220 8986 c0 -11 24 -16 97 -21 110 -9 434 -2 452 9 33 21 -21 26
-275 26 -229 0 -274 -2 -274 -14z"/>
<path d="M3885 8951 c-11 -18 19 -24 122 -23 108 1 120 3 108 21 -8 14 -221
15 -230 2z"/>
<path d="M4891 8951 c-24 -15 5 -22 113 -24 105 -1 124 2 111 22 -8 13 -204
15 -224 2z"/>
<path d="M3685 8921 c-10 -16 33 -32 78 -29 30 2 43 8 45 21 3 15 -5 17 -57
17 -33 0 -62 -4 -66 -9z"/>
<path d="M5202 8913 c2 -14 15 -19 48 -21 25 -1 51 2 59 7 26 17 0 31 -55 31
-47 0 -55 -3 -52 -17z"/>
<path d="M3527 8893 c-14 -14 -6 -22 27 -29 44 -8 96 4 96 22 0 10 -15 14 -58
14 -32 0 -62 -3 -65 -7z"/>
<path d="M5362 8883 c6 -32 118 -29 118 2 0 12 -14 15 -61 15 -52 0 -60 -2
-57 -17z"/>
<path d="M3396 8861 c-11 -18 24 -34 60 -28 42 7 49 11 39 26 -8 13 -92 15
-99 2z"/>
<path d="M5521 8861 c-12 -8 -10 -12 11 -22 30 -13 81 -4 75 14 -5 15 -67 21
-86 8z"/>
<path d="M3274 8829 c-9 -15 16 -30 46 -27 14 2 26 10 28 21 3 13 -4 17 -32
17 -19 0 -38 -5 -42 -11z"/>
<path d="M5635 8830 c-9 -15 40 -33 69 -26 45 11 32 36 -18 36 -25 0 -48 -4
-51 -10z"/>
<path d="M3170 8796 c0 -19 47 -33 67 -20 27 17 18 29 -24 32 -33 2 -43 0 -43
-12z"/>
<path d="M5755 8799 c-10 -15 -1 -21 36 -22 24 -2 34 3 37 16 3 14 -4 17 -32
17 -19 0 -38 -5 -41 -11z"/>
<path d="M3076 8772 c-9 -15 20 -34 46 -30 35 5 29 32 -9 36 -17 2 -34 -1 -37
-6z"/>
<path d="M5862 8763 c2 -12 13 -18 33 -18 20 0 31 6 33 18 3 14 -4 17 -33 17
-29 0 -36 -3 -33 -17z"/>
<path d="M2987 8743 c-10 -10 13 -33 33 -33 20 0 43 23 33 33 -3 4 -18 7 -33
7 -15 0 -30 -3 -33 -7z"/>
<path d="M5940 8735 c0 -16 42 -30 65 -21 8 3 15 12 15 21 0 11 -11 15 -40 15
-29 0 -40 -4 -40 -15z"/>
<path d="M2900 8705 c0 -16 43 -31 59 -20 25 15 11 35 -24 35 -24 0 -35 -5
-35 -15z"/>
<path d="M6037 8713 c-12 -11 -8 -21 12 -28 24 -7 51 4 51 21 0 14 -51 20 -63
7z"/>
<path d="M2824 8679 c-7 -12 12 -29 33 -29 22 0 43 12 43 26 0 17 -65 20 -76
3z"/>
<path d="M6110 8676 c0 -15 35 -27 56 -19 29 11 15 33 -21 33 -23 0 -35 -5
-35 -14z"/>
<path d="M2752 8643 c4 -22 34 -29 53 -13 21 17 9 30 -26 30 -24 0 -30 -4 -27
-17z"/>
<path d="M6190 8646 c0 -20 16 -29 40 -21 32 10 25 35 -10 35 -19 0 -30 -5
-30 -14z"/>
<path d="M2682 8613 c2 -10 12 -18 23 -18 11 0 21 8 23 18 3 13 -3 17 -23 17
-20 0 -26 -4 -23 -17z"/>
<path d="M6262 8613 c2 -10 12 -19 23 -21 11 -2 35 -11 52 -20 24 -12 36 -13
44 -5 16 16 2 33 -27 33 -14 0 -27 7 -30 15 -4 9 -19 15 -36 15 -23 0 -29 -4
-26 -17z"/>
<path d="M2614 8585 c-4 -9 -19 -15 -35 -15 -19 0 -29 -5 -29 -15 0 -10 -10
-15 -29 -15 -16 0 -31 -6 -35 -15 -3 -8 -11 -15 -17 -15 -27 0 -89 -36 -86
-50 4 -24 38 -25 44 0 4 15 11 20 24 17 12 -3 25 3 33 15 9 12 21 18 30 15 10
-4 20 1 26 13 8 15 17 19 36 14 20 -5 26 -2 31 15 3 13 11 20 19 17 20 -8 44
4 44 20 0 19 -49 18 -56 -1z"/>
<path d="M6402 8553 c2 -10 12 -18 23 -18 11 0 21 8 23 18 3 13 -3 17 -23 17
-20 0 -26 -4 -23 -17z"/>
<path d="M6462 8523 c2 -10 12 -18 23 -18 11 0 21 8 23 18 3 13 -3 17 -23 17
-20 0 -26 -4 -23 -17z"/>
<path d="M6522 8493 c4 -22 43 -25 43 -3 0 8 -11 16 -23 18 -19 3 -23 0 -20
-15z"/>
<path d="M6585 8469 c-4 -6 -5 -11 -4 -13 22 -16 79 -46 88 -46 6 0 11 9 11
20 0 14 -7 20 -24 20 -13 0 -26 7 -30 15 -6 17 -32 20 -41 4z"/>
<path d="M2324 8439 c-9 -15 12 -33 30 -26 9 4 16 13 16 22 0 17 -35 21 -46 4z"/>
<path d="M2266 8405 c-3 -8 -15 -15 -26 -15 -11 0 -23 -7 -26 -15 -4 -8 -12
-15 -19 -15 -20 0 -30 -21 -14 -31 9 -5 21 -1 34 11 12 11 29 20 38 20 9 0 17
4 17 8 0 5 12 14 26 20 14 7 22 17 19 22 -9 15 -42 12 -49 -5z"/>
<path d="M6697 8413 c-11 -10 -8 -23 5 -23 6 0 22 -9 34 -21 23 -22 44 -19 44
7 0 8 -7 14 -15 14 -9 0 -18 7 -21 15 -6 15 -35 20 -47 8z"/>
<path d="M6794 8355 c-7 -18 3 -35 22 -35 8 0 14 -4 14 -10 0 -5 11 -10 25
-10 14 0 25 -6 25 -12 0 -14 53 -48 75 -48 7 0 15 -6 18 -14 3 -8 23 -23 44
-32 20 -10 50 -32 64 -49 15 -17 40 -37 56 -45 15 -8 41 -25 56 -37 36 -29 51
-29 35 -1 -19 32 -46 58 -61 58 -6 0 -35 20 -62 45 -31 28 -57 44 -67 41 -10
-2 -18 1 -18 6 0 15 -48 58 -65 58 -8 0 -29 14 -47 30 -18 17 -41 30 -51 30
-9 0 -20 6 -23 14 -8 21 -34 28 -40 11z"/>
<path d="M2120 8320 c0 -6 -11 -15 -25 -20 -14 -5 -25 -14 -25 -20 0 -5 -9
-10 -20 -10 -11 0 -20 -5 -20 -10 0 -6 -10 -15 -22 -20 -60 -26 -115 -77 -100
-92 8 -8 19 -4 41 13 16 13 30 30 30 37 1 6 12 12 26 12 14 0 25 4 25 9 0 5 9
13 20 16 11 3 20 13 20 21 0 9 7 14 18 12 22 -3 72 30 72 48 0 8 -9 14 -20 14
-11 0 -20 -5 -20 -10z"/>
<path d="M1823 8111 c-47 -42 -52 -51 -25 -51 18 1 92 64 92 80 0 20 -26 9
-67 -29z"/>
<path d="M1634 7944 c-27 -25 -83 -76 -124 -113 -108 -96 -120 -109 -120 -125
0 -9 -7 -12 -17 -10 -23 6 -99 -71 -81 -82 6 -4 14 -2 16 4 5 16 49 15 59 -1
4 -8 52 -56 106 -107 103 -99 119 -103 108 -32 -5 31 -15 43 -56 69 -83 54
-88 57 -105 74 -9 8 -24 18 -33 22 -19 7 -22 23 -7 32 5 3 18 -3 30 -15 11
-11 25 -20 32 -20 17 0 88 -33 88 -41 0 -4 11 -10 25 -13 14 -4 25 -11 25 -16
0 -16 47 -11 54 5 3 8 12 15 19 15 8 0 20 7 27 15 7 8 20 15 30 15 10 0 20 7
24 15 3 8 14 15 25 15 23 0 33 24 35 91 1 31 8 55 18 66 23 22 28 16 34 -48 8
-85 13 -99 37 -109 12 -6 49 -28 82 -50 33 -22 66 -43 73 -46 16 -8 61 11 67
28 6 15 -241 268 -262 268 -7 0 -17 11 -22 23 -9 24 -65 77 -81 77 -5 0 -12 9
-15 20 -10 32 -37 24 -91 -26z m71 -156 c3 -7 6 -28 7 -46 3 -29 -3 -37 -39
-64 -37 -27 -46 -30 -67 -20 -14 6 -30 20 -35 31 -9 17 -4 26 36 65 46 45 89
60 98 34z"/>
<path d="M7277 7953 c-12 -14 -58 -61 -102 -105 -75 -74 -79 -80 -78 -119 2
-50 12 -62 77 -94 28 -14 65 -35 81 -45 48 -31 57 -34 74 -21 9 6 24 14 34 17
9 4 17 10 17 14 0 5 12 13 28 19 71 29 96 52 107 104 8 41 23 33 31 -18 5 -38
13 -50 41 -70 28 -18 39 -21 53 -13 24 15 48 4 55 -25 6 -21 -13 -44 -139
-168 -81 -79 -153 -147 -162 -152 -22 -13 -4 -29 70 -67 l63 -31 34 20 c19 12
44 25 56 30 11 5 24 15 28 20 3 6 14 11 24 11 37 0 48 30 54 146 4 76 2 115
-6 123 -8 8 -4 11 15 11 24 0 25 -3 32 -77 3 -42 6 -97 6 -122 0 -47 22 -81
54 -81 7 0 19 -7 26 -15 7 -8 18 -15 24 -15 15 -1 66 -46 66 -60 0 -5 10 -10
22 -10 25 0 108 38 108 50 0 4 -17 25 -37 47 -21 22 -56 62 -78 88 -104 125
-167 195 -176 195 -5 0 -9 5 -9 11 0 13 -201 219 -213 219 -5 0 -34 26 -65 58
-97 97 -161 152 -177 152 -8 0 -25 -12 -38 -27z m104 -194 l33 -42 -37 -34
c-33 -30 -42 -33 -75 -27 -55 10 -72 22 -72 50 0 34 59 94 93 94 18 0 35 -13
58 -41z"/>
<path d="M6984 7664 c-34 -35 -64 -70 -67 -78 -4 -9 -11 -16 -18 -16 -6 0 -8
-7 -5 -16 4 -9 2 -22 -4 -29 -7 -9 -7 -26 -1 -56 6 -24 11 -74 11 -110 0 -70
11 -89 58 -103 12 -4 22 -12 22 -17 0 -5 5 -9 10 -9 12 0 73 -41 78 -52 6 -13
36 -7 67 13 17 10 37 22 45 26 31 16 100 68 105 81 2 7 0 47 -6 88 -5 41 -7
84 -4 95 7 23 -23 59 -48 59 -8 0 -20 7 -27 15 -7 8 -19 15 -27 15 -7 0 -16 6
-19 14 -3 8 -16 17 -30 20 -13 4 -24 11 -24 16 0 12 -27 14 -32 3 -4 -11 -67
-43 -83 -43 -7 0 -18 -7 -25 -15 -14 -17 -40 -20 -40 -5 0 6 10 15 23 20 29
13 60 33 68 43 4 5 17 14 29 20 23 12 44 62 34 79 -10 16 -30 4 -90 -58z m190
-175 c35 -42 41 -71 21 -110 -33 -65 -83 -99 -147 -99 -40 0 -93 52 -84 83 3
12 6 31 6 42 0 11 21 41 46 68 41 42 50 47 89 47 36 0 48 -5 69 -31z"/>
<path d="M7484 7602 c-69 -46 -78 -52 -101 -61 -29 -13 -36 -27 -49 -96 -6
-33 -14 -68 -19 -78 -6 -15 -4 -18 13 -15 20 3 262 230 262 245 0 8 -48 33
-59 33 -4 0 -24 -13 -47 -28z"/>
<path d="M1785 7599 c-16 -10 -39 -23 -50 -29 -11 -6 -33 -19 -50 -30 -16 -11
-36 -23 -42 -26 -7 -3 -13 -20 -14 -38 0 -17 -4 -40 -8 -51 -5 -11 -5 -30 0
-42 9 -25 195 -213 210 -213 6 0 24 13 42 30 18 16 37 30 43 30 6 0 17 7 24
15 7 8 19 15 26 15 8 0 23 8 34 17 18 15 20 30 20 123 0 93 -2 108 -20 123
-11 9 -26 17 -34 17 -7 0 -19 7 -26 15 -7 8 -18 15 -26 15 -7 0 -19 6 -26 13
-18 16 -56 37 -65 36 -5 0 -21 -9 -38 -20z m112 -95 c56 -42 78 -108 53 -155
-6 -11 -31 -29 -55 -40 l-44 -21 -46 39 c-48 39 -89 108 -83 140 5 26 66 63
106 63 22 0 47 -9 69 -26z"/>
<path d="M1216 7540 c-25 -27 -46 -54 -46 -60 0 -5 -6 -10 -13 -10 -7 0 -29
-18 -48 -41 -19 -22 -47 -55 -62 -72 -16 -18 -46 -52 -67 -77 l-38 -46 25 -22
c13 -12 27 -22 29 -22 3 0 77 -73 165 -162 153 -154 160 -161 183 -148 24 12
24 14 19 129 -6 114 -13 141 -38 141 -7 0 -18 7 -25 15 -7 8 -21 15 -32 15
-10 0 -21 6 -24 14 -3 8 -16 17 -30 20 -13 4 -24 11 -24 16 0 6 -11 10 -25 10
-14 0 -25 -4 -25 -9 0 -12 -88 -44 -100 -36 -12 8 15 36 73 75 30 20 37 31 37
57 0 51 21 136 31 126 7 -7 16 -82 19 -164 0 -4 15 -14 33 -23 17 -9 46 -26
62 -36 17 -11 40 -24 52 -29 11 -5 24 -15 28 -21 5 -8 11 -7 22 2 25 21 91 55
151 79 12 5 22 13 22 18 0 5 -50 58 -111 118 -61 59 -124 127 -141 151 -16 23
-35 42 -42 42 -7 0 -34 -22 -60 -50z m153 -196 c22 -28 27 -59 11 -69 -5 -3
-26 2 -47 12 -47 23 -67 68 -39 89 22 16 45 6 75 -32z"/>
<path d="M2115 7558 c-40 -18 -47 -46 -46 -157 2 -110 13 -141 51 -141 9 0 21
-5 27 -11 13 -13 47 -33 81 -48 12 -6 22 -14 22 -19 0 -5 35 8 78 29 42 21 85
39 95 39 9 0 17 3 17 8 0 4 -69 75 -152 159 -134 132 -156 150 -173 141z"/>
<path d="M6703 7378 c-79 -78 -143 -149 -143 -159 0 -11 -11 -20 -30 -24 -16
-4 -30 -10 -30 -14 0 -5 -19 -21 -42 -37 -24 -16 -44 -32 -46 -36 -2 -5 -8 -8
-14 -8 -6 0 -27 -12 -47 -27 -45 -34 -70 -50 -97 -62 -27 -12 -34 -31 -27 -74
4 -29 12 -38 52 -56 25 -12 60 -30 76 -41 52 -34 73 -40 98 -29 33 15 67 35
80 48 6 6 19 11 29 11 10 0 18 4 18 9 0 5 8 12 18 15 16 5 18 19 16 123 -2
142 0 130 -24 138 -11 3 -20 14 -20 24 0 14 6 17 28 13 15 -2 33 -9 40 -15 9
-7 18 -5 30 7 10 9 24 16 30 16 7 0 12 4 12 10 0 5 11 12 25 16 14 3 25 10 25
14 0 4 12 13 28 19 53 20 59 31 65 126 3 50 8 99 9 109 2 10 -1 20 -7 22 -5 2
-74 -60 -152 -138z m-155 -350 c19 -24 2 -76 -35 -104 -43 -33 -103 -43 -122
-20 -11 13 -9 21 15 50 31 36 100 86 120 86 6 0 16 -6 22 -12z"/>
<path d="M1568 7232 c-33 -33 -53 -47 -103 -72 l-50 -26 -3 -116 -3 -117 43
-21 c74 -37 103 -53 108 -61 13 -20 57 -19 82 0 14 12 31 21 36 21 5 0 15 7
22 15 7 8 20 15 29 15 9 1 28 11 43 23 22 18 27 33 33 87 l7 66 -101 99 c-56
55 -107 101 -114 102 -6 1 -20 -6 -29 -15z m75 -157 c44 -43 69 -89 65 -117
-4 -29 -47 -58 -94 -65 -72 -9 -138 57 -138 139 -1 53 26 78 84 78 40 0 52 -5
83 -35z"/>
<path d="M2018 7231 c-5 -14 -116 -71 -138 -71 -11 0 -20 -6 -20 -14 0 -8 63
-79 141 -157 154 -155 150 -153 211 -100 22 19 23 25 20 136 -2 79 -7 117 -15
120 -25 7 -43 16 -72 35 -16 11 -40 24 -52 29 -11 5 -24 15 -28 20 -8 13 -42
15 -47 2z m121 -127 c22 -28 29 -94 11 -94 -18 0 -89 49 -100 69 -20 38 -13
51 29 51 31 0 44 -6 60 -26z"/>
<path d="M2418 7218 c-35 -32 -86 -68 -95 -68 -5 0 -15 -8 -23 -17 -11 -14
-15 -43 -13 -122 2 -113 1 -111 76 -142 15 -6 27 -15 27 -20 0 -5 6 -9 14 -9
8 0 22 -7 31 -17 9 -9 30 -16 46 -16 16 0 37 7 47 16 10 10 23 17 29 17 6 0
16 7 23 15 7 8 21 15 31 15 11 0 19 4 19 10 0 5 11 12 25 16 20 5 25 12 25 38
0 17 4 45 9 61 4 17 5 38 2 47 -6 17 -93 88 -108 88 -4 1 -33 25 -63 55 -30
30 -60 55 -66 55 -6 0 -22 -10 -36 -22z m35 -132 c53 -22 117 -95 117 -132 0
-74 -116 -85 -187 -18 -35 33 -36 35 -29 90 4 31 9 61 12 65 8 13 50 11 87 -5z"/>
<path d="M6840 7225 c-7 -8 -19 -15 -26 -15 -8 0 -14 -4 -14 -10 0 -5 -11 -12
-25 -16 -13 -3 -29 -12 -36 -20 -6 -8 -20 -14 -30 -14 -11 0 -19 -6 -20 -12 0
-7 -1 -64 -2 -126 -2 -99 0 -113 16 -118 9 -3 17 -10 17 -15 0 -5 7 -9 15 -9
8 0 20 -9 27 -20 7 -11 21 -20 31 -20 10 0 77 58 148 129 153 151 156 160 69
202 -30 15 -60 32 -66 37 -6 5 -20 13 -32 16 -12 4 -22 12 -22 17 0 15 -36 10
-50 -6z m49 -86 c43 -15 40 -40 -14 -104 -67 -78 -135 -84 -135 -12 0 34 35
97 55 97 7 0 18 7 25 15 15 18 27 19 69 4z"/>
<path d="M7720 7225 c-7 -8 -18 -15 -25 -15 -7 0 -18 -7 -25 -15 -7 -8 -20
-15 -30 -15 -10 0 -20 -6 -23 -14 -3 -8 -16 -16 -29 -18 -22 -3 -23 -7 -28
-121 l-5 -118 29 -25 c17 -13 33 -24 38 -24 4 0 8 -7 8 -15 0 -19 -29 -19 -66
0 -29 14 -74 11 -74 -5 0 -5 -12 -13 -27 -19 -16 -6 -41 -20 -58 -31 -16 -11
-38 -23 -47 -26 -15 -5 -18 -18 -18 -73 0 -36 -5 -84 -12 -106 -6 -22 -10 -48
-9 -58 1 -9 -6 -20 -16 -24 -10 -3 -22 -12 -26 -20 -4 -7 -15 -13 -22 -13 -8
0 -15 -5 -15 -10 0 -6 -8 -14 -17 -18 -10 -4 -42 -22 -70 -40 l-53 -34 0 -54
c0 -30 2 -54 4 -54 9 0 226 221 226 230 0 6 4 10 9 10 14 0 300 291 303 309 2
9 11 17 20 19 12 2 218 202 297 287 9 10 -34 45 -55 45 -13 0 -26 5 -29 10 -3
6 -13 10 -21 10 -15 0 -76 39 -82 53 -6 12 -39 8 -52 -8z m40 -90 c19 -23 -4
-68 -55 -110 -46 -37 -75 -45 -75 -20 0 8 -5 24 -12 34 -9 16 -5 24 28 59 49
50 91 64 114 37z"/>
<path d="M7218 7104 c-112 -110 -118 -118 -118 -156 0 -35 4 -41 30 -51 17 -6
30 -15 30 -19 0 -4 8 -8 19 -8 10 0 24 -7 31 -15 7 -8 17 -15 23 -15 6 0 19
-7 29 -17 22 -20 79 -20 90 1 5 9 15 16 22 16 8 0 19 7 26 15 7 8 19 15 27 15
7 0 26 9 41 20 27 20 27 21 26 129 -2 108 -6 131 -25 131 -13 0 -72 41 -82 58
-20 30 -54 9 -169 -104z m201 -30 c24 -31 26 -62 7 -107 -20 -48 -50 -69 -102
-74 -57 -4 -84 15 -84 61 0 25 11 42 48 78 78 75 100 82 131 42z"/>
<path d="M894 7176 c-3 -9 -12 -16 -20 -16 -8 0 -14 -6 -14 -14 0 -8 -7 -16
-15 -20 -8 -3 -15 -12 -15 -21 0 -9 -13 -29 -30 -45 -31 -30 -40 -60 -17 -60
16 1 77 82 77 103 0 10 4 17 8 17 15 0 52 59 42 65 -6 3 -13 -1 -16 -9z"/>
<path d="M8120 7117 c0 -7 12 -25 27 -42 15 -16 28 -35 28 -42 0 -8 5 -17 11
-21 6 -4 13 -15 17 -24 3 -10 14 -18 22 -18 12 0 15 -6 10 -19 -3 -11 0 -23 8
-28 7 -4 24 -26 37 -48 13 -22 27 -42 30 -45 14 -12 40 -61 40 -74 0 -8 9 -18
20 -21 15 -5 19 -12 15 -25 -4 -12 1 -23 15 -33 11 -8 18 -21 15 -29 -3 -8 3
-23 15 -33 11 -10 20 -24 20 -32 0 -7 5 -13 10 -13 6 0 10 -9 10 -19 0 -11 7
-26 15 -35 8 -8 15 -19 15 -25 0 -6 14 -37 30 -68 17 -31 30 -64 30 -74 0 -10
9 -24 20 -32 11 -8 18 -20 15 -28 -7 -19 10 -43 24 -35 16 10 13 56 -4 62 -9
4 -15 19 -15 35 0 22 -5 29 -19 29 -14 0 -17 6 -13 26 3 18 0 30 -12 36 -9 5
-16 20 -16 34 0 13 -7 27 -15 30 -8 4 -15 16 -15 29 0 14 -7 25 -19 28 -15 3
-18 11 -14 27 4 15 1 26 -11 32 -9 5 -16 18 -16 29 0 11 -7 22 -15 25 -8 4
-15 15 -15 25 0 11 -7 22 -15 25 -8 4 -15 15 -15 26 0 11 -8 22 -18 25 -14 3
-18 11 -14 29 2 13 0 24 -6 24 -11 0 -35 37 -48 73 -3 9 -10 17 -15 17 -5 0
-14 10 -19 23 -13 30 -30 54 -62 91 -16 17 -28 36 -28 43 0 15 -36 53 -50 53
-5 0 -10 -6 -10 -13z"/>
<path d="M2724 7028 c-8 -13 -7 -80 2 -110 3 -9 22 -26 44 -37 59 -31 83 -44
109 -63 30 -22 51 -23 95 -2 19 9 42 14 52 10 15 -6 13 -11 -17 -36 -19 -16
-40 -29 -46 -30 -15 0 -15 1 -15 -120 0 -106 6 -130 32 -130 11 0 22 -5 25
-11 4 -5 17 -15 28 -20 34 -15 68 -36 80 -48 16 -16 54 -14 61 4 3 8 14 15 25
15 10 0 21 7 25 15 3 8 15 15 26 15 11 0 20 4 20 10 0 5 11 12 25 16 34 8 45
32 45 93 0 27 4 61 9 74 12 30 -10 67 -39 67 -10 0 -31 6 -47 14 -15 7 -46 21
-68 31 -22 9 -52 24 -67 31 -14 8 -37 14 -50 14 -14 0 -33 10 -44 21 -10 12
-46 35 -79 51 -33 16 -73 38 -90 48 -16 11 -37 23 -45 27 -8 3 -32 19 -52 35
-27 21 -39 25 -44 16z m435 -352 c9 -8 28 -19 43 -25 15 -6 34 -24 43 -41 19
-37 12 -49 -49 -85 -51 -29 -90 -24 -140 16 -44 37 -55 83 -31 129 16 32 18
32 67 27 28 -4 58 -13 67 -21z"/>
<path d="M740 6976 c-5 -14 -14 -26 -20 -26 -5 0 -10 -9 -10 -20 0 -11 6 -20
14 -20 8 0 18 9 21 20 3 11 11 20 16 20 12 0 12 37 -1 45 -6 3 -14 -5 -20 -19z"/>
<path d="M1847 6993 c-2 -5 -2 -27 1 -50 4 -40 8 -45 66 -79 33 -21 68 -43 76
-49 25 -21 60 -28 60 -13 0 13 -179 198 -192 198 -4 0 -9 -3 -11 -7z"/>
<path d="M6155 6950 c-16 -11 -54 -31 -82 -45 -29 -15 -55 -30 -58 -36 -4 -5
-14 -9 -24 -9 -10 0 -31 -12 -47 -27 -16 -15 -41 -28 -55 -29 -15 -1 -51 -13
-81 -27 -63 -30 -129 -55 -177 -67 -54 -14 -73 -38 -61 -80 6 -19 10 -52 10
-73 0 -27 5 -39 18 -43 28 -9 35 -13 67 -34 17 -11 40 -24 52 -29 11 -5 24
-15 28 -20 8 -13 55 -15 55 -2 0 5 12 14 28 20 30 12 64 32 72 43 3 4 17 11
32 17 l26 10 0 120 c0 91 -3 123 -14 132 -21 18 -7 29 36 27 21 -1 45 4 53 10
13 11 71 44 140 79 18 10 27 22 27 39 0 13 0 27 1 31 1 14 -16 11 -46 -7z
m-262 -311 c15 -55 -52 -129 -115 -129 -74 0 -113 54 -69 94 21 19 122 55 157
55 14 1 24 -7 27 -20z"/>
<path d="M7001 6895 c-29 -30 -47 -56 -41 -60 5 -3 13 1 16 9 3 9 13 16 20 16
23 0 74 42 74 61 0 34 -17 28 -69 -26z"/>
<path d="M680 6885 c0 -9 -7 -18 -15 -21 -18 -7 -20 -44 -2 -43 17 0 60 57 52
69 -10 16 -35 12 -35 -5z"/>
<path d="M1350 6860 c-12 -7 9 -32 100 -123 63 -62 123 -116 133 -120 9 -4 20
-15 24 -24 8 -22 126 -140 170 -171 25 -17 37 -20 56 -13 14 5 26 13 28 18 4
9 55 45 79 56 8 4 29 15 45 25 l30 19 3 116 c3 113 2 116 -20 123 -13 3 -25 9
-28 13 -3 3 -23 15 -45 26 -22 11 -51 27 -65 37 -24 17 -70 15 -70 -2 0 -5
-13 -13 -30 -19 -16 -5 -30 -15 -30 -20 0 -6 -9 -11 -21 -11 -11 0 -27 -6 -35
-14 -7 -8 -18 -16 -24 -18 -5 -1 -14 -25 -19 -51 -11 -63 -27 -79 -41 -43 -5
15 -10 42 -10 59 0 27 -7 36 -43 56 -23 13 -65 39 -93 57 -54 36 -69 40 -94
24z m500 -104 c20 -3 50 -19 68 -35 29 -27 32 -36 32 -86 0 -48 -4 -60 -26
-80 -43 -40 -84 -34 -134 19 -48 50 -80 95 -80 113 0 20 72 84 89 79 9 -2 32
-7 51 -10z"/>
<path d="M2213 6842 c-18 -9 -33 -20 -33 -24 0 -4 63 -71 141 -149 134 -134
141 -140 172 -133 17 3 40 12 49 18 14 8 21 8 26 0 4 -6 34 -41 67 -78 58 -64
86 -79 102 -53 10 16 85 66 131 86 21 10 22 16 22 129 l0 118 -46 25 c-25 13
-58 30 -72 38 -15 8 -30 18 -33 24 -10 15 -57 11 -77 -5 -9 -8 -24 -18 -32
-22 -8 -3 -36 -19 -63 -34 l-47 -28 -4 -88 c-5 -121 -29 -141 -56 -46 -5 19
-10 58 -10 86 0 40 -4 53 -17 58 -10 3 -31 15 -48 26 -16 11 -41 25 -55 30
-13 6 -27 15 -30 20 -11 17 -56 19 -87 2z m567 -102 c17 -12 34 -39 44 -70 15
-46 15 -53 1 -81 -9 -17 -31 -37 -51 -45 -41 -17 -60 -8 -136 65 -55 53 -61
83 -23 119 47 45 112 50 165 12z"/>
<path d="M6190 6853 c-8 -4 -21 -12 -28 -20 -7 -7 -20 -13 -28 -13 -8 0 -14
-3 -14 -8 0 -4 -22 -18 -48 -30 l-48 -23 3 -107 c2 -59 3 -115 3 -124 0 -11 8
-18 19 -18 10 0 24 -7 31 -15 7 -8 17 -15 23 -15 5 0 29 -16 53 -35 23 -19 53
-35 65 -35 16 0 46 24 92 73 38 39 75 81 82 92 17 27 9 185 -11 185 -7 0 -19
6 -26 13 -7 6 -30 21 -51 31 -21 11 -48 28 -59 38 -22 19 -32 21 -58 11z m119
-127 c26 -32 9 -109 -30 -137 -12 -8 -33 -24 -47 -36 -61 -52 -133 -16 -147
72 -7 49 -7 50 40 93 34 33 51 43 68 38 12 -3 29 -1 36 4 16 10 59 -9 80 -34z"/>
<path d="M6635 6849 c-11 -5 -33 -18 -50 -29 -16 -11 -37 -22 -45 -26 -8 -3
-22 -10 -30 -15 -8 -5 -25 -13 -37 -18 -18 -9 -22 -19 -25 -82 -3 -69 -2 -74
29 -109 l33 -37 130 130 c71 71 127 133 124 138 -3 5 -22 17 -42 26 -20 9 -44
20 -52 24 -8 3 -24 2 -35 -2z"/>
<path d="M7025 6830 c-27 -16 -57 -29 -65 -30 -8 0 -27 -11 -42 -23 l-27 -22
7 -120 c7 -115 8 -120 30 -123 13 -2 26 -10 29 -18 3 -8 12 -14 19 -14 15 0
76 -39 82 -52 5 -11 62 -10 62 1 0 5 12 14 28 20 15 5 43 19 62 30 19 10 43
22 52 25 15 4 16 19 13 127 l-4 123 -48 28 c-26 15 -55 31 -63 35 -8 3 -26 15
-39 25 -30 23 -36 22 -96 -12z m147 -89 c9 -9 24 -36 34 -60 13 -34 15 -48 6
-62 -7 -10 -12 -24 -12 -30 0 -28 -83 -79 -128 -79 -24 0 -43 10 -73 38 -40
37 -41 39 -33 87 8 59 52 104 117 120 46 12 63 9 89 -14z"/>
<path d="M623 6793 c-3 -10 -12 -22 -20 -26 -7 -4 -13 -17 -13 -28 0 -11 -7
-22 -15 -25 -20 -8 -19 -44 1 -44 9 0 18 9 21 20 3 11 9 20 14 20 5 0 9 11 9
24 0 16 7 26 21 29 13 4 19 12 17 23 -4 25 -27 29 -35 7z"/>
<path d="M2064 6724 c3 -26 6 -82 6 -126 0 -54 4 -80 13 -82 25 -8 43 -17 72
-36 17 -11 40 -24 52 -29 11 -5 24 -15 28 -20 8 -13 39 -14 63 -2 9 5 30 14
45 20 39 15 45 39 16 58 -13 9 -79 72 -146 140 -67 68 -129 123 -139 123 -14
0 -16 -7 -10 -46z"/>
<path d="M6713 6610 c-73 -71 -133 -133 -133 -139 0 -16 53 -61 71 -61 9 0 24
9 34 20 10 11 24 20 32 20 7 0 13 4 13 9 0 5 12 14 28 21 52 22 71 34 81 55
11 23 22 193 12 199 -3 2 -66 -54 -138 -124z"/>
<path d="M3376 6702 c-3 -4 -1 -26 4 -48 5 -21 10 -61 10 -87 0 -44 2 -49 30
-58 17 -6 30 -15 30 -20 0 -5 8 -9 19 -9 10 0 24 -7 31 -15 7 -8 19 -15 27
-15 7 0 16 -7 19 -15 4 -8 18 -15 34 -15 16 0 30 7 34 15 3 8 12 15 19 15 8 0
20 7 27 15 7 8 21 15 31 15 11 0 19 4 19 9 0 5 11 12 25 15 13 3 29 15 35 26
13 25 35 26 52 2 7 -10 27 -25 43 -34 78 -39 116 -61 121 -69 10 -17 39 -9
119 31 44 22 88 40 98 40 12 0 17 6 15 18 -3 14 -22 19 -113 30 -61 7 -135 18
-165 24 -30 6 -77 13 -105 15 -27 2 -64 11 -82 19 -17 8 -46 14 -65 14 -18 1
-44 7 -58 15 -14 8 -37 14 -51 15 -15 0 -40 7 -55 15 -16 8 -38 15 -50 15 -11
0 -29 7 -40 15 -21 16 -50 19 -58 7z"/>
<path d="M5490 6665 c-27 -14 -88 -31 -160 -45 -25 -4 -58 -13 -73 -19 -16 -6
-48 -11 -72 -11 -34 0 -47 -5 -59 -22 -21 -29 -12 -38 89 -88 46 -22 87 -45
90 -50 8 -13 55 -13 55 0 0 5 11 12 25 16 14 3 25 10 25 14 0 4 12 13 28 19
74 30 85 43 98 117 14 85 6 96 -46 69z"/>
<path d="M537 6654 c-4 -4 -7 -16 -7 -27 0 -11 -7 -25 -17 -32 -10 -8 -14 -19
-10 -30 6 -14 10 -15 22 -5 8 7 15 17 15 22 0 5 7 16 15 25 9 8 15 22 13 31
-3 17 -21 26 -31 16z"/>
<path d="M5025 6563 c-22 -2 -83 -10 -136 -18 -53 -8 -116 -15 -141 -15 -24 0
-49 -5 -55 -11 -8 -8 -17 -8 -31 0 -13 7 -93 11 -212 11 -160 0 -192 -2 -196
-15 -4 -8 -12 -15 -20 -15 -8 0 -14 -6 -14 -12 -1 -13 -63 -58 -81 -58 -5 0
-9 -4 -9 -9 0 -5 -10 -13 -22 -17 -52 -15 -58 -29 -58 -146 0 -111 8 -138 42
-138 8 0 19 -5 25 -11 13 -13 47 -33 81 -48 12 -6 22 -15 22 -21 0 -5 7 -10
15 -10 8 0 15 4 15 10 0 5 11 12 24 16 14 3 27 12 30 20 3 8 14 14 24 14 11 0
25 7 32 15 7 8 18 15 25 15 29 0 36 30 36 140 0 96 -2 114 -18 126 -10 7 -22
14 -26 14 -8 0 -68 40 -77 51 -3 3 -15 11 -27 18 -26 13 -30 31 -8 31 9 0 53
-18 99 -40 80 -38 120 -49 128 -32 2 4 20 15 41 25 20 9 53 25 72 34 24 12 38
14 45 7 8 -8 -7 -23 -50 -52 -33 -23 -64 -42 -69 -42 -4 0 -16 -9 -25 -19 -14
-16 -18 -38 -18 -119 0 -107 11 -142 43 -142 11 0 22 -7 25 -15 4 -8 12 -15
20 -15 7 0 34 -14 59 -31 l45 -31 39 31 c21 17 43 31 49 31 5 0 15 7 22 15 7
8 20 15 30 15 9 0 25 8 34 19 14 15 16 36 14 126 l-3 108 -30 16 c-98 53 -163
111 -126 111 16 0 146 -62 149 -71 7 -16 52 -9 90 14 20 13 61 34 90 47 53 25
75 56 51 71 -8 5 -16 8 -19 7 -3 -1 -23 -3 -45 -5z m-310 -193 c13 0 39 -14
59 -32 40 -35 45 -61 24 -127 -17 -54 -83 -96 -136 -86 -49 9 -99 44 -111 77
-13 37 -2 104 21 124 26 24 90 53 106 48 8 -2 24 -4 37 -4z m-404 -17 c34 -20
54 -64 53 -117 -1 -31 -9 -45 -38 -72 -32 -29 -44 -34 -86 -34 -43 0 -54 5
-90 38 -35 34 -40 44 -39 83 1 61 10 79 50 100 43 23 112 24 150 2z"/>
<path d="M470 6515 c0 -20 4 -26 18 -23 9 2 17 12 17 23 0 11 -8 21 -17 23
-14 3 -18 -3 -18 -23z"/>
<path d="M442 6458 c2 -12 10 -23 18 -23 22 0 19 39 -3 43 -15 3 -18 -1 -15
-20z"/>
<path d="M2020 6467 c-14 -7 -27 -14 -30 -18 -7 -9 -137 -69 -150 -69 -17 0
-11 -21 15 -56 14 -18 25 -36 25 -39 0 -4 13 -24 28 -44 16 -20 32 -43 35 -51
4 -8 16 -28 27 -45 10 -16 29 -50 42 -74 12 -24 28 -45 34 -48 6 -2 28 11 48
29 20 18 58 45 84 59 l47 26 3 113 c2 94 0 116 -14 131 -9 11 -25 19 -34 19
-9 0 -21 5 -27 11 -6 6 -20 16 -31 23 -74 43 -77 44 -102 33z m85 -102 c39
-16 55 -36 65 -81 6 -27 5 -45 -6 -65 -18 -36 -27 -41 -59 -33 -32 8 -95 102
-101 150 -7 53 22 62 101 29z"/>
<path d="M2895 6466 c-11 -6 -22 -14 -25 -17 -7 -9 -96 -49 -108 -49 -6 0 -13
-7 -16 -15 -4 -11 40 -61 139 -160 79 -80 146 -145 149 -145 3 0 21 15 40 33
l36 32 -3 114 -2 113 -40 24 c-22 13 -47 27 -55 30 -8 4 -22 12 -30 19 -32 24
-64 33 -85 21z m106 -106 c37 -21 58 -100 25 -100 -29 0 -106 77 -106 106 0 8
62 3 81 -6z"/>
<path d="M3329 6459 c-18 -10 -41 -21 -49 -25 -8 -5 -21 -14 -28 -21 -7 -7
-19 -13 -25 -13 -7 -1 -21 -8 -32 -18 -18 -15 -20 -29 -19 -123 1 -113 4 -125
37 -140 12 -5 36 -18 52 -29 17 -11 37 -23 45 -26 8 -4 23 -14 33 -22 15 -13
19 -13 35 0 9 8 24 18 32 22 8 3 29 15 45 26 17 10 45 27 63 36 l33 17 -3 114
-3 115 -40 24 c-22 13 -49 28 -60 34 -11 6 -34 19 -51 29 -29 18 -31 18 -65 0z
m124 -118 c15 -14 27 -34 27 -45 0 -12 4 -27 9 -35 16 -24 -18 -87 -59 -110
-68 -38 -136 -24 -177 38 -36 53 -32 109 12 154 29 30 43 36 82 39 51 3 61 -1
106 -41z"/>
<path d="M3759 6457 c-62 -39 -67 -42 -113 -66 l-46 -25 0 -106 c0 -93 2 -108
20 -123 11 -9 27 -17 35 -17 7 0 17 -5 20 -11 4 -5 17 -15 28 -20 41 -19 70
-37 78 -51 7 -11 12 -11 26 0 10 7 26 15 36 18 9 4 17 10 17 14 0 5 12 13 28
19 15 6 41 20 57 31 17 11 36 23 43 26 8 4 12 38 12 114 0 94 -2 108 -17 114
-10 3 -31 15 -48 26 -16 11 -37 23 -45 26 -8 4 -22 13 -30 20 -35 30 -66 33
-101 11z m140 -121 c17 -19 32 -47 35 -71 6 -35 3 -46 -21 -77 -17 -22 -46
-44 -72 -54 -44 -17 -45 -17 -90 7 -71 37 -81 51 -81 114 0 46 4 60 25 81 60
60 146 60 204 0z"/>
<path d="M5083 6468 c-13 -6 -23 -14 -23 -19 0 -4 -12 -12 -27 -18 -16 -6 -46
-22 -68 -35 l-40 -24 -3 -107 c-3 -117 4 -137 54 -149 13 -4 24 -11 24 -16 0
-6 7 -10 16 -10 9 0 34 -14 55 -31 37 -29 41 -30 58 -15 10 9 22 16 28 16 6 0
16 7 23 15 7 8 20 15 30 15 10 0 20 7 24 15 3 8 14 15 25 15 32 0 41 31 41
142 0 91 -2 106 -20 121 -11 9 -26 17 -34 17 -7 0 -19 7 -26 15 -7 8 -18 15
-26 15 -7 0 -17 6 -21 13 -7 10 -58 39 -66 36 -1 0 -12 -5 -24 -11z m128 -129
c37 -45 44 -89 23 -135 -48 -100 -198 -99 -240 2 -8 18 -14 46 -14 62 0 32 33
82 55 82 7 0 19 7 26 16 10 12 26 15 68 12 47 -4 58 -9 82 -39z"/>
<path d="M5520 6459 c-19 -10 -43 -21 -52 -25 -10 -3 -18 -10 -18 -14 0 -5
-10 -12 -22 -16 -59 -18 -63 -28 -61 -147 3 -107 11 -137 38 -137 7 0 18 -7
25 -15 7 -8 21 -15 32 -15 10 0 21 -6 24 -14 3 -8 13 -17 22 -20 9 -3 25 -11
36 -18 15 -11 19 -11 23 0 3 7 15 18 27 23 11 5 35 18 51 29 17 11 37 22 45
26 45 17 45 18 48 134 2 102 1 115 -17 131 -11 11 -26 19 -34 19 -7 0 -18 5
-24 11 -11 11 -19 16 -79 50 -27 16 -31 16 -64 -2z m80 -84 c7 -8 18 -15 24
-15 37 0 71 -81 60 -139 -12 -57 -144 -123 -174 -86 -7 8 -18 15 -24 15 -22 0
-57 46 -63 83 -4 25 1 48 18 82 27 54 26 54 81 64 62 13 64 12 78 -4z"/>
<path d="M6840 6459 c-19 -10 -45 -22 -57 -28 -11 -5 -24 -15 -28 -20 -3 -6
-14 -11 -24 -11 -39 0 -49 -29 -46 -142 3 -114 6 -124 38 -139 12 -5 36 -18
52 -29 17 -11 40 -25 53 -31 12 -7 22 -16 22 -21 0 -11 38 -10 45 2 8 13 55
13 55 0 0 -6 -11 -15 -24 -20 -25 -9 -46 -55 -46 -101 0 -51 26 -32 65 47 34
69 36 78 21 86 -19 11 -12 28 12 28 19 0 47 28 63 63 5 12 16 33 25 47 10 18
12 40 7 80 -3 30 -7 63 -8 73 -1 9 -6 21 -11 26 -12 12 -74 48 -104 62 -13 5
-27 13 -30 17 -19 25 -47 29 -80 11z m108 -105 c28 -32 29 -83 2 -117 -11 -14
-20 -29 -20 -34 0 -5 -15 -24 -34 -42 -25 -24 -40 -31 -54 -27 -32 10 -71 45
-87 77 -14 26 -14 35 0 84 11 35 24 59 38 66 64 35 120 32 155 -7z"/>
<path d="M5960 6463 c-8 -3 -19 -12 -23 -19 -4 -8 -16 -14 -26 -14 -10 0 -24
-7 -31 -15 -7 -8 -18 -15 -24 -15 -6 -1 -20 -8 -31 -18 -18 -15 -20 -29 -19
-122 1 -111 8 -140 30 -140 8 0 19 -9 26 -20 21 -34 53 -24 105 32 26 28 90
93 141 143 93 92 93 92 70 107 -13 8 -35 18 -50 22 -16 3 -28 11 -28 16 0 6
-7 10 -16 10 -9 0 -27 9 -41 20 -25 20 -53 24 -83 13z m54 -101 c7 -12 -36
-76 -69 -105 -30 -24 -31 -24 -53 -7 -12 10 -22 29 -22 42 1 63 114 118 144
70z"/>
<path d="M2365 6433 c-10 -10 -32 -28 -49 -41 l-31 -23 0 -107 c0 -95 2 -109
20 -122 30 -22 57 -38 88 -51 15 -6 27 -14 27 -19 0 -4 8 -10 18 -14 9 -3 25
-11 34 -18 14 -10 20 -9 35 4 10 8 35 21 56 29 20 7 37 19 37 26 0 7 -4 13 -8
13 -11 0 -252 238 -252 249 0 4 18 21 40 36 22 16 39 33 37 39 -6 19 -34 18
-52 -1z"/>
<path d="M410 6395 c0 -20 4 -26 18 -23 9 2 17 12 17 23 0 11 -8 21 -17 23
-14 3 -18 -3 -18 -23z"/>
<path d="M6477 6232 c-145 -145 -155 -164 -96 -177 16 -4 29 -11 29 -16 0 -15
19 -10 63 18 62 41 80 51 102 62 36 16 42 34 48 126 3 50 8 98 12 108 18 44
-30 7 -158 -121z"/>
<path d="M384 6345 c-4 -8 -3 -23 0 -32 6 -15 8 -15 23 -1 16 17 12 48 -7 48
-6 0 -13 -7 -16 -15z"/>
<path d="M350 6254 c0 -23 4 -34 12 -32 33 11 36 68 3 68 -11 0 -15 -10 -15
-36z"/>
<path d="M8624 6225 c-7 -18 14 -47 27 -39 5 3 9 16 9 30 0 27 -27 34 -36 9z"/>
<path d="M327 6214 c-4 -4 -7 -18 -7 -31 0 -26 27 -32 37 -7 6 17 -19 49 -30
38z"/>
<path d="M8653 6154 c-7 -18 8 -49 23 -49 5 0 10 15 12 33 2 24 -1 32 -13 32
-8 0 -18 -7 -22 -16z"/>
<path d="M296 6143 c-3 -4 -6 -19 -6 -35 0 -39 34 -35 38 3 3 25 -18 46 -32
32z"/>
<path d="M2245 6089 c-4 -5 -17 -14 -28 -20 -12 -5 -29 -13 -37 -17 -44 -25
-62 -32 -85 -32 -31 0 -45 -41 -23 -68 7 -9 28 -48 46 -87 19 -38 40 -83 48
-98 8 -16 14 -37 14 -47 0 -10 14 -33 31 -51 17 -18 26 -35 20 -37 -14 -5 -15
-32 -1 -32 6 0 10 6 11 13 0 13 92 87 109 87 5 0 10 4 10 9 0 5 12 14 28 20
58 22 61 29 61 141 -1 115 -7 135 -44 144 -14 4 -25 11 -25 16 0 6 -7 10 -16
10 -9 0 -33 14 -54 30 -40 32 -55 36 -65 19z m111 -125 c30 -31 34 -42 34 -87
0 -38 -5 -56 -22 -74 -23 -25 -60 -30 -76 -10 -28 33 -72 128 -72 154 0 39 17
53 63 53 32 0 46 -7 73 -36z"/>
<path d="M3115 6090 c-3 -5 -17 -10 -31 -10 -44 0 -26 -32 69 -122 50 -48 95
-88 100 -88 22 0 -3 -34 -78 -104 -47 -43 -85 -83 -85 -88 0 -4 11 -13 24 -20
22 -9 37 -4 125 48 l101 59 0 106 c0 113 -6 128 -57 143 -13 4 -23 11 -23 16
0 4 -11 11 -25 14 -14 4 -25 11 -25 16 0 6 -6 10 -14 10 -7 0 -19 7 -26 15
-14 17 -46 20 -55 5z"/>
<path d="M3556 6085 c-3 -8 -15 -15 -26 -15 -11 0 -20 -5 -20 -10 0 -6 -10
-15 -22 -20 -13 -6 -32 -15 -43 -22 -11 -6 -27 -14 -35 -18 -12 -6 -16 -32
-18 -121 -3 -108 -2 -114 20 -131 13 -10 31 -18 41 -18 10 0 20 -7 23 -15 4
-8 15 -15 25 -15 11 0 22 -6 25 -14 10 -27 63 -30 95 -7 15 12 32 21 37 21 5
0 15 7 22 15 7 8 20 15 29 15 9 1 25 8 36 18 18 15 20 29 19 128 -1 118 -5
134 -33 134 -9 0 -22 5 -28 11 -12 12 -46 33 -80 48 -11 5 -24 15 -28 20 -9
16 -32 13 -39 -4z m85 -91 c46 -23 71 -88 60 -150 -11 -55 -33 -78 -93 -95
-49 -13 -92 4 -132 52 -49 58 -27 153 41 182 76 31 84 32 124 11z"/>
<path d="M3998 6093 c-6 -14 -67 -53 -82 -53 -7 0 -16 -7 -20 -15 -3 -8 -14
-15 -25 -15 -11 0 -23 -5 -27 -11 -4 -7 -8 -62 -8 -123 -2 -101 0 -113 19
-128 11 -10 24 -17 28 -18 10 0 64 -39 90 -64 26 -25 79 -16 135 24 23 16 45
30 48 30 3 0 18 9 32 21 26 20 27 22 23 131 -3 112 -11 138 -43 138 -8 0 -19
5 -25 11 -12 12 -46 33 -80 48 -11 5 -24 15 -28 20 -7 13 -32 15 -37 4z m79
-101 c50 -27 76 -66 68 -105 -12 -59 -15 -65 -55 -91 -67 -44 -179 -29 -194
26 -3 13 -6 41 -6 64 0 32 6 46 33 71 60 57 97 66 154 35z"/>
<path d="M4435 6089 c-4 -5 -17 -14 -28 -20 -27 -11 -57 -30 -75 -46 -7 -7
-19 -13 -26 -13 -33 0 -44 -34 -47 -142 -3 -103 -2 -108 22 -129 21 -18 30
-20 79 -12 30 4 103 8 162 8 138 0 146 6 129 94 -7 33 -9 77 -5 97 8 41 -11
84 -36 84 -9 0 -21 5 -27 11 -12 12 -46 33 -80 48 -11 5 -24 15 -28 20 -3 6
-12 11 -20 11 -8 0 -17 -5 -20 -11z m93 -109 c13 -10 31 -29 41 -42 18 -22 18
-25 2 -58 -16 -34 -18 -35 -91 -43 -88 -10 -125 0 -142 39 -10 22 -9 32 7 62
37 68 124 88 183 42z"/>
<path d="M4873 6089 c-11 -11 -36 -26 -78 -49 -84 -44 -79 -35 -87 -165 -5
-104 -4 -121 10 -132 29 -22 100 -53 124 -53 13 -1 34 -7 48 -15 33 -19 43
-18 68 3 45 37 66 52 74 52 5 0 18 8 29 19 18 16 19 29 17 132 -3 108 -4 114
-26 125 -13 6 -29 17 -35 23 -6 6 -19 11 -29 11 -10 0 -21 7 -24 15 -4 8 -12
15 -19 15 -7 0 -18 7 -25 15 -15 18 -32 19 -47 4z m69 -98 c59 -25 70 -41 73
-110 3 -70 -11 -90 -72 -97 -51 -7 -144 27 -160 58 -30 57 -3 125 61 153 42
18 48 18 98 -4z"/>
<path d="M5315 6089 c-4 -5 -17 -15 -28 -20 -34 -15 -68 -36 -80 -48 -6 -6
-17 -11 -24 -11 -7 0 -21 -8 -30 -17 -15 -15 -18 -35 -16 -123 2 -95 4 -106
22 -114 12 -5 21 -13 21 -18 0 -4 8 -8 19 -8 10 0 24 -7 31 -15 7 -8 19 -15
27 -15 7 0 16 -6 19 -14 3 -8 18 -17 33 -21 29 -6 57 3 106 35 54 35 80 49 98
56 15 5 17 21 17 114 0 114 -6 129 -57 144 -13 4 -23 12 -23 17 0 5 -9 9 -20
9 -11 0 -23 7 -26 15 -4 8 -12 15 -19 15 -7 0 -18 7 -25 15 -15 17 -36 20 -45
4z m53 -89 c12 0 38 -16 57 -35 32 -31 35 -39 35 -94 0 -54 -3 -62 -30 -85
-40 -33 -106 -54 -122 -38 -7 7 -20 12 -29 12 -9 0 -31 13 -48 29 -25 23 -31
37 -31 69 0 23 4 52 10 66 13 35 89 89 115 82 11 -3 30 -6 43 -6z"/>
<path d="M5755 6089 c-4 -5 -17 -15 -28 -20 -12 -5 -35 -18 -52 -29 -16 -11
-37 -22 -45 -26 -45 -17 -45 -18 -48 -133 -3 -106 -1 -113 20 -131 13 -11 30
-19 39 -20 9 0 22 -7 29 -15 7 -8 17 -15 22 -15 5 0 22 -10 38 -21 22 -17 36
-20 64 -15 20 4 36 11 36 16 0 4 14 11 30 15 50 11 38 42 -50 120 -51 46 -76
75 -72 85 5 14 26 36 100 101 41 36 37 51 -19 79 -49 23 -55 24 -64 9z"/>
<path d="M6630 6090 c0 -6 -10 -15 -22 -21 -34 -15 -68 -35 -81 -48 -6 -6 -18
-11 -27 -11 -39 0 -50 -32 -50 -141 0 -114 -4 -107 73 -139 15 -7 27 -16 27
-21 0 -5 9 -9 20 -9 11 0 23 -7 26 -15 12 -30 67 -29 128 4 31 17 65 31 74 31
10 0 29 14 42 32 20 28 23 43 23 120 0 79 -2 91 -23 113 -13 14 -31 25 -40 25
-9 0 -21 5 -27 11 -13 13 -47 33 -80 48 -13 6 -23 15 -23 21 0 5 -9 10 -20 10
-11 0 -20 -5 -20 -10z m70 -95 c30 -16 60 -61 60 -91 0 -29 -49 -122 -72 -138
-40 -28 -83 -20 -128 22 -34 33 -40 45 -40 81 0 52 21 84 74 116 48 29 66 31
106 10z"/>
<path d="M8685 6071 c-7 -23 4 -53 19 -48 18 6 20 67 2 67 -8 0 -17 -8 -21
-19z"/>
<path d="M260 6025 c0 -41 26 -49 36 -11 7 29 -1 46 -22 46 -9 0 -14 -11 -14
-35z"/>
<path d="M2580 6035 c-13 -14 -29 -25 -36 -25 -22 0 -26 -19 -26 -131 0 -91 3
-113 17 -129 10 -11 26 -20 35 -20 10 0 23 -7 30 -15 7 -8 16 -15 21 -15 4 0
24 -11 44 -25 31 -20 40 -22 58 -12 12 7 24 15 27 19 3 4 17 12 30 17 14 6 32
15 40 20 8 5 32 17 53 26 20 9 37 21 37 27 0 16 -276 288 -292 288 -8 0 -25
-11 -38 -25z m96 -162 c14 -16 34 -37 45 -48 27 -29 24 -52 -11 -70 -29 -15
-31 -14 -77 18 -61 43 -80 107 -32 107 10 0 19 5 19 10 0 19 31 10 56 -17z"/>
<path d="M6158 5907 c-76 -78 -138 -144 -138 -148 0 -8 63 -39 79 -39 6 0 11
-4 11 -10 0 -5 7 -10 15 -10 8 0 30 -11 50 -25 31 -20 40 -22 58 -12 12 7 26
18 30 25 4 6 16 12 26 12 11 0 21 7 25 15 3 8 12 15 21 15 9 0 27 7 40 16 24
16 25 20 25 127 l0 111 -36 33 c-20 18 -44 33 -53 32 -9 0 -78 -64 -153 -142z
m170 -76 c-16 -52 -52 -75 -103 -65 -34 6 -34 7 -21 33 30 56 103 102 129 80
4 -3 2 -25 -5 -48z"/>
<path d="M8715 5990 c-9 -27 3 -60 21 -60 10 0 14 12 14 40 0 43 -23 57 -35
20z"/>
<path d="M234 5966 c-8 -21 -1 -59 13 -63 6 -2 14 5 18 16 12 40 -17 84 -31
47z"/>
<path d="M8745 5901 c-8 -27 3 -63 18 -58 7 2 12 19 12 37 0 38 -20 52 -30 21z"/>
<path d="M207 5883 c-10 -10 -8 -71 2 -78 15 -9 33 34 27 61 -6 24 -17 30 -29
17z"/>
<path d="M8775 5809 c-11 -17 5 -81 18 -76 7 2 13 22 15 45 2 32 0 42 -12 42
-8 0 -18 -5 -21 -11z"/>
<path d="M170 5736 c0 -34 4 -46 15 -46 31 0 33 82 2 88 -14 3 -17 -4 -17 -42z"/>
<path d="M2865 5685 c-22 -19 -48 -35 -57 -35 -10 0 -18 -4 -18 -9 0 -5 -13
-14 -30 -20 l-30 -10 0 -120 c0 -112 1 -121 19 -121 10 0 24 -7 31 -15 7 -8
21 -15 32 -15 10 0 21 -7 24 -15 4 -8 12 -15 19 -15 7 0 18 -7 25 -15 15 -18
61 -20 77 -4 13 13 41 30 105 61 l47 23 0 120 1 121 -38 19 c-20 11 -55 34
-78 52 -52 42 -79 41 -129 -2z m101 -94 c96 -43 117 -132 47 -190 -44 -37 -87
-43 -138 -21 -54 23 -72 46 -80 100 -5 37 -3 51 17 80 35 51 86 62 154 31z"/>
<path d="M5964 5705 c-4 -8 -13 -15 -22 -15 -8 0 -24 -7 -34 -17 -21 -19 -56
-40 -80 -49 -21 -7 -19 1 -20 -129 0 -128 0 -125 16 -125 7 0 19 -7 26 -15 7
-8 21 -15 32 -15 10 0 21 -7 24 -15 4 -8 15 -15 25 -15 11 0 22 -7 25 -15 4
-8 18 -15 34 -15 15 0 33 7 40 15 7 8 18 15 25 15 7 0 18 7 25 15 7 8 21 15
31 15 11 0 19 4 19 9 0 5 14 14 30 20 l31 10 -3 112 -3 112 -30 19 c-16 10
-37 21 -45 25 -26 12 -75 47 -83 61 -11 17 -56 15 -63 -3z m111 -115 c36 -22
45 -43 45 -106 0 -46 -25 -81 -78 -108 -68 -35 -165 19 -177 100 -6 34 -3 45
19 71 52 62 132 80 191 43z"/>
<path d="M8804 5697 c-9 -37 -1 -61 19 -65 16 -3 18 2 15 39 -3 48 -24 63 -34
26z"/>
<path d="M2446 5695 c-3 -8 -14 -15 -25 -15 -10 0 -21 -7 -25 -15 -3 -8 -12
-15 -19 -15 -8 0 -38 -13 -68 -29 -39 -21 -53 -34 -52 -47 11 -85 21 -132 31
-151 7 -12 12 -30 12 -41 0 -22 30 -52 53 -52 9 0 37 -11 63 -25 54 -29 86
-32 104 -10 7 8 18 15 25 15 7 0 18 7 25 15 7 8 21 15 31 15 11 0 19 4 19 9 0
5 14 14 30 20 l30 10 0 105 c0 117 -4 136 -30 136 -11 0 -22 5 -25 11 -4 5
-17 15 -28 20 -34 15 -68 36 -80 48 -16 16 -64 13 -71 -4z m102 -89 c39 -21
62 -66 62 -122 0 -47 -3 -55 -35 -83 -45 -39 -101 -43 -133 -8 -51 54 -66 156
-31 201 17 21 29 26 67 26 26 -1 57 -6 70 -14z"/>
<path d="M3325 5699 c-4 -5 -17 -15 -28 -20 -12 -5 -35 -18 -52 -29 -16 -11
-39 -24 -50 -29 -19 -8 -20 -17 -18 -127 1 -103 4 -119 20 -126 10 -5 32 -17
48 -28 17 -11 39 -24 50 -30 11 -6 31 -17 45 -25 21 -12 28 -12 45 0 22 16
130 70 159 79 15 5 17 13 12 44 -3 20 -6 76 -6 125 0 78 -2 87 -19 87 -10 0
-24 6 -30 14 -7 8 -23 17 -36 20 -14 4 -25 11 -25 16 0 6 -6 10 -14 10 -7 0
-19 7 -26 15 -14 17 -66 20 -75 4z m86 -89 c43 -12 79 -58 79 -101 0 -41 -38
-107 -72 -125 -39 -20 -122 -18 -144 3 -49 50 -55 150 -10 192 39 37 89 47
147 31z"/>
<path d="M3760 5695 c-7 -8 -19 -15 -26 -15 -8 0 -14 -4 -14 -9 0 -5 -12 -14
-27 -20 -16 -6 -41 -19 -58 -29 -30 -18 -30 -20 -37 -133 -4 -63 -4 -117 0
-121 4 -4 37 21 74 55 78 73 95 87 104 87 3 0 23 13 43 29 20 15 59 39 87 51
39 18 50 28 46 42 -2 10 -8 18 -13 18 -17 0 -109 44 -109 52 0 14 -57 9 -70
-7z"/>
<path d="M5033 5678 c-51 -28 -67 -48 -40 -48 25 0 151 -71 224 -126 77 -57
111 -72 104 -44 -2 8 -9 46 -15 83 -12 68 -12 69 -61 98 -28 16 -60 33 -72 38
-11 5 -24 15 -28 20 -11 19 -58 10 -112 -21z"/>
<path d="M5516 5695 c-3 -8 -12 -15 -19 -15 -8 0 -20 -7 -27 -15 -7 -8 -21
-15 -31 -15 -11 0 -19 -4 -19 -10 0 -5 -11 -12 -25 -16 -22 -5 -25 -11 -25
-52 0 -25 -5 -74 -11 -109 l-11 -65 33 -34 c18 -19 38 -34 45 -34 6 0 17 -7
24 -15 7 -8 20 -15 30 -15 10 0 23 -7 30 -15 17 -20 55 -19 76 2 20 20 40 32
106 65 l48 23 0 123 c0 114 -1 122 -19 122 -11 0 -23 5 -26 11 -4 5 -17 15
-28 20 -34 15 -68 36 -80 48 -16 16 -64 13 -71 -4z m124 -117 c52 -55 60 -81
40 -132 -14 -37 -85 -79 -119 -71 -36 9 -85 48 -110 88 -40 65 3 151 79 160
19 2 40 5 47 5 7 1 35 -22 63 -50z"/>
<path d="M6398 5703 c-6 -14 -67 -53 -82 -53 -8 0 -18 -5 -21 -11 -4 -5 -18
-14 -31 -19 -24 -9 -24 -12 -24 -130 0 -111 1 -120 19 -120 10 0 24 -6 30 -14
7 -8 23 -17 36 -20 14 -4 25 -11 25 -16 0 -6 6 -10 14 -10 7 0 19 -7 26 -15
15 -18 61 -20 77 -4 14 14 45 32 106 60 l47 23 0 118 c0 113 -1 119 -22 128
-13 6 -36 19 -53 30 -16 11 -40 24 -52 29 -11 5 -24 15 -28 20 -7 12 -62 15
-67 4z m87 -93 c75 -38 96 -119 48 -183 -55 -71 -123 -82 -189 -29 -26 21 -33
35 -39 78 -8 66 10 104 62 132 49 26 70 27 118 2z"/>
<path d="M6770 5681 c0 -5 -20 -22 -44 -38 l-44 -28 -7 -123 c-5 -86 -4 -127
4 -135 15 -15 24 -3 45 68 10 33 24 75 32 93 8 18 14 41 14 50 0 10 6 26 14
37 7 11 17 35 21 53 6 28 4 32 -14 32 -12 0 -21 -4 -21 -9z"/>
<path d="M147 5674 c-11 -11 -8 -92 4 -99 14 -10 19 -3 25 36 5 34 -14 77 -29
63z"/>
<path d="M8835 5579 c-10 -29 3 -91 18 -86 7 2 13 27 15 55 2 41 0 52 -12 52
-8 0 -18 -9 -21 -21z"/>
<path d="M117 5544 c-11 -11 -8 -102 4 -109 14 -10 17 -5 24 40 6 40 -12 85
-28 69z"/>
<path d="M8866 5448 c-10 -38 -7 -75 7 -87 21 -16 27 -3 27 56 0 38 -4 53 -14
53 -7 0 -16 -10 -20 -22z"/>
<path d="M87 5403 c-6 -10 -9 -49 -8 -95 1 -52 26 -51 35 1 9 61 -9 124 -27
94z"/>
<path d="M6606 5315 c-20 -14 -41 -25 -46 -25 -6 0 -10 -4 -10 -9 0 -5 -10
-13 -22 -17 -12 -3 -28 -13 -36 -20 -7 -8 -20 -14 -28 -14 -11 0 -14 -21 -14
-108 0 -93 3 -111 18 -125 10 -10 23 -17 28 -17 5 0 30 -18 54 -40 24 -22 49
-39 55 -37 5 2 13 26 16 53 7 57 26 162 40 219 19 73 30 146 24 156 -10 16
-41 10 -79 -16z"/>
<path d="M2680 5323 c-8 -4 -21 -12 -28 -20 -7 -7 -19 -13 -26 -13 -8 0 -19
-7 -26 -15 -7 -8 -21 -15 -31 -15 -11 0 -19 -4 -19 -9 0 -5 -8 -12 -17 -15
-16 -5 -18 -19 -17 -120 1 -63 5 -119 8 -125 4 -6 16 -11 27 -11 11 0 22 -7
25 -15 4 -8 14 -15 24 -15 11 0 22 -5 25 -11 4 -5 17 -14 28 -20 12 -5 30 -14
39 -21 14 -10 20 -9 36 5 10 9 23 17 29 17 6 0 13 7 17 15 3 8 14 15 24 15 10
0 23 5 29 11 6 6 22 17 35 23 22 11 23 17 26 126 3 109 2 115 -20 132 -13 10
-31 18 -41 18 -10 0 -20 7 -23 15 -4 8 -13 15 -21 15 -8 0 -26 9 -40 20 -26
21 -37 23 -63 13z m83 -99 c44 -21 67 -61 67 -116 0 -63 -38 -107 -104 -119
-64 -12 -103 9 -133 72 -20 41 -21 50 -10 87 23 77 105 112 180 76z"/>
<path d="M3110 5316 c-14 -9 -34 -20 -45 -26 -11 -6 -42 -23 -69 -39 l-49 -29
-1 -103 c-1 -86 2 -107 17 -121 9 -10 23 -18 30 -18 7 0 18 -5 24 -11 13 -13
47 -33 81 -48 12 -6 22 -15 22 -21 0 -13 37 -13 45 1 4 5 17 15 28 20 12 5 36
18 52 28 17 11 37 20 46 20 9 1 27 9 39 19 20 17 21 22 14 129 -5 89 -10 112
-23 117 -9 3 -23 10 -31 15 -8 5 -22 12 -30 16 -28 11 -63 33 -69 43 -11 19
-55 23 -81 8z m85 -93 c35 -13 52 -26 59 -44 13 -39 -2 -115 -30 -148 -29 -35
-88 -58 -107 -42 -7 6 -30 16 -51 23 -31 11 -41 20 -51 52 -24 69 -1 123 70
168 32 20 33 20 110 -9z"/>
<path d="M3520 5315 c-7 -8 -16 -15 -21 -15 -11 0 -102 -61 -111 -74 -4 -6 -8
-41 -8 -78 0 -81 15 -89 44 -25 20 43 91 143 120 166 9 7 16 20 16 27 0 19
-24 18 -40 -1z"/>
<path d="M5745 5319 c-11 -5 -33 -18 -50 -29 -16 -11 -37 -23 -45 -26 -84 -35
-80 -30 -80 -98 0 -44 5 -67 15 -76 8 -7 15 -18 15 -25 0 -7 7 -18 15 -25 8
-7 15 -22 15 -35 0 -30 39 -70 95 -96 38 -18 51 -20 64 -10 9 6 24 14 34 17 9
4 17 10 17 14 0 5 12 13 28 19 41 18 82 41 83 49 1 4 2 57 3 117 2 119 -1 125
-56 146 -16 6 -28 15 -28 20 0 5 -7 9 -16 9 -9 0 -27 9 -41 20 -28 22 -38 23
-68 9z m103 -99 c18 -11 32 -28 32 -39 0 -11 5 -23 10 -26 6 -3 10 -26 10 -50
0 -35 -6 -49 -29 -73 -36 -35 -56 -41 -97 -30 -24 6 -38 21 -63 67 -37 70 -40
115 -9 148 28 30 99 32 146 3z"/>
<path d="M6180 5315 c-14 -8 -35 -19 -47 -24 -11 -5 -24 -15 -28 -20 -3 -6
-15 -11 -26 -11 -10 0 -19 -4 -19 -9 0 -5 -8 -12 -17 -15 -16 -5 -18 -19 -16
-118 3 -129 5 -138 33 -138 11 0 23 -7 26 -15 4 -8 14 -15 24 -15 11 0 22 -5
25 -11 4 -5 17 -14 28 -20 12 -5 29 -14 38 -21 14 -9 20 -8 34 5 9 9 22 17 30
17 7 0 15 7 19 15 3 8 14 15 24 15 10 0 23 5 29 11 6 6 22 17 35 23 22 11 23
18 26 124 3 107 1 114 -20 132 -13 11 -31 19 -41 20 -10 0 -20 7 -23 15 -4 8
-13 15 -21 15 -8 0 -26 9 -40 20 -30 24 -40 24 -73 5z m95 -90 c31 -19 43 -35
57 -77 15 -48 15 -55 1 -86 -19 -40 -48 -61 -104 -73 -36 -8 -47 -6 -84 16
-56 32 -73 77 -55 139 7 22 14 47 16 54 2 7 12 15 21 18 10 3 29 12 43 19 35
20 59 18 105 -10z"/>
<path d="M8895 5280 c-8 -34 2 -107 15 -115 5 -3 12 9 15 28 15 77 -14 160
-30 87z"/>
<path d="M2333 5258 c3 -24 10 -61 15 -83 23 -88 45 -213 47 -270 2 -33 8 -84
14 -114 6 -29 11 -99 11 -154 0 -79 4 -104 16 -119 16 -16 16 -18 0 -24 -14
-5 -16 -26 -16 -145 0 -111 3 -139 14 -139 7 0 18 6 25 13 15 19 25 223 12
232 -23 14 -10 41 29 59 21 10 41 25 44 32 3 8 14 14 25 14 10 0 21 7 25 15 3
8 13 15 23 15 10 1 28 9 41 19 20 18 22 28 22 124 0 88 -3 106 -18 120 -10 10
-26 17 -34 17 -9 0 -21 7 -28 15 -7 8 -17 15 -22 15 -11 0 -72 42 -76 53 -5
11 -40 9 -47 -3 -8 -14 -35 -13 -35 1 0 7 8 18 18 25 14 10 17 30 18 128 l1
116 -29 22 c-17 13 -38 31 -46 41 -9 9 -25 17 -35 17 -16 0 -18 -6 -14 -42z
m263 -475 c28 -38 7 -113 -32 -113 -20 0 -23 5 -22 39 0 22 -3 44 -7 51 -9 14
12 40 33 40 8 0 21 -8 28 -17z"/>
<path d="M5486 5262 c-8 -13 33 -84 45 -76 13 8 11 54 -2 54 -7 0 -17 7 -24
17 -8 10 -14 12 -19 5z"/>
<path d="M56 5215 c-9 -25 -7 -133 3 -139 19 -12 31 23 28 78 -4 60 -19 90
-31 61z"/>
<path d="M8928 5093 c-9 -37 -1 -204 10 -215 19 -19 23 9 20 122 -2 65 -7 105
-14 107 -6 2 -13 -4 -16 -14z"/>
<path d="M27 4963 c-4 -3 -7 -71 -7 -150 0 -120 2 -143 15 -143 12 0 15 16 16
78 1 67 1 147 -1 205 0 17 -11 22 -23 10z"/>
<path d="M2900 4945 c-7 -8 -19 -15 -26 -15 -8 0 -14 -4 -14 -9 0 -5 -10 -13
-22 -17 -12 -3 -28 -13 -36 -20 -7 -8 -19 -14 -26 -14 -7 0 -21 -8 -30 -19
-14 -15 -16 -36 -14 -126 l3 -108 34 -18 c19 -10 39 -23 45 -29 5 -5 18 -10
28 -10 9 0 21 -6 25 -12 4 -7 18 -19 30 -25 19 -11 28 -10 55 7 18 11 43 24
55 29 11 5 24 15 28 20 3 6 13 11 20 11 8 0 24 8 35 17 18 15 20 30 20 124 0
110 -4 122 -50 143 -8 3 -28 15 -45 26 -16 11 -40 24 -52 29 -11 5 -24 15 -28
20 -9 15 -20 14 -35 -4z m92 -101 c45 -23 58 -64 50 -156 -1 -9 -14 -30 -28
-47 -33 -39 -81 -49 -137 -27 -84 32 -112 124 -60 192 46 61 105 74 175 38z"/>
<path d="M5965 4942 c-17 -9 -34 -23 -38 -29 -4 -7 -17 -13 -27 -13 -11 0 -20
-4 -20 -9 0 -5 -12 -14 -27 -20 -54 -20 -58 -28 -60 -142 l-2 -106 44 -22 c25
-12 47 -26 50 -32 4 -5 15 -9 25 -9 10 0 23 -6 27 -13 4 -7 20 -18 35 -24 23
-10 31 -9 63 13 20 13 42 24 49 24 8 0 16 7 20 15 3 8 13 15 23 15 10 1 28 9
41 19 20 18 22 28 22 123 0 91 -2 106 -20 121 -11 9 -27 17 -35 17 -7 0 -17 5
-20 11 -4 5 -17 15 -28 20 -30 13 -62 32 -79 46 -10 9 -20 8 -43 -5z m108
-107 c32 -21 47 -56 47 -114 0 -43 -4 -52 -35 -79 -19 -17 -51 -34 -70 -38
-71 -13 -145 54 -145 129 0 48 15 77 53 105 26 19 41 22 79 18 26 -3 58 -12
71 -21z"/>
<path d="M6415 4949 c-4 -5 -17 -14 -28 -20 -25 -10 -60 -31 -67 -40 -3 -3
-22 -14 -43 -24 l-38 -18 3 -114 3 -115 40 -24 c22 -13 49 -28 60 -34 11 -6
35 -19 52 -30 28 -17 37 -18 60 -7 16 6 30 14 33 18 3 3 25 12 50 20 l45 14 6
95 c3 52 10 121 14 153 7 50 6 57 -9 57 -21 0 -142 56 -151 70 -8 13 -22 13
-30 -1z m40 -105 c24 -15 25 -21 23 -98 -1 -71 -4 -84 -27 -108 -28 -31 -49
-35 -90 -14 -52 27 -73 86 -55 153 7 27 80 83 106 83 10 0 30 -7 43 -16z"/>
<path d="M3290 4931 c0 -8 -57 -48 -85 -60 -27 -12 -34 -41 -35 -143 l0 -106
31 -27 c17 -14 37 -24 43 -22 6 2 14 38 17 83 4 43 12 92 18 107 6 16 11 40
11 55 0 15 7 36 15 46 20 26 20 76 0 76 -8 0 -15 -4 -15 -9z"/>
<path d="M5686 4843 c3 -21 12 -57 20 -81 8 -23 14 -67 14 -97 0 -42 3 -55 15
-55 12 0 15 20 15 118 0 103 -3 121 -18 135 -10 10 -26 17 -36 17 -14 0 -16
-6 -10 -37z"/>
<path d="M8965 4673 c-9 -109 -1 -435 9 -452 21 -33 26 22 26 275 0 229 -2
274 -14 274 -11 0 -16 -24 -21 -97z"/>
<path d="M5734 4555 c-3 -14 -4 -40 0 -58 7 -43 -18 -267 -34 -297 -11 -21
-10 -26 14 -47 32 -27 65 -29 97 -5 32 22 55 37 104 62 l40 21 0 121 c0 119 0
121 -25 130 -13 5 -27 12 -30 16 -7 9 -40 30 -65 41 -12 5 -27 16 -34 25 -21
26 -60 20 -67 -9z m160 -171 c9 -24 -5 -94 -19 -94 -6 0 -20 9 -29 19 -16 17
-16 24 -5 55 14 38 42 49 53 20z"/>
<path d="M2673 4559 c-13 -13 -39 -28 -110 -64 l-53 -26 0 -117 0 -117 31 -17
c17 -10 37 -18 45 -18 8 0 17 -7 20 -15 4 -8 13 -15 20 -15 8 0 28 -10 44 -22
32 -23 38 -22 105 22 17 10 49 29 73 41 l42 23 0 118 0 119 -30 10 c-16 6 -30
15 -30 20 0 5 -7 9 -15 9 -16 0 -77 39 -83 53 -5 11 -47 8 -59 -4z m80 -93
c18 -7 43 -25 56 -40 20 -22 24 -35 22 -78 -3 -67 -14 -86 -64 -109 -61 -27
-96 -24 -137 13 -32 29 -35 37 -38 98 -4 65 -4 67 32 98 41 35 77 41 129 18z"/>
<path d="M3115 4559 c-4 -5 -17 -15 -28 -20 -34 -15 -68 -36 -80 -48 -6 -6
-19 -11 -28 -11 -9 0 -20 -8 -24 -17 -6 -14 -9 -146 -6 -219 1 -7 9 -14 19
-18 9 -3 24 -9 32 -14 8 -5 24 -14 35 -20 11 -7 30 -16 43 -22 12 -5 22 -14
22 -19 0 -5 11 -12 24 -15 16 -4 45 5 91 29 37 19 70 36 72 39 2 2 -3 18 -11
35 -11 21 -17 66 -19 149 -2 65 -7 124 -11 130 -9 16 -85 52 -107 52 -10 0
-21 -5 -24 -11z m30 -132 c11 -61 12 -162 2 -174 -5 -7 -26 -13 -46 -13 -52 0
-82 34 -89 99 -5 60 20 103 70 118 44 13 56 7 63 -30z"/>
<path d="M6185 4559 c-4 -5 -17 -15 -28 -20 -34 -15 -68 -36 -80 -48 -6 -6
-19 -11 -29 -11 -10 0 -18 -7 -18 -17 -4 -220 -4 -222 23 -243 14 -11 32 -20
41 -20 9 0 19 -7 22 -15 4 -8 15 -15 25 -15 11 0 22 -6 25 -14 12 -32 55 -27
119 14 17 10 49 29 73 41 l42 23 0 118 0 119 -30 10 c-16 6 -30 15 -30 20 0 5
-8 9 -19 9 -10 0 -24 7 -31 15 -7 8 -19 15 -27 15 -7 0 -16 7 -19 15 -7 17
-50 20 -59 4z m78 -90 c48 -13 77 -57 77 -117 0 -58 -23 -94 -73 -115 -54 -22
-82 -22 -115 1 -15 10 -34 21 -43 25 -27 9 -35 98 -12 139 42 76 77 90 166 67z"/>
<path d="M6555 4539 c-4 -10 -10 -19 -14 -19 -8 0 -44 -26 -72 -52 -16 -15
-19 -33 -19 -123 0 -97 2 -105 22 -116 23 -13 38 -23 69 -52 22 -20 55 -19 53
1 -1 6 -2 93 -2 191 -2 146 -5 180 -16 184 -9 4 -17 -2 -21 -14z"/>
<path d="M27 4314 c-10 -10 -8 -337 2 -353 17 -27 22 11 22 171 1 90 0 169 0
176 -1 13 -14 16 -24 6z"/>
<path d="M2425 4182 c-10 -27 -35 -201 -35 -247 0 -24 -6 -61 -14 -83 -10 -28
-11 -43 -4 -50 8 -8 8 -15 1 -24 -5 -7 -18 -47 -27 -88 -10 -41 -24 -96 -32
-121 -8 -26 -14 -54 -14 -63 0 -8 -6 -30 -14 -48 -31 -75 -36 -99 -20 -105 8
-3 24 4 35 16 11 12 32 29 47 38 33 22 40 27 75 55 27 22 28 25 29 132 l2 109
-32 27 c-40 33 -40 40 -2 40 17 0 30 -4 30 -10 0 -5 14 -10 30 -10 17 0 30 5
30 10 0 6 10 15 23 21 12 5 49 25 82 43 l60 32 3 117 c2 111 2 117 -17 117
-11 0 -23 5 -26 11 -4 5 -17 15 -28 20 -34 15 -65 34 -84 51 -10 8 -35 18 -55
21 -28 4 -38 2 -43 -11z m164 -147 c43 -55 33 -122 -24 -159 -45 -29 -54 -17
-50 68 5 112 31 144 74 91z"/>
<path d="M2900 4183 c-8 -3 -19 -12 -23 -19 -4 -8 -14 -14 -21 -14 -8 0 -19
-7 -26 -15 -7 -8 -21 -15 -31 -15 -11 0 -19 -4 -19 -10 0 -5 -11 -12 -25 -16
-25 -6 -25 -7 -25 -125 0 -87 3 -121 13 -123 25 -8 43 -17 72 -36 17 -11 42
-25 58 -31 15 -6 27 -15 27 -20 0 -13 34 -11 47 2 12 12 46 33 80 48 11 5 24
15 28 20 3 6 15 11 25 11 25 0 28 16 29 140 l0 105 -30 18 c-17 9 -37 17 -45
17 -8 0 -17 7 -20 15 -4 8 -12 15 -19 15 -8 0 -20 6 -27 14 -18 17 -49 26 -68
19z m100 -114 c43 -28 48 -36 54 -77 5 -39 2 -51 -21 -85 -35 -51 -71 -69
-131 -64 -36 3 -54 11 -79 36 -29 28 -33 38 -33 85 0 61 20 93 72 119 49 24
85 21 138 -14z"/>
<path d="M5968 4174 c-12 -7 -33 -18 -45 -23 -11 -5 -24 -15 -28 -20 -3 -6
-13 -11 -21 -11 -8 0 -28 -9 -43 -21 l-29 -21 4 -106 c1 -59 3 -110 3 -115 1
-4 11 -12 24 -17 12 -6 36 -19 52 -30 17 -11 40 -24 52 -29 11 -5 24 -15 28
-20 9 -16 41 -13 55 4 7 8 21 15 31 15 11 0 19 4 19 10 0 5 24 21 54 35 30 14
57 33 60 41 3 9 6 60 6 114 0 109 2 106 -82 141 -16 6 -28 15 -28 20 0 5 -6 9
-14 9 -7 0 -19 6 -25 14 -18 21 -47 25 -73 10z m106 -109 c49 -38 62 -83 40
-140 -21 -56 -29 -63 -94 -75 -49 -9 -57 -8 -96 15 -47 28 -54 42 -56 108 -1
53 18 84 65 109 43 22 98 16 141 -17z"/>
<path d="M6410 4183 c-8 -3 -19 -12 -23 -19 -4 -8 -14 -14 -21 -14 -8 0 -19
-7 -26 -15 -7 -8 -21 -15 -31 -15 -11 0 -19 -4 -19 -10 0 -5 -11 -12 -25 -16
-25 -6 -25 -7 -25 -125 0 -87 3 -121 13 -123 25 -8 43 -17 72 -36 17 -11 39
-24 50 -30 11 -5 28 -16 38 -22 13 -10 21 -10 35 -1 37 26 136 73 153 73 10 0
20 4 24 9 8 14 -13 231 -26 264 -8 18 -19 27 -35 27 -12 0 -26 5 -29 10 -3 6
-13 10 -22 10 -9 0 -24 6 -32 14 -20 17 -52 26 -71 19z m51 -110 c36 -44 52
-152 29 -190 -8 -12 -27 -28 -42 -34 -33 -13 -73 0 -119 39 -24 20 -29 31 -29
71 0 46 28 101 62 123 24 14 84 9 99 -9z"/>
<path d="M3252 4140 c-7 -11 -17 -20 -23 -20 -5 0 -20 -10 -32 -22 -22 -22
-23 -30 -19 -140 3 -103 6 -118 21 -118 9 0 22 -5 28 -11 12 -12 46 -33 80
-48 11 -5 24 -15 28 -20 8 -14 52 -14 60 -1 3 6 15 10 26 10 40 0 36 32 -10
105 -11 17 -29 50 -41 75 -11 25 -28 58 -35 73 -8 16 -15 35 -15 43 0 25 -32
94 -44 94 -6 0 -17 -9 -24 -20z"/>
<path d="M5687 4118 c-9 -4 -18 -23 -22 -41 -6 -31 -11 -44 -55 -137 -26 -56
-38 -75 -73 -122 -67 -88 11 -104 101 -20 7 6 19 12 26 12 8 0 19 7 26 15 7 8
20 15 30 15 15 0 18 15 23 122 5 118 5 123 -18 144 -16 14 -28 18 -38 12z"/>
<path d="M8928 4098 c-6 -18 -2 -208 5 -214 3 -4 11 -3 17 1 14 9 9 217 -6
222 -6 2 -14 -2 -16 -9z"/>
<path d="M57 3863 c-11 -11 -8 -121 4 -128 15 -10 20 -2 26 44 8 62 -8 107
-30 84z"/>
<path d="M6599 3790 c-19 -16 -40 -29 -46 -30 -7 0 -13 -4 -13 -9 0 -5 -10
-13 -22 -17 -13 -4 -33 -14 -45 -23 -21 -15 -22 -24 -23 -119 0 -96 2 -105 23
-123 12 -10 30 -18 40 -19 10 0 20 -7 23 -15 4 -8 15 -15 25 -15 11 0 22 -7
25 -15 4 -8 11 -15 17 -15 6 0 18 -7 28 -16 13 -12 22 -13 38 -5 44 24 73 0
31 -27 -19 -11 -20 -22 -18 -130 2 -104 4 -119 22 -134 12 -10 26 -17 33 -18
6 0 18 -6 25 -13 7 -6 38 -29 69 -50 l57 -39 7 -128 c7 -125 7 -128 31 -134
13 -4 24 -11 24 -16 0 -6 4 -10 10 -10 5 0 36 -18 67 -40 62 -43 73 -46 91
-28 8 8 4 20 -17 47 -15 20 -31 43 -34 51 -4 8 -16 29 -27 45 -10 17 -31 54
-45 82 -15 29 -30 55 -36 58 -5 4 -9 15 -9 25 0 10 -12 29 -28 42 -15 13 -26
31 -24 40 2 10 -13 51 -32 91 -20 40 -36 78 -36 84 0 6 -6 24 -14 40 -30 61
-46 105 -46 128 0 14 -8 29 -20 35 -15 8 -18 17 -13 40 3 19 0 39 -11 55 -9
13 -16 37 -16 52 -1 15 -7 39 -15 53 -8 14 -14 39 -15 56 0 17 -7 51 -15 74
-8 23 -15 57 -15 76 0 45 -11 48 -51 14z"/>
<path d="M8901 3801 c-20 -37 -10 -121 15 -121 11 0 14 16 14 64 0 68 -12 90
-29 57z"/>
<path d="M2670 3789 c-19 -10 -45 -22 -57 -28 -11 -5 -24 -15 -28 -20 -3 -6
-13 -11 -21 -11 -38 0 -47 -28 -47 -140 0 -114 8 -140 44 -140 10 0 21 -5 24
-11 4 -5 17 -15 28 -20 31 -14 62 -33 80 -47 11 -9 17 -10 22 -2 4 6 17 15 28
21 25 10 60 31 67 40 3 3 22 14 43 24 l37 17 0 113 c0 120 -5 134 -57 149 -13
4 -23 12 -23 17 0 5 -9 9 -19 9 -11 0 -23 5 -26 10 -3 6 -18 16 -33 24 -24 12
-31 12 -62 -5z m83 -84 c19 -8 45 -27 57 -42 19 -24 21 -35 15 -83 -7 -58 -23
-83 -67 -106 -54 -28 -127 -9 -169 44 -17 22 -20 35 -15 72 7 54 30 87 76 111
42 23 57 23 103 4z"/>
<path d="M5745 3797 c-11 -7 -22 -15 -25 -19 -3 -4 -17 -12 -30 -17 -14 -6
-32 -15 -40 -20 -8 -5 -27 -14 -42 -22 l-28 -12 0 -112 c0 -96 3 -114 18 -128
10 -10 26 -17 34 -17 9 0 21 -7 28 -15 7 -8 17 -15 22 -15 10 0 70 -40 80 -55
4 -5 14 -3 25 6 10 9 25 19 33 23 8 3 29 15 45 26 17 11 39 24 50 29 39 17 43
33 42 142 -2 113 -9 132 -52 143 -14 4 -25 11 -25 16 0 6 -9 10 -20 10 -10 0
-23 6 -27 13 -6 10 -58 39 -66 36 -1 0 -11 -6 -22 -12z m107 -110 c34 -26 44
-41 49 -72 13 -76 -53 -155 -128 -155 -95 0 -160 98 -119 178 9 17 26 37 38
43 13 7 29 18 36 26 24 24 77 15 124 -20z"/>
<path d="M6175 3789 c-16 -10 -39 -23 -50 -29 -11 -6 -38 -21 -59 -34 l-39
-23 0 -111 c0 -114 9 -142 47 -142 8 0 18 -5 21 -11 4 -5 17 -15 28 -20 30
-14 62 -33 80 -47 11 -10 17 -9 27 3 7 8 19 15 26 15 8 0 14 4 14 10 0 5 11
12 25 16 14 3 25 10 25 14 0 5 10 12 23 16 51 15 57 30 57 144 0 91 -3 109
-18 123 -10 10 -26 17 -35 17 -9 0 -19 5 -22 11 -4 5 -17 15 -28 20 -12 5 -35
18 -52 28 -16 11 -32 20 -35 20 -3 0 -18 -9 -35 -20z m86 -83 c33 -14 75 -59
80 -87 2 -8 -1 -33 -5 -56 -10 -56 -64 -103 -116 -103 -20 0 -41 5 -48 12 -7
7 -27 17 -44 23 -23 7 -33 16 -33 30 0 11 -4 26 -9 33 -12 20 2 97 22 115 21
19 81 46 103 47 9 0 32 -6 50 -14z"/>
<path d="M3105 3789 c-11 -5 -33 -18 -50 -29 -16 -10 -48 -28 -70 -40 l-40
-21 0 -107 c0 -95 2 -109 20 -124 11 -10 28 -17 38 -18 10 0 20 -7 23 -15 4
-8 14 -15 24 -15 11 0 22 -5 25 -10 3 -6 20 -17 37 -26 26 -14 34 -14 57 -2
14 7 30 19 34 25 4 7 17 13 27 13 11 0 20 4 20 9 0 5 10 13 23 17 12 4 32 14
44 23 21 15 22 24 23 119 0 96 -2 105 -22 123 -13 10 -31 18 -41 19 -10 0 -20
7 -23 15 -4 8 -13 15 -21 15 -8 0 -26 9 -40 20 -28 21 -56 24 -88 9z m101 -95
c53 -31 64 -49 64 -104 0 -47 -28 -91 -77 -121 -31 -20 -33 -20 -84 -2 -42 14
-58 27 -81 63 -17 26 -26 51 -22 60 4 8 9 27 11 42 5 28 53 72 88 81 40 10 57
6 101 -19z"/>
<path d="M3433 3736 l-42 -31 -1 -111 c0 -95 3 -113 18 -127 10 -10 26 -17 34
-17 9 0 21 -7 28 -15 7 -8 18 -15 24 -15 6 0 26 -13 45 -29 33 -27 35 -28 65
-12 17 9 33 19 36 22 7 9 96 49 108 49 8 0 22 22 22 35 0 2 -19 15 -42 29 -49
29 -213 194 -222 224 -11 32 -28 32 -73 -2z m67 -177 c0 -16 5 -20 20 -16 27
7 62 -59 39 -73 -8 -6 -20 -4 -30 6 -8 7 -19 14 -24 14 -9 0 -55 48 -55 59 0
12 23 31 37 31 7 0 13 -10 13 -21z"/>
<path d="M5448 3698 c-55 -70 -170 -179 -221 -211 -46 -28 -47 -30 -31 -48 9
-11 22 -19 28 -19 6 0 33 -12 59 -26 43 -23 51 -24 78 -12 16 7 29 16 29 19 0
4 12 12 28 18 15 6 41 20 57 31 17 11 36 23 43 26 15 8 18 234 2 234 -5 0 -10
7 -10 15 0 28 -28 15 -62 -27z"/>
<path d="M80 3626 c0 -50 12 -77 28 -62 3 4 6 30 7 59 0 41 -3 52 -17 55 -15
3 -18 -4 -18 -52z"/>
<path d="M8865 3606 c-8 -43 3 -98 18 -93 16 5 16 119 0 124 -7 3 -15 -10 -18
-31z"/>
<path d="M117 3524 c-11 -12 -8 -92 4 -100 26 -16 40 58 16 90 -7 9 -16 14
-20 10z"/>
<path d="M8840 3475 c-13 -33 -13 -51 1 -76 16 -31 29 -12 29 41 0 56 -15 74
-30 35z"/>
<path d="M3770 3427 c0 -8 -10 -19 -22 -26 -13 -6 -36 -20 -53 -31 -16 -11
-37 -23 -45 -26 -46 -21 -50 -33 -50 -143 l0 -106 48 -23 c26 -12 61 -31 77
-42 71 -47 79 -47 150 0 17 11 39 24 50 30 75 40 70 30 76 147 5 112 2 128
-36 144 -11 5 -33 18 -50 29 -16 11 -40 24 -52 29 -11 5 -24 15 -28 20 -9 16
-65 14 -65 -2z m86 -134 c59 -37 80 -82 65 -135 -8 -25 -20 -42 -36 -48 -12
-5 -26 -14 -30 -19 -3 -6 -28 -11 -54 -11 -76 0 -131 56 -131 135 0 96 95 135
186 78z"/>
<path d="M2455 3419 c-4 -5 -17 -15 -28 -20 -12 -5 -35 -18 -52 -28 -16 -11
-40 -20 -51 -20 -12 -1 -27 -8 -34 -16 -7 -8 -19 -15 -26 -15 -17 0 -18 -32
-3 -47 7 -7 14 -48 18 -93 l6 -82 50 -29 c28 -16 59 -33 70 -39 11 -6 31 -17
45 -26 28 -16 71 -10 83 12 4 8 14 14 21 14 8 0 19 7 26 15 7 8 21 15 31 15
11 0 19 4 19 10 0 5 11 12 25 16 25 6 25 7 25 116 0 111 -8 138 -42 138 -8 0
-19 5 -25 11 -12 12 -46 33 -80 48 -11 5 -24 15 -28 20 -3 6 -15 11 -25 11
-10 0 -22 -5 -25 -11z m108 -107 c38 -34 59 -81 52 -118 -11 -60 -24 -78 -68
-97 -56 -23 -84 -21 -132 6 -33 19 -42 30 -49 65 -19 88 57 178 139 165 22 -3
48 -13 58 -21z"/>
<path d="M2896 3415 c-3 -8 -15 -15 -26 -15 -11 0 -20 -4 -20 -9 0 -5 -26 -22
-57 -38 l-58 -29 -3 -117 c-1 -64 1 -117 6 -117 10 0 49 -29 70 -52 9 -10 23
-18 31 -18 15 0 190 180 205 212 9 19 25 19 71 2 13 -5 15 -2 10 22 -14 62
-26 79 -73 102 -63 31 -92 48 -105 61 -16 16 -44 14 -51 -4z m48 -81 c23 -9
20 -32 -11 -73 -42 -55 -75 -80 -105 -81 -27 0 -28 2 -28 48 0 52 11 68 65 96
32 17 54 20 79 10z"/>
<path d="M3330 3415 c-7 -8 -18 -15 -25 -15 -7 0 -15 -7 -19 -15 -3 -8 -14
-15 -24 -15 -11 0 -25 -7 -32 -15 -7 -8 -21 -15 -30 -15 -20 0 -24 -15 -35
-111 l-6 -56 60 -55 c34 -30 61 -62 61 -70 0 -42 76 -70 118 -42 38 26 54 36
106 63 l47 25 -3 115 -3 114 -30 19 c-16 10 -39 22 -50 28 -42 23 -67 38 -78
49 -16 16 -42 14 -57 -4z m91 -97 c46 -24 69 -65 69 -123 0 -50 -44 -95 -93
-95 -30 0 -42 8 -80 51 -87 99 -67 179 45 188 10 0 36 -9 59 -21z"/>
<path d="M5500 3400 c-19 -16 -43 -30 -52 -30 -10 0 -18 -4 -18 -9 0 -5 -13
-14 -30 -20 -16 -5 -30 -17 -30 -25 -3 -112 0 -220 7 -226 12 -12 74 -48 103
-61 13 -5 28 -15 32 -22 9 -14 77 -14 86 0 4 6 20 15 35 18 28 7 38 40 17 61
-7 7 8 28 50 67 l60 56 -7 48 c-7 60 -19 83 -41 83 -10 0 -23 5 -29 11 -12 12
-46 33 -80 48 -11 5 -24 15 -28 20 -11 19 -39 12 -75 -19z m120 -85 c25 -23
26 -75 1 -106 -10 -13 -25 -37 -34 -54 -8 -16 -25 -40 -36 -52 l-21 -23 -39
21 c-51 26 -57 35 -65 91 -9 57 10 100 57 129 38 24 107 21 137 -6z"/>
<path d="M5970 3420 c0 -5 -11 -12 -25 -16 -14 -3 -25 -9 -25 -13 0 -3 -24
-17 -52 -31 -57 -27 -87 -55 -88 -82 0 -23 16 -23 47 2 l26 20 121 -125 c75
-77 130 -125 142 -125 10 0 31 12 47 25 26 23 27 27 27 128 0 108 -5 121 -50
141 -8 3 -28 15 -45 26 -16 11 -40 24 -52 29 -11 5 -24 15 -28 20 -8 14 -45
14 -45 1z m95 -114 c45 -24 62 -70 29 -83 -16 -6 -94 66 -94 87 0 14 33 12 65
-4z"/>
<path d="M6410 3420 c0 -5 -11 -12 -24 -16 -14 -3 -27 -12 -30 -20 -3 -8 -14
-14 -24 -14 -10 0 -23 -5 -29 -11 -6 -6 -22 -17 -35 -23 -22 -11 -23 -17 -26
-127 l-3 -115 43 -23 c24 -12 57 -31 73 -41 62 -40 74 -44 98 -31 45 24 69 39
80 50 6 6 19 11 29 11 10 0 18 4 18 9 0 5 8 12 18 15 17 6 19 19 19 114 1 125
-2 142 -26 142 -10 0 -24 6 -30 14 -7 8 -23 17 -36 20 -14 4 -25 11 -25 16 0
6 -6 10 -14 10 -7 0 -19 7 -26 15 -14 17 -50 20 -50 5z m74 -95 c71 -30 97
-119 55 -189 -33 -57 -110 -72 -173 -35 -47 27 -66 60 -66 112 0 46 29 97 55
97 7 0 18 7 25 15 16 19 58 19 104 0z"/>
<path d="M5099 3403 c-28 -21 -75 -44 -142 -70 l-49 -18 6 -44 c3 -24 6 -74 6
-111 0 -55 3 -69 18 -74 23 -9 61 -31 75 -45 6 -6 19 -11 29 -11 10 0 21 -6
24 -14 10 -26 55 -29 85 -7 16 12 32 21 37 21 5 0 15 7 22 15 7 8 20 15 29 15
9 1 26 9 39 19 20 18 22 28 22 124 0 115 -4 137 -27 137 -8 0 -38 18 -65 40
-56 44 -74 48 -109 23z m119 -119 c18 -12 22 -23 22 -70 0 -76 -33 -120 -97
-130 -70 -10 -117 10 -145 62 l-23 44 33 32 c74 75 151 98 210 62z"/>
<path d="M140 3340 c0 -46 25 -57 36 -15 8 32 -1 55 -21 55 -11 0 -15 -11 -15
-40z"/>
<path d="M8812 3348 c-16 -16 -15 -50 1 -73 17 -22 28 -9 29 36 1 36 -13 54
-30 37z"/>
<path d="M4047 3208 c5 -98 9 -115 27 -130 12 -9 29 -17 39 -18 10 0 20 -7 23
-15 4 -8 13 -15 20 -15 8 0 27 -9 43 -21 30 -22 75 -19 85 7 3 8 14 14 24 14
11 0 25 7 32 15 7 8 17 15 22 15 6 0 22 9 36 19 25 18 27 24 27 97 l0 79 -90
6 c-98 7 -211 31 -228 48 -6 6 -23 11 -38 11 l-28 0 6 -112z m177 -40 c57 5
102 -53 59 -77 -24 -12 -79 -9 -95 7 -6 6 -18 12 -25 12 -8 0 -16 7 -20 15 -7
19 25 57 41 48 6 -4 24 -6 40 -5z"/>
<path d="M4813 3289 c-23 -4 -50 -12 -60 -17 -10 -5 -78 -13 -152 -17 l-133
-7 7 -42 c4 -22 9 -57 12 -75 6 -37 37 -70 64 -71 9 0 22 -7 29 -15 7 -8 18
-15 26 -15 7 0 17 -8 23 -17 6 -11 22 -17 46 -17 24 0 40 6 46 17 6 9 18 17
27 17 10 0 23 5 29 11 14 14 52 36 76 45 14 5 17 20 19 85 1 44 2 89 2 101 1
26 -7 28 -61 17z m-53 -134 c0 -21 -38 -57 -70 -66 -33 -10 -41 -9 -64 7 -14
11 -26 22 -26 25 0 14 69 38 113 38 26 1 47 -1 47 -4z"/>
<path d="M172 3238 c3 -45 22 -62 33 -28 10 30 -2 70 -21 70 -12 0 -14 -10
-12 -42z"/>
<path d="M2217 3273 c-4 -3 -7 -14 -7 -24 0 -20 -17 -63 -61 -153 -22 -45 -26
-63 -18 -73 10 -11 15 -9 33 9 11 13 33 32 47 43 25 18 27 28 34 113 5 76 4
92 -8 92 -7 0 -17 -3 -20 -7z"/>
<path d="M8780 3235 c-16 -19 -9 -59 13 -63 13 -3 17 4 17 32 0 40 -12 53 -30
31z"/>
<path d="M200 3136 c0 -42 15 -54 30 -26 13 25 4 60 -16 60 -9 0 -14 -11 -14
-34z"/>
<path d="M8744 3126 c-8 -33 1 -56 21 -56 13 0 15 9 13 37 -4 43 -25 55 -34
19z"/>
<path d="M234 3066 c-8 -21 -1 -59 13 -63 6 -2 14 5 18 16 12 40 -17 84 -31
47z"/>
<path d="M2227 3036 c-8 -9 -20 -16 -25 -16 -5 0 -30 -9 -55 -20 -60 -27 -90
-81 -90 -165 -1 -91 10 -135 33 -135 10 0 25 -7 34 -15 8 -8 21 -15 29 -15 8
0 20 -7 27 -15 7 -8 19 -15 27 -15 7 0 16 -7 19 -15 4 -8 18 -15 34 -15 15 0
33 7 40 15 7 8 18 15 25 15 7 0 18 7 25 15 7 8 21 15 31 15 11 0 19 4 19 9 0
5 11 12 24 15 30 7 32 18 28 146 l-3 105 -50 23 c-27 12 -49 27 -49 32 0 6 -9
10 -20 10 -10 0 -23 6 -27 14 -13 23 -58 30 -76 12z m126 -113 c28 -26 46 -73
40 -108 -7 -41 -69 -103 -115 -116 -64 -17 -118 29 -118 101 0 31 52 120 78
135 33 18 87 13 115 -12z"/>
<path d="M2669 3033 c-32 -24 -55 -38 -105 -64 l-41 -21 -7 -97 c-8 -133 -8
-161 5 -161 16 0 284 280 287 301 2 11 -2 19 -10 19 -7 0 -30 9 -51 20 -45 24
-48 24 -78 3z"/>
<path d="M3548 3032 c-34 -25 -60 -41 -85 -51 -11 -6 -24 -15 -28 -20 -3 -6
-15 -11 -26 -11 -18 0 -19 -8 -19 -125 0 -116 1 -125 19 -125 10 0 24 -7 31
-15 7 -8 21 -15 32 -15 10 0 21 -7 24 -15 4 -8 12 -15 19 -15 7 0 18 -7 25
-15 7 -8 25 -15 40 -15 15 0 33 7 40 15 7 8 18 15 25 15 7 0 15 7 19 15 3 8
14 15 24 15 11 0 25 7 32 15 7 8 19 15 26 15 11 0 14 23 16 105 1 58 2 112 2
121 1 13 -61 57 -114 80 -8 4 -22 12 -30 19 -28 22 -49 24 -72 7z m108 -104
c18 -12 38 -33 43 -46 17 -36 13 -94 -8 -126 -24 -36 -91 -67 -123 -57 -88 29
-102 43 -114 120 -8 50 11 85 62 116 47 29 91 26 140 -7z"/>
<path d="M3999 3035 c-13 -8 -33 -19 -44 -25 -11 -6 -42 -23 -69 -39 l-50 -29
-1 -117 c-1 -109 1 -118 20 -126 11 -5 34 -18 50 -29 17 -11 40 -24 52 -29 11
-5 24 -15 28 -20 7 -12 62 -15 67 -3 6 13 67 52 83 52 8 0 15 4 15 9 0 5 14
14 30 20 l30 10 0 120 c0 113 -1 121 -19 121 -11 0 -23 5 -26 11 -4 5 -17 15
-28 20 -12 5 -35 18 -52 29 -16 11 -37 24 -46 29 -10 7 -23 5 -40 -4z m86
-102 c45 -23 65 -53 65 -100 0 -58 -31 -106 -80 -126 -95 -37 -180 23 -180
128 0 50 9 65 59 96 49 32 75 32 136 2z"/>
<path d="M4880 3042 c-8 -3 -21 -11 -28 -19 -7 -7 -20 -13 -28 -13 -8 0 -14
-4 -14 -9 0 -5 -12 -14 -27 -21 -77 -32 -73 -23 -73 -155 l0 -120 48 -23 c81
-40 102 -53 102 -63 0 -5 16 -9 35 -9 19 0 35 5 35 10 0 6 10 15 23 21 33 15
67 35 80 48 6 6 19 11 29 11 16 0 18 11 18 124 0 124 0 124 -25 130 -14 4 -25
11 -25 16 0 6 -9 10 -20 10 -11 0 -23 7 -26 15 -4 8 -14 15 -25 15 -10 0 -22
6 -26 13 -10 17 -34 26 -53 19z m64 -101 c63 -28 80 -57 71 -126 -6 -48 -11
-59 -48 -90 -35 -31 -45 -34 -76 -29 -84 15 -121 57 -121 137 0 52 27 92 74
113 41 18 47 17 100 -5z"/>
<path d="M6159 3031 l-24 -19 123 -122 c67 -67 122 -126 122 -131 0 -5 7 -9
16 -9 15 0 16 10 10 77 -3 42 -6 87 -6 100 0 13 -6 23 -14 23 -8 0 -21 6 -28
14 -8 7 -24 17 -36 20 -12 4 -22 12 -22 17 0 5 -5 9 -11 9 -6 0 -22 9 -36 20
-32 25 -64 25 -94 1z"/>
<path d="M8715 3030 c-3 -11 -3 -29 0 -40 4 -14 2 -20 -9 -20 -17 0 -32 -42
-21 -59 15 -25 35 -11 35 24 0 22 6 38 15 41 20 8 21 74 1 74 -8 0 -18 -9 -21
-20z"/>
<path d="M4416 3025 c-3 -8 -12 -15 -19 -15 -8 0 -20 -7 -27 -15 -7 -8 -21
-15 -31 -15 -11 0 -19 -4 -19 -9 0 -5 -13 -14 -30 -20 l-30 -10 0 -105 c0
-117 4 -136 30 -136 11 0 22 -5 25 -11 4 -5 17 -15 28 -20 34 -15 68 -36 80
-48 14 -14 50 -14 64 0 13 13 32 24 100 59 26 13 50 25 51 26 6 4 9 217 4 232
-2 6 -10 12 -17 12 -7 0 -18 7 -25 15 -7 8 -21 15 -32 15 -10 0 -21 6 -24 14
-3 8 -16 17 -30 20 -13 4 -24 11 -24 16 0 16 -67 12 -74 -5z m125 -103 c57
-51 50 -169 -12 -204 -86 -49 -198 10 -205 107 -2 39 2 51 27 80 30 34 49 41
121 44 28 1 45 -6 69 -27z"/>
<path d="M5295 3029 c-4 -5 -17 -15 -28 -20 -12 -5 -35 -18 -52 -29 -16 -11
-40 -24 -52 -29 -20 -9 -22 -18 -25 -108 -3 -99 5 -143 27 -143 7 0 18 -7 25
-15 7 -8 21 -15 32 -15 10 0 21 -7 24 -15 4 -8 15 -15 25 -15 11 0 22 -7 25
-15 7 -17 55 -20 71 -4 11 11 36 26 78 49 11 6 34 18 50 28 l30 19 3 112 3
112 -31 10 c-16 6 -30 15 -30 20 0 5 -8 9 -19 9 -10 0 -24 7 -31 15 -7 8 -18
15 -25 15 -7 0 -18 7 -25 15 -14 17 -66 20 -75 4z m139 -122 c34 -33 35 -36
29 -88 -6 -61 -23 -85 -70 -105 -67 -29 -150 -8 -177 45 -9 16 -16 49 -16 72
0 35 6 48 39 80 25 25 48 39 64 39 14 0 29 4 32 10 8 14 54 -11 99 -53z"/>
<path d="M6613 3029 c-11 -11 -36 -26 -78 -49 -83 -44 -79 -37 -87 -151 -9
-118 -7 -126 24 -139 13 -6 30 -14 38 -19 54 -32 137 -67 150 -63 8 3 21 11
28 19 7 7 19 13 27 13 7 0 15 7 19 15 3 8 14 15 24 15 11 0 25 7 32 15 7 8 18
15 26 15 23 0 28 22 31 135 l3 110 -42 18 c-24 10 -50 23 -58 28 -8 5 -25 13
-37 18 -11 6 -24 15 -28 20 -8 14 -58 14 -72 0z m80 -85 c76 -26 104 -90 72
-167 -20 -49 -50 -67 -110 -67 -47 0 -52 2 -87 46 -66 82 -60 143 20 183 47
24 49 24 105 5z"/>
<path d="M5672 3000 c-7 -11 -19 -20 -27 -20 -8 0 -15 -4 -15 -10 0 -5 -11
-12 -25 -16 -25 -6 -25 -7 -25 -126 l0 -119 30 -10 c17 -6 30 -15 30 -20 0 -5
8 -9 19 -9 10 0 24 -7 31 -15 7 -8 19 -15 27 -15 7 0 16 -7 19 -15 7 -17 59
-21 69 -4 4 5 17 14 28 20 12 5 29 13 37 18 8 5 32 17 53 27 83 41 85 38 -69
193 -77 78 -146 141 -154 141 -8 0 -21 -9 -28 -20z m56 -145 c11 -14 25 -25
30 -25 11 0 72 -82 72 -96 0 -4 -8 -13 -17 -20 -30 -22 -77 -16 -120 15 -34
25 -42 37 -47 76 -8 53 3 75 39 75 13 0 32 -11 43 -25z"/>
<path d="M3103 2859 c-76 -77 -139 -146 -141 -152 -1 -7 12 -18 30 -25 18 -7
40 -18 48 -23 8 -5 27 -14 43 -20 15 -6 27 -15 27 -20 0 -13 54 -11 67 2 11
11 36 26 78 49 11 6 34 18 50 28 l30 19 3 110 3 111 -38 23 c-21 13 -43 27
-50 31 -7 5 -61 -42 -150 -133z m157 -67 c0 -15 -13 -37 -36 -58 -39 -38 -55
-42 -74 -19 -16 19 2 65 25 65 8 0 15 5 15 10 0 6 9 19 21 31 16 16 23 18 35
8 8 -6 14 -23 14 -37z"/>
<path d="M267 2973 c-13 -12 -7 -53 7 -53 20 0 29 16 21 40 -6 20 -17 25 -28
13z"/>
<path d="M290 2872 c0 -17 6 -32 15 -36 9 -3 15 -18 15 -34 0 -35 9 -45 27
-31 17 15 17 43 -1 59 -8 6 -16 23 -18 38 -2 16 -10 28 -20 30 -14 3 -18 -3
-18 -26z"/>
<path d="M8654 2865 c-4 -8 -4 -21 -1 -29 3 -7 -4 -21 -15 -30 -23 -20 -20
-49 5 -54 13 -3 17 3 17 26 0 17 6 32 15 36 21 8 20 66 0 66 -9 0 -18 -7 -21
-15z"/>
<path d="M2001 2797 c-5 -13 -23 -47 -40 -74 -17 -28 -31 -53 -31 -57 0 -16
41 -3 69 21 26 23 31 34 31 75 0 53 -15 71 -29 35z"/>
<path d="M357 2753 c-14 -13 -7 -63 8 -63 10 0 15 -10 15 -30 0 -23 4 -30 20
-30 26 0 27 34 1 56 -10 9 -17 24 -14 33 5 18 -19 45 -30 34z"/>
<path d="M8595 2720 c-3 -6 -3 -19 0 -30 4 -14 2 -20 -8 -20 -17 0 -30 -27
-21 -42 3 -5 -4 -16 -16 -25 -12 -8 -19 -21 -16 -29 3 -8 -3 -22 -14 -31 -11
-10 -20 -25 -20 -34 0 -9 -7 -22 -15 -29 -9 -7 -13 -21 -10 -31 4 -12 1 -21
-9 -25 -9 -3 -16 -16 -16 -29 0 -15 -7 -25 -21 -28 -17 -5 -20 -11 -15 -31 5
-19 2 -26 -9 -26 -8 0 -17 -11 -21 -25 -3 -14 -10 -25 -14 -25 -4 0 -11 -11
-14 -25 -4 -14 -11 -25 -16 -25 -6 0 -10 -11 -10 -25 0 -14 -6 -25 -13 -25 -7
0 -21 -17 -32 -37 -11 -21 -33 -56 -50 -79 -16 -23 -37 -51 -45 -63 -8 -13
-23 -32 -32 -43 -10 -12 -18 -25 -18 -30 0 -4 -12 -21 -26 -38 -27 -30 -54
-76 -54 -91 0 -16 20 -10 27 8 4 10 19 30 35 45 15 15 28 32 28 38 0 6 7 13
15 16 8 4 15 14 15 23 0 9 14 29 30 45 17 16 30 35 30 42 0 7 14 28 30 46 17
18 30 40 30 50 0 10 5 18 10 18 6 0 15 11 20 25 5 14 14 25 20 25 5 0 10 9 10
20 0 11 7 23 15 26 8 4 15 16 15 29 0 13 7 25 15 29 8 3 15 14 15 25 0 10 7
21 15 25 8 3 15 12 15 19 0 8 7 20 15 27 8 7 15 23 15 35 0 13 7 25 15 29 8 3
15 15 15 26 0 11 7 23 15 26 8 4 15 17 15 30 0 14 7 27 15 30 8 4 15 18 15 34
0 16 7 30 15 34 9 3 15 18 15 35 0 16 6 31 15 35 19 7 20 56 1 56 -8 0 -18 -5
-21 -10z"/>
<path d="M2458 2667 c-24 -18 -46 -33 -112 -76 l-60 -39 -3 -88 c-1 -49 -4
-97 -5 -108 -2 -10 5 -23 14 -29 14 -10 29 0 88 58 38 38 70 74 70 80 0 5 -16
20 -35 33 -43 27 -40 36 34 104 49 45 65 78 39 78 -7 0 -20 -6 -30 -13z"/>
<path d="M1995 2650 c-22 -11 -47 -17 -57 -14 -12 3 -18 0 -18 -10 0 -8 -8
-17 -18 -20 -21 -7 -72 -83 -72 -107 0 -10 -7 -19 -15 -21 -21 -4 -229 -213
-243 -243 -6 -14 -17 -25 -24 -25 -21 0 -301 -289 -295 -305 4 -8 19 -17 34
-21 15 -4 44 -15 65 -25 36 -18 36 -18 72 6 21 14 41 25 45 25 5 0 14 7 21 15
7 8 19 15 26 15 19 0 64 41 58 52 -4 6 -3 61 1 124 5 84 10 114 20 114 12 0
104 56 132 80 7 5 17 10 23 10 18 0 60 52 60 74 0 12 5 39 11 60 14 51 29 31
29 -40 0 -50 19 -84 47 -84 6 0 16 -7 23 -15 7 -8 21 -15 31 -15 11 0 19 -5
19 -10 0 -6 10 -15 23 -20 12 -6 30 -16 40 -22 12 -9 20 -10 25 -2 7 11 25 21
119 69 28 14 53 31 55 38 2 6 2 61 -1 121 l-6 108 -40 24 c-22 13 -47 27 -55
31 -8 4 -30 17 -49 30 -41 28 -38 28 -86 3z m132 -108 c12 -9 28 -34 37 -55
15 -36 14 -41 -3 -75 -39 -76 -79 -100 -148 -89 -45 8 -63 25 -72 68 -9 41 24
116 65 148 33 26 91 27 121 3z"/>
<path d="M2868 2614 c-29 -31 -74 -77 -100 -103 -45 -44 -48 -49 -48 -101 0
-61 19 -100 50 -100 10 0 22 -5 25 -11 4 -5 17 -15 28 -20 31 -14 62 -33 81
-48 13 -11 22 -8 61 18 25 17 52 31 59 31 8 0 16 7 20 15 3 8 14 15 25 15 31
0 36 17 37 135 1 116 -1 120 -51 146 -39 19 -61 34 -83 57 -12 12 -28 22 -36
22 -8 0 -38 -25 -68 -56z m162 -89 c6 -8 14 -41 17 -73 5 -57 4 -60 -30 -94
-37 -38 -101 -58 -120 -39 -6 6 -19 11 -29 11 -30 0 -54 79 -28 95 6 3 10 15
10 26 0 10 5 19 10 19 6 0 26 16 46 35 28 28 43 35 73 35 22 0 44 -6 51 -15z"/>
<path d="M5965 2658 c-11 -6 -24 -17 -28 -25 -4 -7 -14 -13 -21 -13 -8 0 -19
-7 -26 -15 -7 -8 -21 -15 -31 -15 -11 0 -19 -4 -19 -9 0 -5 -8 -12 -18 -15
-16 -5 -17 -18 -16 -113 2 -120 8 -143 34 -143 10 0 23 -7 30 -15 7 -8 18 -15
26 -15 7 0 19 -6 26 -12 16 -15 46 -35 67 -45 7 -3 16 0 21 6 7 13 37 32 77
50 11 5 24 15 28 20 3 6 14 11 24 11 35 0 48 31 55 132 l6 96 -47 42 c-27 23
-57 46 -68 52 -11 5 -31 15 -45 23 -30 18 -48 18 -75 3z m50 -109 c96 -45 126
-142 63 -200 -41 -37 -65 -43 -117 -29 -79 21 -127 128 -85 188 12 17 74 58
92 62 1 0 22 -9 47 -21z"/>
<path d="M3318 2641 c-14 -12 -31 -21 -36 -21 -5 0 -15 -7 -22 -15 -7 -8 -20
-15 -29 -15 -9 -1 -25 -8 -36 -18 -18 -15 -20 -28 -19 -124 2 -122 6 -138 32
-138 11 0 25 -7 32 -15 7 -8 17 -15 22 -15 9 0 62 -35 86 -57 10 -10 22 -6 60
20 26 18 54 36 62 40 8 4 29 15 45 25 l30 19 3 113 c3 109 2 115 -20 132 -13
10 -31 18 -41 18 -10 0 -20 7 -23 15 -4 8 -14 15 -25 15 -10 0 -22 7 -26 15
-15 26 -65 29 -95 6z m88 -78 c51 -21 84 -67 84 -116 0 -70 -94 -141 -164
-123 -14 3 -42 23 -62 43 -34 34 -36 39 -31 85 6 48 38 97 63 98 6 0 17 7 24
15 16 19 35 19 86 -2z"/>
<path d="M3770 2653 c-8 -3 -19 -12 -23 -19 -4 -8 -16 -14 -25 -14 -10 0 -23
-5 -29 -11 -14 -14 -52 -36 -75 -45 -16 -6 -18 -20 -18 -113 1 -111 6 -128 48
-150 47 -25 10 -43 -42 -20 -26 12 -34 10 -135 -46 -24 -14 -49 -25 -56 -25
-18 0 -48 -37 -40 -49 8 -15 28 -14 67 3 62 25 103 38 153 47 28 5 57 17 65
27 12 14 29 19 65 19 70 1 172 18 230 40 44 16 50 22 49 46 0 15 -1 69 -2 121
-2 91 -3 94 -27 100 -14 4 -25 11 -25 16 0 6 -8 10 -19 10 -10 0 -24 7 -31 15
-7 8 -18 15 -26 15 -7 0 -17 7 -21 15 -10 16 -60 27 -83 18z m80 -93 c48 -24
84 -72 75 -100 -13 -40 -70 -72 -138 -77 -78 -7 -104 5 -113 52 -12 64 15 102
91 132 41 16 41 16 85 -7z"/>
<path d="M4208 2653 c-10 -2 -18 -8 -18 -13 0 -4 -12 -13 -27 -19 -16 -6 -46
-22 -68 -35 l-40 -24 -7 -123 c-5 -74 -4 -127 2 -133 5 -5 42 -2 95 8 71 14
137 17 368 16 155 -2 300 -3 322 -4 45 -1 41 -19 37 147 l-2 83 -42 23 c-52
26 -75 40 -107 64 -35 25 -58 21 -126 -23 -16 -10 -45 -27 -63 -36 -43 -22
-46 -28 -43 -89 2 -51 -22 -135 -39 -135 -17 0 -23 24 -26 108 -3 69 -7 89
-23 104 -11 10 -27 18 -34 18 -8 0 -20 7 -27 15 -7 8 -17 15 -22 15 -5 0 -21
9 -35 20 -25 20 -40 22 -75 13z m105 -103 c35 -28 35 -81 -1 -98 -44 -20 -145
-15 -176 9 -31 24 -34 49 -7 49 11 0 23 9 26 21 13 41 114 54 158 19z m437 -7
c35 -23 41 -32 38 -58 -3 -29 -6 -30 -58 -36 -64 -7 -143 6 -161 27 -18 22 4
62 44 79 49 22 91 18 137 -12z"/>
<path d="M5070 2643 c-33 -23 -56 -37 -106 -64 l-41 -21 -6 -117 c-6 -136 -4
-141 82 -141 31 0 78 -7 105 -15 64 -19 130 -19 146 0 7 8 18 15 26 15 23 0
27 21 25 138 -2 125 -5 131 -63 153 -16 6 -28 15 -28 20 0 5 -5 9 -12 9 -6 0
-19 7 -28 15 -28 25 -72 29 -100 8z m119 -92 c30 -17 63 -89 50 -112 -21 -40
-97 -66 -114 -39 -3 6 -17 10 -29 10 -34 0 -93 27 -100 45 -12 31 6 75 38 93
58 32 99 33 155 3z"/>
<path d="M5508 2641 c-14 -12 -31 -21 -36 -21 -5 0 -15 -7 -22 -15 -7 -8 -20
-15 -30 -15 -39 0 -51 -32 -51 -141 -1 -57 0 -111 0 -119 1 -9 13 -21 29 -28
55 -26 72 -37 72 -49 0 -18 -35 -16 -50 2 -7 8 -20 15 -30 15 -10 0 -23 7 -30
15 -17 20 -40 18 -68 -5 -28 -23 -21 -40 17 -40 16 0 45 -7 64 -15 49 -20 107
-20 107 1 0 9 7 14 17 12 26 -5 26 -25 1 -32 -14 -5 -18 -9 -10 -13 7 -2 25 0
41 5 30 11 51 1 51 -24 0 -14 22 -24 53 -24 12 0 31 -7 41 -15 11 -8 28 -15
37 -15 10 0 30 -6 46 -14 15 -8 44 -21 63 -30 19 -8 61 -26 92 -40 31 -15 63
-26 71 -26 8 0 20 -7 27 -15 7 -8 35 -26 64 -40 28 -14 65 -34 81 -45 17 -11
40 -24 52 -29 11 -5 24 -15 28 -20 12 -20 38 -11 72 24 19 19 38 35 44 35 5 0
19 8 30 19 18 16 19 29 17 131 l-3 114 -60 32 c-33 18 -67 36 -75 40 -8 4 -23
14 -32 22 -16 13 -20 13 -36 -1 -10 -10 -24 -17 -31 -17 -6 0 -14 -7 -17 -15
-4 -8 -14 -15 -24 -15 -10 0 -23 -7 -30 -15 -7 -8 -21 -15 -31 -15 -25 0 -35
-25 -37 -90 -1 -30 -7 -59 -13 -65 -16 -15 -37 20 -44 74 -9 65 -12 70 -39 81
-13 5 -27 14 -31 19 -3 6 -12 11 -20 11 -8 0 -35 14 -60 31 -41 27 -48 29 -63
17 -30 -25 -123 -68 -148 -68 -30 0 -31 23 -1 38 29 15 61 35 67 43 3 3 19 12
35 20 l30 14 0 119 0 119 -34 18 c-19 10 -39 23 -45 29 -5 5 -18 10 -28 10 -9
0 -21 7 -25 15 -15 26 -65 29 -95 6z m117 -92 c71 -42 80 -135 17 -190 -32
-29 -40 -31 -85 -25 -104 12 -161 91 -121 166 35 65 123 88 189 49z m669 -384
c51 -47 64 -126 25 -157 -28 -23 -53 -23 -108 3 -102 48 -128 105 -70 153 42
36 115 37 153 1z"/>
<path d="M6838 2653 c-10 -2 -18 -9 -18 -13 0 -5 -24 -21 -52 -35 -86 -41 -85
-40 -86 -132 0 -44 -5 -90 -11 -102 -14 -26 4 -59 36 -67 12 -3 27 -12 34 -20
6 -8 20 -14 30 -14 11 0 19 -4 19 -8 0 -9 70 -42 88 -42 7 0 12 5 12 10 0 6
10 15 23 21 33 15 67 35 80 48 6 6 19 11 28 11 30 0 37 24 40 140 3 103 2 115
-14 118 -9 2 -17 8 -17 13 0 5 -9 9 -19 9 -11 0 -26 7 -35 15 -8 8 -21 15 -30
15 -8 0 -19 7 -23 15 -9 16 -57 26 -85 18z m70 -89 c45 -7 92 -71 92 -127 0
-33 -7 -46 -39 -79 -37 -36 -43 -39 -78 -32 -51 9 -65 17 -103 60 -29 34 -32
41 -26 83 10 77 60 108 154 95z"/>
<path d="M410 2590 c0 -11 7 -23 15 -26 9 -4 15 -19 15 -35 0 -19 5 -29 14
-29 8 0 16 -12 18 -27 2 -14 9 -28 15 -31 21 -6 27 27 9 47 -9 10 -16 25 -16
34 0 8 -6 22 -14 29 -8 8 -16 23 -18 34 -5 27 -38 31 -38 4z"/>
<path d="M6564 2572 c4 -12 -5 -26 -30 -46 l-36 -28 55 -54 c62 -61 94 -71 82
-26 -4 15 -9 53 -10 85 -2 43 -8 62 -21 72 -27 20 -47 19 -40 -3z"/>
<path d="M7106 2572 c-2 -4 -2 -60 1 -125 l6 -117 38 -17 c22 -9 39 -20 39
-25 0 -4 6 -8 13 -8 8 0 33 -13 55 -30 41 -29 72 -39 72 -21 0 5 15 12 34 15
63 12 55 31 -64 151 -60 60 -110 114 -110 118 0 4 -10 21 -22 37 -21 29 -51
39 -62 22z"/>
<path d="M6234 2413 c4 -42 9 -80 12 -84 2 -4 28 -20 57 -34 66 -34 91 -48
110 -63 12 -10 21 -9 48 5 19 10 36 21 39 24 3 3 17 9 33 13 16 4 27 13 27 23
0 14 -93 123 -113 131 -4 2 -21 -12 -39 -32 -17 -20 -36 -36 -42 -36 -6 0 -20
13 -31 29 -35 49 -84 101 -96 101 -9 0 -10 -21 -5 -77z"/>
<path d="M502 2408 c2 -12 10 -23 18 -23 22 0 19 39 -3 43 -15 3 -18 -1 -15
-20z"/>
<path d="M2635 2375 c-21 -25 -42 -45 -49 -45 -6 0 -20 14 -31 30 -11 16 -27
30 -35 30 -20 0 -120 -101 -120 -121 0 -18 75 -54 93 -45 7 4 35 20 62 36 28
17 61 35 75 41 42 17 60 40 60 75 0 49 -15 49 -55 -1z"/>
<path d="M537 2373 c-13 -12 -7 -43 8 -43 9 0 15 -9 15 -24 0 -13 7 -29 15
-36 8 -7 15 -19 15 -26 0 -17 26 -19 36 -2 4 6 -2 19 -14 29 -12 9 -22 27 -22
38 0 12 -4 21 -10 21 -5 0 -12 11 -16 25 -6 25 -15 31 -27 18z"/>
<path d="M2240 2290 c0 -6 -8 -14 -17 -17 -16 -6 -97 -57 -140 -88 -17 -12
-23 -26 -23 -54 0 -21 3 -41 7 -45 9 -8 203 184 203 201 0 7 -7 13 -15 13 -8
0 -15 -5 -15 -10z"/>
<path d="M1800 2275 c-7 -8 -19 -15 -26 -15 -8 0 -14 -4 -14 -8 0 -4 -27 -20
-60 -35 -33 -16 -60 -33 -61 -40 0 -7 -1 -59 0 -117 0 -97 2 -106 23 -122 13
-10 27 -18 31 -18 9 0 64 -38 89 -62 10 -10 24 -18 32 -18 8 0 61 46 117 102
l101 102 -6 50 c-3 28 -6 59 -6 68 0 10 -16 24 -40 34 -22 10 -40 21 -40 26 0
4 -7 8 -16 8 -9 0 -33 14 -54 30 -43 34 -52 36 -70 15z m91 -102 c43 -25 46
-54 14 -110 -37 -61 -71 -90 -119 -98 -34 -5 -43 -2 -65 20 -22 21 -26 33 -24
77 2 37 8 58 25 75 49 52 117 67 169 36z"/>
<path d="M2680 2275 c-7 -8 -18 -15 -25 -15 -7 0 -18 -7 -25 -15 -7 -8 -20
-15 -30 -15 -10 0 -20 -7 -24 -15 -3 -8 -14 -15 -25 -15 -11 0 -23 -5 -26 -11
-4 -6 -7 -60 -7 -120 0 -91 3 -113 17 -129 10 -11 27 -20 37 -20 10 0 21 -7
24 -15 4 -8 11 -15 18 -15 15 -1 66 -46 66 -60 0 -12 -24 -13 -48 -1 -9 5 -38
18 -64 30 -26 12 -50 26 -53 32 -10 15 -62 10 -69 -6 -3 -8 -14 -15 -25 -15
-10 0 -21 -7 -25 -15 -3 -8 -14 -15 -24 -15 -11 0 -25 -7 -32 -15 -7 -8 -19
-15 -26 -15 -17 0 -22 -23 -27 -139 -4 -82 -2 -96 14 -112 29 -29 24 -42 -13
-36 -31 4 -78 -9 -78 -22 0 -3 -31 -24 -69 -46 l-69 -39 -6 -60 c-8 -79 -8
-126 2 -126 13 0 262 255 262 268 0 7 8 15 18 19 9 3 72 60 139 125 68 65 129
118 136 118 7 0 26 13 43 28 29 28 178 122 193 122 4 0 18 11 30 24 17 18 21
30 15 48 -4 12 -10 63 -13 113 -5 81 -8 91 -29 101 -13 6 -29 17 -35 23 -6 6
-19 11 -29 11 -10 0 -21 7 -24 15 -4 8 -15 15 -25 15 -11 0 -22 7 -25 15 -4 8
-12 15 -19 15 -7 0 -18 -7 -25 -15z m65 -85 c75 -29 101 -122 48 -172 -61 -57
-131 -73 -179 -42 -81 54 -56 159 51 209 36 17 46 18 80 5z"/>
<path d="M3125 2279 c-4 -5 -17 -15 -28 -20 -34 -15 -68 -36 -80 -48 -6 -6
-17 -11 -24 -11 -7 0 -22 -9 -33 -20 -16 -16 -20 -34 -20 -82 0 -35 -4 -80 -9
-101 -5 -20 -6 -39 -2 -41 3 -2 35 11 71 29 36 19 72 37 80 40 8 4 31 13 50
22 94 41 165 69 196 78 12 3 24 14 27 25 5 20 -8 31 -78 64 -22 10 -47 22 -55
27 -8 5 -25 13 -37 19 -13 5 -23 14 -23 20 0 13 -27 13 -35 -1z"/>
<path d="M7073 2279 c-14 -14 -40 -29 -113 -65 -64 -32 -70 -38 -70 -79 0 -25
21 -52 118 -153 64 -67 121 -122 126 -122 4 0 25 14 46 30 21 17 42 30 46 30
5 1 18 8 29 18 18 15 20 28 19 124 -2 114 -5 124 -37 139 -12 5 -35 18 -52 29
-16 11 -40 24 -52 29 -11 5 -24 15 -28 20 -8 14 -18 14 -32 0z m112 -125 c42
-52 44 -133 5 -154 -23 -12 -75 6 -102 36 -9 11 -26 29 -37 41 -41 45 -45 63
-19 90 20 22 29 24 76 21 44 -4 58 -10 77 -34z"/>
<path d="M6568 2253 c-24 -27 -61 -53 -73 -53 -7 0 -19 -8 -28 -18 -14 -15
-17 -40 -17 -124 0 -92 2 -107 18 -112 23 -9 61 -31 75 -45 6 -6 19 -11 29
-11 9 0 21 -8 27 -17 13 -24 89 -24 102 0 6 9 19 17 29 17 10 0 22 5 25 10 4
6 29 20 56 32 75 33 70 49 -59 182 -60 61 -117 121 -128 134 -22 27 -34 28
-56 5z m45 -144 c10 -11 22 -19 27 -19 17 0 70 -84 70 -112 0 -59 -90 -59
-153 0 -41 39 -51 88 -26 128 22 36 49 36 82 3z"/>
<path d="M7394 2225 c-16 -14 -34 -30 -40 -35 -8 -6 -12 -48 -11 -122 0 -119
2 -124 52 -148 11 -6 34 -19 50 -30 68 -45 91 -49 128 -20 14 11 28 20 32 20
18 0 125 55 125 65 0 14 -282 295 -296 295 -6 0 -24 -11 -40 -25z m87 -177
c21 -17 39 -36 39 -41 0 -6 7 -18 14 -26 25 -28 5 -44 -39 -32 -70 19 -116 86
-83 119 18 18 25 15 69 -20z"/>
<path d="M2217 2096 c-135 -135 -144 -146 -128 -160 10 -9 25 -16 33 -16 9 0
21 -7 28 -15 7 -8 19 -15 27 -15 8 0 26 -9 40 -20 37 -29 60 -25 128 20 17 11
39 24 50 30 53 25 55 31 55 143 0 113 -4 137 -26 137 -8 0 -19 9 -26 20 -7 11
-18 20 -25 20 -7 0 -77 -65 -156 -144z m166 -32 c28 -10 24 -19 -46 -92 -33
-34 -97 -43 -97 -13 0 17 102 122 114 116 6 -3 19 -8 29 -11z"/>
<path d="M620 2201 c0 -10 7 -21 15 -25 8 -3 15 -13 15 -23 0 -19 44 -73 60
-73 16 0 11 40 -5 46 -8 4 -15 12 -15 19 0 8 -6 20 -13 27 -7 7 -16 21 -20 31
-9 23 -37 22 -37 -2z"/>
<path d="M6800 2200 c0 -5 9 -19 20 -30 36 -36 56 -19 23 20 -18 21 -43 27
-43 10z"/>
<path d="M717 2073 c-14 -13 -6 -34 23 -63 17 -16 30 -35 30 -42 0 -7 18 -33
40 -57 31 -34 43 -42 52 -33 12 12 6 21 -44 70 -10 9 -18 22 -18 28 0 7 -13
26 -30 44 -16 18 -30 38 -30 46 0 15 -12 19 -23 7z"/>
<path d="M6896 1962 c-3 -6 -1 -14 5 -17 15 -10 25 3 12 16 -7 7 -13 7 -17 1z"/>
<path d="M7690 1880 c-24 -22 -49 -40 -56 -40 -6 0 -17 -7 -24 -15 -7 -8 -21
-15 -31 -15 -18 0 -19 -9 -19 -123 l0 -123 46 -25 c67 -35 76 -41 108 -72 16
-15 32 -27 36 -27 20 0 102 79 195 189 11 13 28 31 38 40 9 8 16 20 16 26 -3
19 -214 214 -239 220 -20 5 -34 -2 -70 -35z m50 -105 c39 -20 70 -62 70 -96 0
-20 -11 -37 -42 -64 -37 -31 -48 -36 -78 -31 -47 8 -70 39 -70 101 0 41 5 54
28 76 32 31 52 35 92 14z"/>
<path d="M1938 1814 c-55 -56 -93 -103 -92 -115 0 -10 1 -44 2 -74 2 -47 5
-57 25 -65 12 -6 36 -19 52 -30 17 -11 37 -23 45 -26 8 -4 23 -14 32 -22 23
-19 69 -19 80 2 5 9 18 16 28 16 11 0 20 3 20 8 0 4 23 18 50 31 l50 24 0 123
c0 115 -1 124 -19 124 -10 0 -24 7 -31 15 -7 8 -17 15 -23 15 -5 0 -29 16 -53
35 -23 19 -49 35 -57 35 -9 0 -57 -43 -109 -96z m202 -51 c31 -26 32 -29 26
-86 -7 -72 -40 -111 -103 -122 -34 -5 -48 -2 -82 19 -63 40 -56 90 24 169 55
56 87 60 135 20z"/>
<path d="M6839 1892 c-13 -10 -31 -22 -39 -25 -8 -4 -28 -16 -45 -27 -16 -11
-38 -23 -47 -26 -10 -4 -18 -9 -19 -13 0 -3 -2 -42 -3 -86 -2 -44 -7 -93 -11
-109 l-8 -28 -20 32 c-15 23 -22 55 -25 112 -4 69 -7 81 -26 89 -11 5 -34 18
-51 29 -16 11 -40 24 -52 29 -11 5 -24 15 -28 20 -10 18 -47 12 -100 -14 -27
-13 -56 -25 -62 -25 -7 0 -13 -6 -13 -14 0 -8 6 -17 13 -20 60 -30 206 -138
255 -190 30 -31 58 -56 63 -56 5 0 19 -10 30 -21 17 -17 23 -19 30 -8 6 11 11
11 20 2 10 -10 9 -14 -4 -19 -9 -3 -17 -10 -17 -15 0 -14 162 -169 178 -169
10 0 12 8 7 33 -7 33 -41 68 -107 109 -44 27 -48 38 -13 38 14 0 25 -3 25 -8
0 -4 22 -18 50 -31 49 -23 50 -23 77 -5 41 27 65 42 90 53 11 5 24 15 28 20 3
6 14 11 24 11 16 0 19 14 25 113 l6 112 -34 30 c-19 17 -55 41 -80 53 -25 13
-48 27 -51 33 -10 15 -40 11 -66 -9z m65 -107 c52 -25 81 -72 80 -127 -1 -59
-21 -84 -76 -91 -29 -4 -52 0 -83 15 -48 23 -71 57 -81 114 -5 35 -2 44 24 72
35 37 82 43 136 17z"/>
<path d="M1575 1889 c-4 -5 -17 -15 -28 -20 -12 -5 -35 -18 -52 -29 -29 -19
-47 -28 -72 -36 -19 -5 -18 -244 0 -244 8 0 22 -9 32 -20 10 -11 26 -20 37
-20 18 0 298 272 298 290 0 6 -5 10 -12 10 -18 0 -88 33 -88 42 0 4 -8 8 -19
8 -10 0 -24 7 -31 15 -14 17 -56 20 -65 4z m28 -103 c7 -17 -39 -86 -57 -86
-8 0 -19 -7 -26 -15 -10 -12 -16 -13 -26 -4 -19 15 -18 48 1 55 10 4 13 13 10
24 -4 13 2 21 22 28 40 15 70 14 76 -2z"/>
<path d="M7270 1885 c-7 -8 -21 -15 -31 -15 -11 0 -19 -4 -19 -9 0 -5 -12 -11
-27 -13 -14 -2 -28 -8 -30 -13 -2 -6 32 -47 74 -91 43 -44 107 -111 142 -148
64 -67 65 -68 90 -53 25 15 26 19 26 119 0 135 -2 145 -31 152 -13 4 -24 11
-24 16 0 6 -9 10 -20 10 -11 0 -23 7 -26 15 -4 8 -15 15 -25 15 -11 0 -22 7
-25 15 -4 8 -18 15 -34 15 -15 0 -33 -7 -40 -15z"/>
<path d="M1148 1820 c-38 -38 -87 -85 -109 -104 l-40 -34 53 -58 c29 -32 79
-85 111 -118 31 -32 57 -60 57 -62 0 -10 106 -114 116 -114 7 0 19 10 25 22 7
12 34 46 61 74 l49 52 -27 21 c-36 28 -63 26 -129 -9 -59 -32 -85 -38 -85 -17
1 16 93 87 114 87 14 0 16 17 16 120 0 106 -2 121 -17 127 -31 11 -83 55 -83
69 0 34 -46 11 -112 -56z m146 -137 c-3 -27 -7 -49 -9 -50 -1 -2 -15 -6 -32
-9 -27 -5 -33 -2 -46 23 -12 21 -13 33 -4 48 15 28 27 35 65 35 l33 0 -7 -47z"/>
<path d="M860 1845 c0 -16 65 -85 80 -85 19 0 10 23 -20 52 -16 15 -30 33 -30
38 0 6 -7 10 -15 10 -8 0 -15 -7 -15 -15z"/>
<path d="M8035 1751 c-6 -11 9 -23 19 -14 9 9 7 23 -3 23 -6 0 -12 -4 -16 -9z"/>
<path d="M7106 1731 c-3 -5 -3 -44 1 -86 5 -65 9 -78 27 -86 23 -10 38 -19
108 -66 62 -43 132 -45 108 -4 -19 33 -239 251 -244 242z"/>
<path d="M1691 1572 c-55 -54 -101 -102 -101 -105 0 -10 48 -8 54 2 3 5 37 27
76 50 38 23 74 49 79 59 14 27 17 85 5 89 -6 2 -57 -41 -113 -95z"/>
<path d="M1793 1508 c-12 -7 -43 -24 -70 -38 -26 -14 -54 -31 -61 -37 -7 -7
-17 -13 -21 -13 -8 0 -5 -226 4 -240 3 -6 12 -10 20 -10 7 0 20 -6 27 -12 18
-17 48 -36 73 -47 12 -5 27 -16 34 -25 7 -9 22 -16 32 -16 24 0 25 -27 2 -33
-20 -4 -42 6 -162 77 -53 31 -86 45 -89 38 -2 -7 -10 -12 -18 -12 -31 0 -11
-32 48 -78 34 -26 82 -66 107 -89 25 -24 51 -43 57 -43 15 0 40 30 48 58 4 12
15 22 24 22 9 0 28 12 41 26 20 21 22 27 10 35 -8 5 -21 9 -29 9 -11 0 -11 3
3 11 14 8 22 8 30 0 17 -17 29 -13 23 7 -4 13 8 25 46 47 58 34 71 62 57 122
-5 21 -9 63 -9 94 0 52 -2 57 -25 63 -14 4 -25 11 -25 16 0 6 -8 10 -19 10
-10 0 -24 7 -31 15 -7 8 -18 15 -26 15 -7 0 -17 6 -21 14 -12 21 -55 28 -80
14z m94 -99 c51 -25 67 -50 59 -93 -8 -43 -28 -69 -81 -105 -40 -27 -48 -29
-81 -20 -55 16 -84 50 -84 99 0 55 23 96 68 119 48 26 66 26 119 0z"/>
<path d="M7050 1502 c-14 -10 -32 -22 -40 -25 -8 -4 -22 -11 -30 -16 -8 -5
-32 -17 -52 -27 -26 -13 -38 -25 -38 -40 0 -12 -3 -36 -6 -53 -6 -31 0 -39
129 -169 170 -171 207 -211 207 -223 0 -22 34 -5 88 44 31 29 68 60 81 69 29
20 22 44 -16 58 -16 6 -36 15 -45 20 -14 8 -29 3 -65 -19 -57 -34 -120 -58
-129 -48 -13 12 93 97 121 97 8 0 15 6 15 13 6 209 5 237 -12 243 -10 3 -18
10 -18 15 0 5 -8 9 -19 9 -10 0 -24 7 -31 15 -7 8 -17 15 -23 15 -6 0 -18 6
-26 14 -28 26 -65 29 -91 8z m125 -116 c40 -40 43 -46 40 -87 -2 -24 -4 -47
-4 -51 -1 -4 -9 -12 -20 -17 -27 -15 -76 2 -106 36 -14 15 -36 40 -50 56 -31
34 -31 54 -3 84 15 16 33 23 61 23 32 0 46 -7 82 -44z"/>
<path d="M7476 1511 c-4 -5 11 -27 32 -49 22 -22 57 -61 80 -87 40 -45 41 -48
25 -71 -8 -13 -23 -24 -33 -24 -10 0 -59 41 -108 91 l-90 91 -22 -22 c-21 -21
-22 -31 -21 -139 1 -97 4 -118 19 -128 9 -7 30 -24 45 -38 16 -15 32 -25 37
-23 10 4 205 183 234 217 12 12 31 34 44 48 32 35 28 47 -22 62 -24 7 -67 28
-96 47 -51 33 -112 46 -124 25z"/>
<path d="M1522 1400 c-12 -16 -47 -48 -77 -71 -30 -23 -55 -46 -55 -53 0 -12
103 -112 133 -127 14 -8 23 -7 36 5 15 14 18 35 18 146 1 115 -1 130 -16 130
-10 0 -27 -13 -39 -30z"/>
<path d="M1840 880 c-12 -7 -11 -10 5 -16 11 -4 32 -20 47 -36 15 -15 33 -28
41 -28 8 0 17 -7 21 -15 3 -8 11 -15 18 -15 7 0 26 -14 42 -30 16 -17 37 -30
47 -30 10 0 22 -6 26 -12 9 -15 37 -33 71 -48 12 -5 22 -14 22 -20 0 -5 9 -10
20 -10 11 0 20 5 20 10 0 16 -52 59 -71 60 -9 0 -19 7 -23 15 -3 8 -12 15 -20
15 -7 0 -16 6 -19 14 -4 9 -14 12 -26 9 -15 -4 -21 -1 -21 10 0 9 -9 19 -20
22 -11 3 -20 11 -20 16 0 5 -11 9 -25 9 -14 0 -25 6 -25 13 -1 10 -79 77 -91
77 -2 0 -11 -4 -19 -10z"/>
<path d="M7108 860 c-15 -17 -32 -30 -38 -30 -5 0 -10 -7 -10 -15 0 -8 7 -15
15 -15 16 0 85 65 85 80 0 19 -25 9 -52 -20z"/>
<path d="M7000 790 c-14 -11 -30 -24 -37 -30 -7 -5 -16 -10 -21 -10 -5 0 -17
-9 -26 -19 -10 -11 -33 -27 -53 -36 -19 -9 -37 -23 -40 -31 -3 -8 -16 -14 -29
-14 -13 0 -24 -4 -24 -9 0 -5 -8 -12 -17 -15 -37 -13 -74 -38 -80 -52 -3 -8
-13 -12 -23 -9 -9 3 -24 -3 -35 -15 -10 -11 -25 -20 -32 -20 -21 0 -10 -24 12
-29 10 -1 22 4 27 13 5 9 17 16 27 16 11 0 21 7 25 15 3 8 14 15 25 15 10 0
21 7 25 15 3 8 14 15 25 15 10 0 21 7 25 15 3 8 14 15 23 15 10 0 33 14 51 30
18 17 40 30 48 30 8 0 28 14 44 30 16 17 36 30 44 30 21 0 69 47 61 59 -9 15
-16 13 -45 -9z"/>
<path d="M2235 620 c-8 -13 3 -30 20 -30 7 0 15 -7 19 -15 3 -8 15 -15 26 -15
11 0 23 -7 26 -15 4 -8 17 -15 30 -15 14 0 27 -7 30 -15 7 -18 44 -20 44 -2 0
7 -21 24 -47 37 -27 14 -49 28 -51 33 -2 4 -13 7 -25 7 -12 0 -28 9 -35 20
-13 22 -27 26 -37 10z"/>
<path d="M2445 500 c-10 -16 4 -30 31 -30 15 0 24 -6 24 -15 0 -10 10 -15 29
-15 16 0 31 -6 35 -15 3 -8 15 -15 26 -15 29 0 22 34 -7 38 -12 2 -27 10 -33
18 -7 8 -20 14 -30 14 -10 0 -23 7 -30 15 -14 17 -36 20 -45 5z"/>
<path d="M6452 464 c-46 -24 -92 -44 -102 -44 -10 0 -25 -8 -32 -19 -7 -10
-24 -18 -38 -17 -16 1 -25 -4 -25 -14 0 -21 46 -26 57 -6 5 9 22 16 38 16 20
0 30 5 30 15 0 10 10 15 30 15 20 0 30 5 30 15 0 10 10 15 29 15 16 0 31 6 35
15 3 8 17 15 31 15 18 0 25 5 25 20 0 28 -14 25 -108 -26z"/>
<path d="M2637 413 c-17 -16 -5 -33 23 -33 20 0 30 -5 30 -15 0 -10 10 -15 34
-15 21 0 36 -6 40 -15 3 -8 17 -15 31 -15 20 0 26 4 23 18 -2 11 -12 17 -28
16 -14 -1 -31 7 -38 17 -7 11 -24 19 -37 19 -13 0 -25 4 -27 9 -4 12 -43 23
-51 14z"/>
<path d="M6180 345 c-7 -8 -23 -15 -35 -15 -24 0 -49 -22 -38 -33 12 -13 54
-7 59 8 4 8 18 15 33 15 33 0 42 7 34 26 -7 18 -37 18 -53 -1z"/>
<path d="M2835 321 c-11 -18 5 -31 36 -31 24 0 30 4 27 18 -4 19 -52 29 -63
13z"/>
<path d="M2927 293 c-4 -3 -7 -12 -7 -20 0 -16 46 -18 56 -2 11 19 -33 39 -49
22z"/>
<path d="M6021 287 c-14 -18 -4 -27 29 -27 33 0 43 9 29 27 -15 17 -43 17 -58
0z"/>
<path d="M3001 261 c-23 -15 -2 -31 39 -31 24 0 40 -5 44 -15 6 -18 61 -20 72
-4 10 17 -17 30 -48 23 -21 -4 -28 -2 -28 9 0 25 -50 36 -79 18z"/>
<path d="M5943 263 c-28 -11 -13 -33 22 -33 23 0 35 5 35 14 0 20 -30 31 -57
19z"/>
<path d="M5841 231 c-22 -14 -3 -31 34 -31 40 0 53 15 26 29 -24 13 -41 14
-60 2z"/>
<path d="M3192 197 c-16 -19 -5 -27 34 -27 29 0 53 14 42 26 -14 13 -65 14
-76 1z"/>
<path d="M5742 197 c-16 -19 -5 -27 35 -27 27 0 34 4 31 18 -4 21 -50 28 -66
9z"/>
<path d="M3303 173 c-7 -2 -13 -11 -13 -19 0 -10 13 -14 45 -14 32 0 45 4 45
14 0 19 -48 31 -77 19z"/>
<path d="M5631 167 c-15 -19 -4 -27 41 -27 26 0 38 4 38 14 0 26 -59 36 -79
13z"/>
<path d="M3423 144 c-7 -3 -13 -12 -13 -20 0 -10 14 -14 54 -14 51 0 78 11 58
24 -14 9 -86 16 -99 10z"/>
<path d="M5503 143 c-7 -2 -13 -11 -13 -19 0 -17 85 -20 96 -3 13 22 -46 38
-83 22z"/>
<path d="M3563 113 c-13 -2 -23 -11 -23 -19 0 -11 15 -14 60 -14 45 0 60 4 60
14 0 23 -37 31 -97 19z"/>
<path d="M5358 113 c-16 -2 -28 -11 -28 -19 0 -11 14 -14 59 -14 53 0 83 12
68 26 -7 8 -70 12 -99 7z"/>
<path d="M3727 83 c-39 -10 -9 -28 49 -28 46 0 59 3 59 15 0 11 -12 15 -45 17
-25 0 -53 -1 -63 -4z"/>
<path d="M5155 76 l-30 -12 34 -7 c49 -10 129 -8 136 2 17 28 -86 41 -140 17z"/>
<path d="M3963 52 c-29 -2 -43 -8 -43 -18 0 -11 22 -14 119 -14 70 0 122 4
126 10 3 6 0 12 -7 14 -21 7 -149 12 -195 8z"/>
<path d="M4892 51 c-34 -3 -63 -10 -65 -16 -3 -14 240 -19 248 -4 4 5 5 12 4
13 -9 8 -130 12 -187 7z"/>
<path d="M4398 3 c46 -2 118 -2 160 0 42 1 5 3 -83 3 -88 0 -123 -2 -77 -3z"/>
</g>
</svg>
