<?xml version="1.0" standalone="no"?>
<!DOCTYPE svg PUBLIC "-//W3C//DTD SVG 20010904//EN"
 "http://www.w3.org/TR/2001/REC-SVG-20010904/DTD/svg10.dtd">
<svg version="1.0" xmlns="http://www.w3.org/2000/svg"
 width="900.000000pt" height="900.000000pt" viewBox="0 0 900.000000 900.000000"
 preserveAspectRatio="xMidYMid meet">
<metadata>
Created by potrace 1.10, written by Peter Selinger 2001-2011
</metadata>
<g transform="translate(0.000000,900.000000) scale(0.100000,-0.100000)"
fill="#000000" stroke="none">
<path d="M4170 8985 c0 -8 2 -15 4 -15 2 0 11 -3 20 -6 12 -4 16 0 16 15 0 14
-6 21 -20 21 -11 0 -20 -7 -20 -15z"/>
<path d="M4770 8980 c0 -22 1 -23 24 -14 23 9 20 34 -4 34 -13 0 -20 -7 -20
-20z"/>
<path d="M3809 8941 c-9 -6 -50 -12 -91 -14 -48 -3 -84 -11 -101 -21 -18 -12
-35 -15 -61 -10 -26 4 -43 2 -61 -10 -13 -9 -43 -16 -66 -16 -24 0 -50 -7 -59
-15 -9 -8 -36 -17 -59 -19 -24 -2 -48 -9 -54 -15 -6 -6 -27 -11 -47 -11 -19 0
-47 -8 -60 -17 -14 -10 -33 -16 -43 -15 -10 2 -30 -5 -45 -14 -15 -10 -35 -17
-45 -15 -10 1 -30 -6 -45 -15 -15 -10 -34 -17 -43 -16 -9 2 -22 -4 -29 -13 -7
-8 -25 -15 -40 -15 -15 0 -33 -7 -40 -15 -7 -8 -23 -15 -35 -15 -12 0 -28 -6
-34 -14 -7 -8 -27 -17 -46 -20 -19 -4 -35 -11 -35 -16 0 -4 -13 -11 -29 -15
-16 -3 -35 -13 -42 -21 -6 -8 -20 -12 -30 -9 -10 3 -21 0 -26 -8 -9 -16 -69
-47 -90 -47 -7 0 -21 -9 -30 -20 -10 -11 -28 -20 -40 -20 -13 0 -23 -4 -23 -9
0 -5 -12 -14 -27 -20 -16 -6 -50 -25 -78 -41 -27 -17 -60 -35 -72 -40 -11 -5
-24 -13 -27 -18 -3 -6 -24 -20 -47 -31 -23 -12 -48 -28 -56 -36 -8 -8 -20 -15
-27 -15 -7 0 -28 -13 -46 -30 -18 -16 -39 -30 -46 -30 -7 0 -14 -3 -16 -8 -5
-11 -85 -72 -95 -72 -5 0 -24 -15 -43 -33 -19 -19 -48 -42 -65 -53 -37 -24
-62 -45 -134 -111 -31 -29 -59 -53 -63 -53 -23 0 -378 -356 -420 -422 -10 -15
-35 -45 -55 -66 -53 -55 -75 -82 -102 -124 -12 -21 -26 -38 -29 -38 -4 0 -26
-28 -49 -63 -23 -34 -51 -72 -62 -84 -12 -12 -21 -26 -21 -31 0 -5 -13 -24
-30 -42 -16 -18 -30 -39 -30 -46 0 -7 -6 -19 -14 -27 -8 -7 -23 -29 -33 -48
-10 -19 -31 -53 -46 -77 -15 -23 -37 -61 -48 -82 -12 -22 -25 -43 -30 -46 -5
-3 -9 -14 -9 -25 0 -11 -7 -22 -15 -25 -8 -4 -15 -17 -15 -30 0 -13 -9 -28
-20 -34 -11 -6 -20 -21 -20 -35 0 -13 -4 -27 -10 -30 -5 -3 -10 -14 -10 -23 0
-10 -9 -25 -20 -35 -12 -10 -18 -22 -14 -28 3 -6 -1 -18 -9 -27 -8 -9 -18 -28
-22 -42 -4 -13 -14 -30 -21 -38 -8 -7 -14 -24 -14 -36 0 -13 -7 -29 -15 -36
-9 -7 -15 -20 -13 -29 1 -9 -5 -27 -15 -41 -9 -13 -17 -34 -17 -46 0 -12 -7
-27 -15 -34 -9 -7 -13 -20 -10 -30 3 -9 -4 -27 -15 -41 -13 -13 -19 -32 -16
-43 3 -11 -4 -30 -15 -45 -13 -16 -18 -33 -15 -47 4 -14 0 -29 -10 -39 -9 -9
-19 -36 -22 -61 -2 -24 -9 -47 -13 -50 -5 -3 -9 -22 -9 -43 0 -24 -8 -47 -21
-62 -15 -17 -19 -32 -15 -54 4 -18 0 -42 -10 -60 -9 -16 -16 -50 -16 -75 0
-25 -7 -56 -15 -70 -11 -15 -16 -46 -16 -84 1 -34 -5 -77 -13 -96 -9 -21 -13
-59 -11 -93 4 -67 22 -96 32 -51 3 16 10 45 15 64 5 19 15 76 21 125 6 50 19
113 29 140 9 28 23 86 29 130 7 44 23 103 36 130 12 28 26 73 30 100 4 28 20
80 35 117 16 38 32 85 36 105 3 21 15 52 24 68 10 17 28 59 40 95 12 36 26 70
31 76 5 6 18 37 29 68 10 31 26 66 34 78 9 12 16 29 16 38 0 8 8 31 19 50 10
19 22 46 26 60 4 14 20 41 35 60 16 19 31 46 35 59 4 14 20 42 36 64 16 22 29
45 29 52 0 7 14 31 30 53 17 23 30 44 30 47 0 9 89 142 104 154 9 8 16 19 16
25 0 6 18 34 40 61 69 87 80 103 80 113 0 5 9 17 20 27 11 10 20 24 20 31 0 7
15 25 32 40 18 15 40 39 49 53 9 14 39 49 65 76 27 28 61 66 75 85 32 42 35
44 181 185 123 118 127 122 265 241 120 103 134 113 223 157 41 21 83 43 92
50 29 20 34 -4 5 -25 -15 -11 -27 -28 -27 -39 0 -29 40 -24 86 11 21 16 42 30
46 30 4 0 35 19 70 43 91 60 101 66 118 74 8 4 33 18 55 32 87 55 319 171 450
226 22 9 53 23 68 31 16 8 36 14 46 14 9 0 25 6 36 13 11 8 45 22 75 32 30 10
89 30 130 45 41 15 95 33 120 39 25 7 68 19 95 27 56 17 152 40 235 55 30 5
59 14 64 20 6 5 28 9 50 9 23 1 61 6 86 11 25 6 88 15 140 20 52 5 110 15 130
21 51 18 830 18 882 0 20 -7 76 -17 125 -22 112 -10 229 -28 270 -41 18 -6 54
-14 80 -19 129 -25 180 -37 206 -48 16 -7 38 -12 51 -12 12 0 26 -4 32 -10 5
-5 30 -14 54 -19 55 -11 265 -85 302 -106 14 -8 34 -15 43 -15 9 0 29 -6 43
-14 15 -7 38 -18 52 -24 156 -67 384 -181 465 -233 17 -10 39 -23 50 -28 11
-5 37 -21 58 -35 21 -14 40 -26 44 -26 3 0 22 -13 43 -30 21 -16 41 -30 45
-30 3 0 21 -11 39 -25 41 -31 96 -44 96 -23 0 8 -9 23 -20 33 -11 10 -20 24
-20 32 0 17 24 17 39 0 6 -8 30 -22 53 -33 94 -41 172 -101 437 -342 107 -97
240 -235 264 -273 11 -16 22 -29 26 -29 5 0 31 -28 60 -62 28 -35 64 -77 79
-95 15 -17 41 -50 57 -73 17 -22 47 -62 68 -87 21 -25 52 -69 68 -97 47 -81
137 -220 152 -236 8 -8 25 -36 37 -62 12 -26 28 -52 35 -58 8 -7 19 -28 26
-48 6 -20 19 -46 29 -57 10 -11 23 -38 30 -60 7 -22 21 -50 32 -61 11 -12 26
-43 34 -70 8 -26 21 -55 29 -64 19 -21 75 -154 85 -205 5 -22 18 -59 29 -81
11 -23 25 -63 31 -89 6 -26 17 -59 24 -74 7 -14 19 -51 25 -81 6 -30 25 -87
41 -127 17 -39 30 -87 30 -105 1 -31 17 -105 42 -188 5 -19 14 -64 18 -100 11
-98 22 -143 36 -165 8 -11 14 -38 14 -60 0 -69 16 -72 24 -4 9 90 8 133 -5
146 -6 6 -12 47 -14 91 -2 54 -8 88 -20 106 -12 19 -15 36 -11 61 5 27 2 44
-14 70 -16 26 -20 43 -15 66 5 22 2 36 -11 50 -9 10 -17 33 -16 51 0 18 -5 42
-12 53 -7 11 -15 39 -18 62 -4 23 -13 50 -22 58 -10 10 -14 25 -10 39 3 14 -2
30 -15 45 -13 15 -19 32 -15 45 3 14 -3 31 -16 46 -11 13 -18 31 -15 40 3 10
-1 23 -10 30 -8 7 -15 22 -15 34 0 12 -7 31 -15 42 -8 10 -15 29 -15 40 0 12
-7 27 -15 34 -8 7 -15 21 -15 32 0 11 -9 31 -20 45 -11 14 -20 34 -20 44 0 10
-4 21 -10 24 -5 3 -10 17 -10 30 0 14 -9 29 -21 35 -11 7 -18 18 -15 25 3 8
-1 21 -9 29 -8 8 -15 22 -15 30 0 9 -9 24 -20 33 -11 10 -20 22 -20 29 0 6
-11 31 -24 55 -14 24 -34 61 -45 81 -11 21 -33 57 -48 80 -15 24 -36 59 -46
78 -11 19 -26 39 -33 43 -8 4 -14 16 -14 26 0 9 -14 33 -30 51 -16 18 -30 38
-30 43 0 4 -17 29 -38 55 -21 26 -49 64 -63 84 -13 21 -27 38 -31 38 -3 0 -17
17 -29 38 -24 38 -50 70 -84 106 -11 12 -35 41 -54 66 -80 104 -298 323 -465
465 -13 11 -44 37 -68 57 -23 20 -54 46 -67 58 -13 11 -27 20 -31 20 -4 0 -29
20 -56 45 -27 24 -53 45 -58 45 -10 0 -89 61 -94 72 -2 5 -9 8 -16 8 -7 0 -28
14 -46 30 -18 17 -39 30 -45 30 -11 0 -24 10 -72 50 -7 5 -17 10 -22 10 -6 0
-32 15 -58 33 -55 37 -115 71 -155 88 -16 6 -28 15 -28 20 0 5 -11 9 -25 9
-14 0 -29 8 -35 20 -6 11 -20 20 -31 20 -11 0 -27 7 -35 15 -8 8 -21 12 -29 9
-7 -3 -18 4 -25 16 -7 14 -17 19 -29 15 -11 -3 -25 3 -36 15 -10 11 -27 20
-37 20 -11 0 -26 7 -34 15 -9 8 -26 15 -38 15 -13 0 -29 7 -37 16 -7 8 -21 13
-30 11 -10 -3 -26 4 -35 14 -9 10 -28 19 -41 19 -13 0 -31 4 -41 9 -9 4 -37
18 -62 31 -25 12 -52 21 -60 19 -8 -2 -27 5 -43 15 -15 10 -36 16 -47 13 -11
-3 -29 3 -41 14 -12 11 -37 19 -56 19 -18 0 -45 7 -58 16 -15 10 -34 14 -49
10 -15 -4 -31 1 -46 14 -15 13 -38 20 -65 20 -23 0 -56 7 -74 16 -20 10 -42
13 -61 9 -22 -5 -39 -1 -58 11 -17 11 -49 18 -92 19 -36 1 -76 7 -89 15 -35
18 -200 6 -268 -20 -31 -12 -78 -20 -115 -20 -35 -1 -203 -1 -375 -1 -295 -1
-314 0 -358 20 -55 24 -229 39 -256 22z"/>
<path d="M1902 7968 c-5 -7 -13 -23 -16 -35 -5 -15 -15 -23 -29 -23 -13 0 -30
-8 -38 -17 -9 -10 -46 -43 -84 -73 -181 -146 -237 -210 -185 -210 18 0 37 -7
80 -32 8 -4 25 -12 37 -17 11 -6 24 -15 28 -20 9 -16 61 -13 75 4 7 8 18 15
25 15 7 0 18 7 25 15 7 8 20 15 30 15 10 0 20 6 23 14 3 8 16 16 29 18 22 3
23 6 26 126 2 117 2 124 -18 129 -22 6 -28 33 -7 33 7 0 25 -5 39 -12 22 -11
26 -21 32 -72 3 -32 6 -92 6 -132 0 -66 2 -74 19 -74 10 0 24 -6 30 -14 7 -8
23 -17 36 -20 14 -4 25 -11 25 -16 0 -6 5 -10 11 -10 6 0 22 -9 36 -20 24 -19
59 -19 73 -1 3 4 24 13 48 21 23 7 42 19 42 26 0 21 -282 304 -303 304 -14 0
-17 5 -13 17 4 10 -3 26 -21 45 -29 31 -45 35 -61 16z m-52 -256 c0 -38 -53
-88 -102 -95 -59 -9 -57 6 10 75 38 38 50 46 70 47 18 1 22 -4 22 -27z"/>
<path d="M6941 7863 c-123 -128 -139 -149 -122 -166 6 -6 11 -23 11 -38 0 -23
8 -32 53 -54 79 -40 99 -52 107 -65 11 -17 57 -16 78 2 9 8 24 18 32 22 8 3
29 15 45 26 17 11 41 24 54 30 19 8 22 16 18 38 -2 15 -1 52 4 82 13 77 12 93
-6 106 -19 14 -100 82 -133 112 -14 12 -26 22 -27 22 -1 0 -52 -52 -114 -117z
m177 -93 c30 -41 28 -83 -6 -122 -26 -28 -34 -31 -78 -30 -94 4 -107 52 -36
136 47 57 86 62 120 16z"/>
<path d="M7250 7776 c0 -8 4 -17 9 -21 5 -3 12 -34 16 -68 7 -66 9 -69 78 -97
15 -7 27 -16 27 -21 0 -5 6 -9 13 -9 8 0 24 -9 37 -20 13 -11 33 -20 46 -20
21 0 54 23 54 38 0 4 -39 43 -87 87 -47 44 -101 95 -118 113 -33 33 -75 43
-75 18z"/>
<path d="M6700 7620 c-41 -44 -75 -88 -75 -97 0 -17 -38 -46 -77 -59 -10 -4
-18 -10 -18 -14 0 -4 -56 -65 -125 -136 -69 -71 -132 -136 -139 -144 -8 -8
-59 -60 -113 -114 -54 -55 -119 -122 -146 -150 -26 -28 -103 -106 -170 -173
l-122 -122 2 -58 c2 -50 7 -61 30 -80 16 -13 35 -23 44 -23 9 0 22 -7 29 -15
7 -8 17 -15 22 -15 5 0 22 -9 37 -21 32 -23 79 -20 102 7 6 8 17 14 24 14 7 0
18 7 25 15 7 8 21 15 31 15 11 0 19 4 19 9 0 5 8 12 18 15 15 5 17 19 16 120
-1 62 -4 118 -8 125 -4 6 -16 11 -27 11 -11 0 -22 7 -25 15 -4 8 -10 15 -16
15 -15 0 -77 53 -72 62 7 11 40 10 62 -1 9 -5 24 -12 32 -16 22 -9 56 -29 75
-45 10 -8 19 -10 23 -4 13 17 71 54 86 54 7 0 16 7 20 15 3 8 14 15 24 15 41
0 52 30 52 145 l0 108 -32 28 c-25 23 -28 30 -15 34 8 4 27 -1 41 -10 24 -16
27 -15 71 12 25 15 55 33 66 39 12 7 26 17 32 23 6 6 19 11 29 11 10 0 18 1
19 3 0 1 4 44 8 95 4 51 12 97 18 103 19 19 43 -43 43 -110 0 -71 6 -91 29
-91 9 0 22 -5 28 -11 13 -13 47 -33 81 -48 12 -6 22 -15 22 -21 0 -16 46 -12
60 5 7 8 19 15 27 15 7 0 16 7 19 15 4 8 14 15 23 15 9 0 22 5 28 11 6 6 22
17 35 23 22 11 23 17 26 127 l3 115 -47 25 c-58 31 -73 39 -109 65 -34 24 -53
21 -129 -20 -27 -14 -53 -26 -57 -26 -16 0 -9 21 9 27 9 3 33 19 53 35 20 15
42 28 48 28 11 0 41 58 41 80 0 28 -43 1 -110 -70z m181 -153 c38 -25 65 -91
55 -133 -4 -14 -21 -41 -39 -60 -58 -64 -154 -54 -203 20 -32 49 9 145 76 178
46 24 70 23 111 -5z m-611 -523 c0 -23 -55 -74 -79 -74 -31 0 -25 24 14 59 39
34 65 40 65 15z m-232 -294 c17 -26 21 -42 16 -69 -17 -103 -124 -148 -198
-84 -23 20 -24 25 -14 55 14 41 97 125 129 131 36 6 42 3 67 -33z"/>
<path d="M1398 7508 l-90 -92 6 -85 c8 -96 10 -101 35 -101 10 0 24 -7 31 -15
7 -8 21 -15 31 -15 10 0 22 -6 26 -12 4 -7 17 -19 28 -26 46 -28 45 -28 100 8
17 11 40 24 52 29 11 5 24 15 28 20 3 6 15 11 26 11 23 0 21 -11 23 130 2 124
0 130 -56 151 -16 6 -28 15 -28 20 0 5 -5 9 -10 9 -12 0 -73 41 -78 53 -10 20
-41 -1 -124 -85z m213 -67 c23 -24 29 -38 29 -73 0 -55 -17 -86 -60 -116 -49
-34 -113 -26 -152 17 -37 41 -35 67 8 121 68 86 124 102 175 51z"/>
<path d="M1920 7566 c-14 -9 -35 -20 -47 -25 -11 -5 -24 -15 -28 -20 -3 -6
-15 -11 -26 -11 -10 0 -19 -4 -19 -9 0 -5 -8 -12 -17 -15 -17 -6 -20 -53 -13
-243 0 -7 6 -13 14 -13 8 0 21 -6 28 -12 50 -47 56 -50 77 -38 12 6 21 17 21
25 0 7 9 17 21 20 15 5 28 -2 55 -32 29 -33 36 -36 47 -23 15 19 66 54 90 63
16 6 17 19 15 128 l-3 122 -40 21 c-22 11 -41 24 -43 28 -2 4 -12 8 -22 8 -11
0 -23 6 -27 14 -12 22 -55 28 -83 12z m124 -116 c28 -31 36 -48 36 -78 0 -66
-11 -72 -128 -74 -64 0 -107 3 -114 10 -6 6 -12 34 -12 61 -1 44 3 54 33 85
32 33 40 36 92 36 53 0 59 -2 93 -40z"/>
<path d="M7220 7573 c-8 -3 -19 -12 -23 -19 -4 -8 -17 -14 -27 -14 -11 0 -20
-4 -20 -9 0 -5 -12 -14 -27 -21 -78 -32 -74 -23 -71 -149 l3 -114 30 -19 c17
-10 37 -21 45 -25 8 -4 34 -20 56 -35 43 -29 78 -36 89 -17 4 5 17 15 28 20
12 5 36 18 52 29 17 11 40 24 52 29 33 15 36 27 38 142 1 105 1 108 -22 114
-13 3 -23 10 -23 15 0 6 -8 10 -19 10 -10 0 -24 7 -31 15 -7 8 -18 15 -26 15
-7 0 -17 7 -21 15 -10 16 -60 27 -83 18z m83 -97 c63 -26 91 -101 63 -165 -35
-75 -121 -94 -194 -41 -53 38 -65 62 -57 111 5 29 17 48 48 74 45 39 84 45
140 21z"/>
<path d="M2282 7538 c-25 -28 -41 -41 -65 -55 -16 -8 -19 -23 -19 -111 0 -101
11 -142 37 -142 7 0 20 -6 27 -12 18 -17 48 -36 75 -47 11 -6 24 -15 28 -20 9
-16 52 -13 59 4 3 8 14 15 25 15 10 0 21 7 25 15 3 8 14 15 25 15 11 0 22 4
26 9 3 5 19 12 35 16 34 7 55 38 43 60 -19 33 -268 275 -283 275 -9 0 -26 -10
-38 -22z m101 -197 c32 -33 57 -66 57 -74 0 -14 -40 -37 -64 -37 -6 0 -33 13
-58 29 -37 23 -48 37 -53 65 -10 51 1 76 34 76 21 0 42 -15 84 -59z"/>
<path d="M7515 7497 c-18 -20 -20 -32 -15 -142 5 -116 6 -120 28 -123 13 -2
26 -10 29 -18 3 -8 13 -14 23 -14 11 0 22 -5 25 -11 4 -5 17 -14 28 -20 12 -5
29 -14 38 -21 17 -12 26 -9 74 21 17 11 42 20 57 20 15 1 29 4 32 9 9 15 -25
69 -84 132 -33 36 -86 93 -117 128 -62 67 -86 75 -118 39z"/>
<path d="M1250 7362 c0 -5 -13 -21 -28 -38 -15 -16 -43 -49 -62 -74 -18 -25
-46 -57 -62 -72 -33 -32 -36 -48 -8 -48 11 0 20 5 20 10 0 6 11 15 25 20 14 5
25 14 25 20 0 5 4 10 9 10 17 0 99 59 105 76 3 9 6 36 6 60 0 32 -4 44 -15 44
-8 0 -15 -4 -15 -8z"/>
<path d="M2634 7236 c-3 -9 -11 -16 -18 -16 -6 0 -17 -9 -24 -20 -7 -11 -19
-20 -27 -20 -8 0 -15 -5 -15 -10 0 -6 -10 -15 -22 -20 -13 -6 -40 -20 -61 -33
l-38 -23 -2 -119 -2 -120 30 -14 c17 -8 32 -18 33 -23 2 -4 12 -8 22 -8 9 0
23 -6 29 -14 7 -8 23 -17 36 -20 14 -4 25 -11 25 -16 0 -6 7 -10 15 -10 8 0
15 4 15 9 0 10 11 17 97 61 79 40 83 45 83 116 0 35 4 65 10 69 9 6 40 -83 40
-116 0 -10 10 -25 23 -34 50 -37 129 -85 138 -85 5 0 9 -4 9 -10 0 -5 11 -12
24 -16 26 -6 24 2 39 -228 2 -39 17 -52 102 -96 11 -6 34 -19 50 -29 30 -18
31 -18 80 5 28 13 58 23 68 24 42 1 12 45 -125 185 -78 80 -149 145 -159 145
-11 0 -16 6 -13 18 4 12 -35 58 -133 155 -76 76 -157 158 -181 182 -24 24 -63
57 -87 72 -31 19 -43 33 -39 45 6 21 -14 34 -22 14z m-5 -161 c38 -19 77 -66
91 -111 11 -32 10 -39 -7 -63 -31 -41 -69 -55 -121 -45 -36 7 -50 17 -74 51
-42 58 -43 111 -3 153 32 34 69 39 114 15z"/>
<path d="M1278 7202 c-3 -9 -21 -19 -114 -67 -73 -36 -75 -40 -63 -115 5 -35
7 -81 4 -103 -7 -39 13 -77 40 -77 7 0 18 -7 25 -15 7 -8 21 -15 32 -15 10 0
21 -7 24 -15 4 -8 12 -15 19 -15 8 0 21 -7 30 -16 13 -13 18 -14 31 -3 20 16
44 30 111 64 29 14 55 31 59 37 3 5 6 58 5 116 -2 113 -13 142 -53 142 -10 0
-21 7 -24 15 -4 8 -14 15 -24 15 -10 0 -20 7 -24 15 -3 8 -12 15 -19 15 -8 0
-20 7 -27 15 -14 17 -27 19 -32 7z m109 -140 c40 -46 44 -99 11 -148 -42 -60
-96 -78 -161 -50 -51 21 -71 50 -71 105 0 39 6 55 33 89 37 45 55 52 116 46
31 -3 47 -13 72 -42z"/>
<path d="M2160 7201 c0 -9 -72 -41 -93 -41 -33 0 -16 -34 51 -97 166 -160 230
-213 247 -207 12 5 15 14 11 33 -4 14 -9 64 -12 111 -7 88 -14 106 -49 121
-11 5 -33 18 -50 28 -49 32 -105 59 -105 52z"/>
<path d="M7014 7199 c-3 -6 -16 -14 -27 -20 -25 -10 -60 -31 -67 -40 -3 -3
-21 -14 -41 -23 l-36 -17 -6 -97 c-4 -53 -9 -106 -12 -117 -3 -11 -1 -27 5
-35 8 -12 36 11 150 128 77 78 144 142 150 142 11 0 108 -97 162 -161 20 -24
49 -58 65 -76 16 -17 46 -56 68 -87 22 -31 46 -56 53 -56 6 0 12 -7 12 -16 0
-8 20 -42 45 -74 25 -32 45 -62 45 -65 0 -4 13 -24 28 -44 16 -20 32 -43 35
-51 4 -8 16 -28 27 -45 11 -16 23 -38 26 -47 10 -28 42 -21 81 17 20 19 41 35
47 35 6 1 20 8 31 18 18 15 20 28 18 127 -1 61 -2 116 -2 123 -1 6 -10 12 -20
12 -11 0 -26 7 -35 15 -8 8 -20 15 -26 15 -12 0 -73 41 -78 53 -5 10 -42 9
-42 -2 0 -5 -12 -14 -27 -20 -16 -6 -35 -15 -43 -19 -41 -24 -62 -32 -80 -32
-26 0 -26 27 0 35 11 3 20 10 20 15 0 8 11 15 88 55 l32 17 0 113 c0 96 -3
114 -18 128 -10 10 -26 17 -34 17 -9 0 -21 7 -28 15 -7 8 -17 15 -22 15 -10 0
-71 41 -76 52 -4 8 -65 -23 -75 -39 -4 -7 -17 -13 -27 -13 -10 0 -21 -4 -24
-9 -3 -5 -29 -21 -57 -36 l-51 -26 -27 25 c-15 14 -34 26 -43 26 -8 0 -21 7
-28 15 -7 8 -18 15 -26 15 -7 0 -33 11 -58 24 -27 14 -48 20 -52 15z m537
-126 c78 -73 65 -182 -22 -183 -39 0 -139 115 -139 160 0 6 11 22 25 35 38 39
86 34 136 -12z m206 -373 c42 -25 55 -51 51 -108 -2 -36 -7 -48 -22 -50 -38
-8 -135 123 -120 162 8 22 52 20 91 -4z"/>
<path d="M1686 7175 c-20 -14 -43 -25 -50 -25 -8 0 -16 -7 -20 -15 -3 -8 -13
-15 -23 -15 -10 -1 -28 -9 -40 -19 -19 -16 -22 -29 -24 -124 -1 -59 0 -110 4
-114 16 -15 6 -33 -18 -33 -14 0 -28 -7 -31 -15 -4 -8 -10 -15 -14 -15 -5 0
-32 -16 -61 -35 -30 -19 -59 -35 -66 -35 -6 0 -14 -8 -17 -17 -4 -16 -21 -188
-21 -223 0 -33 26 -11 76 65 29 44 79 115 111 157 32 42 58 81 58 86 0 5 21
32 48 59 26 28 73 79 104 114 31 35 77 86 102 113 50 53 57 76 26 76 -11 0
-34 9 -52 20 -42 25 -48 25 -92 -5z"/>
<path d="M6555 7187 c-11 -7 -24 -18 -28 -24 -4 -7 -16 -13 -26 -13 -10 0 -24
-7 -31 -15 -7 -8 -19 -15 -26 -15 -8 0 -23 -8 -34 -17 -18 -15 -20 -30 -20
-124 0 -90 3 -108 18 -122 10 -10 26 -17 35 -17 9 0 19 -5 22 -11 4 -5 17 -15
28 -20 41 -19 70 -37 78 -51 7 -10 12 -11 26 -1 10 7 38 23 63 35 25 13 47 26
48 31 2 4 13 7 25 7 12 0 32 11 44 23 19 21 21 28 11 68 -5 24 -8 72 -5 106 4
50 2 62 -12 67 -9 3 -29 15 -46 26 -16 11 -39 24 -50 30 -11 6 -33 19 -50 29
-35 23 -43 24 -70 8z m79 -91 c36 -15 73 -57 82 -93 4 -15 -1 -38 -12 -59 -49
-90 -123 -117 -194 -70 -47 31 -64 66 -55 116 9 46 29 77 68 100 38 23 66 25
111 6z"/>
<path d="M7810 7154 c-19 -19 -39 -34 -45 -34 -5 -1 -20 -9 -32 -19 -21 -18
-23 -28 -23 -123 0 -91 2 -106 20 -121 11 -9 26 -17 34 -17 7 0 19 -6 25 -14
7 -8 23 -17 36 -20 14 -4 25 -11 25 -16 0 -6 5 -10 12 -10 6 0 20 -7 30 -17
17 -15 19 -15 36 0 10 10 22 17 26 17 4 0 14 7 22 15 9 8 24 15 35 15 10 0 19
4 19 9 0 6 15 11 33 13 52 5 40 40 -62 179 -128 175 -131 179 -144 178 -7 -1
-28 -17 -47 -35z m25 -120 c28 -11 105 -125 105 -155 0 -33 -15 -45 -36 -28
-8 6 -17 9 -20 6 -10 -10 -77 31 -91 55 -13 24 -17 86 -7 112 7 17 22 20 49
10z"/>
<path d="M1015 7063 c-19 -20 -35 -40 -35 -45 0 -7 -24 -42 -119 -174 -17 -23
-33 -55 -37 -70 -4 -16 -16 -35 -26 -43 -11 -7 -24 -23 -29 -35 -5 -11 -25
-48 -44 -81 -18 -33 -45 -82 -60 -110 -14 -27 -33 -61 -40 -75 -8 -14 -15 -36
-15 -49 0 -13 -11 -32 -25 -43 -14 -11 -25 -30 -25 -43 0 -12 -7 -28 -15 -35
-8 -7 -15 -20 -15 -29 0 -10 -7 -26 -15 -37 -8 -10 -15 -25 -15 -33 0 -8 -14
-43 -31 -79 -17 -36 -27 -72 -24 -81 6 -14 8 -14 19 2 7 9 18 17 24 17 6 0 15
6 19 13 4 8 29 26 56 41 l47 28 2 91 c1 51 2 107 2 124 1 29 9 38 71 80 39 27
84 56 100 65 26 14 30 23 32 65 7 134 16 213 24 213 10 0 63 35 87 58 7 6 20
12 28 12 8 0 14 4 14 10 0 5 11 12 24 16 33 8 44 36 50 127 3 54 10 85 21 97
16 18 13 40 -5 40 -5 0 -25 -16 -45 -37z"/>
<path d="M1730 6865 c-14 -17 8 -40 290 -305 85 -80 197 -185 248 -235 51 -49
99 -91 105 -92 7 -2 27 22 45 52 18 30 39 55 46 55 7 0 61 -48 122 -107 60
-60 201 -193 314 -298 112 -104 229 -214 259 -243 30 -29 73 -69 95 -89 40
-35 105 -95 240 -221 37 -35 78 -67 92 -72 20 -8 23 -14 18 -37 -4 -16 -19
-39 -33 -53 -31 -29 -131 -179 -131 -196 0 -6 -7 -17 -15 -24 -8 -7 -15 -21
-15 -31 0 -11 -4 -27 -10 -37 -24 -43 -50 -113 -50 -134 0 -13 -8 -43 -16 -68
-24 -67 -25 -428 -1 -484 10 -21 17 -51 17 -66 0 -15 9 -49 21 -76 11 -27 25
-60 31 -74 17 -41 79 -163 88 -170 3 -3 17 -24 32 -46 42 -65 95 -114 122
-114 22 0 -22 106 -64 155 -29 34 -110 195 -110 220 0 12 -10 35 -22 50 -21
27 -27 47 -54 190 -31 162 -1 470 53 535 7 9 21 43 31 75 10 33 30 77 43 97
66 100 99 157 99 171 0 8 7 20 15 27 23 19 18 59 -10 89 -80 82 -215 215 -278
273 -312 287 -417 385 -452 421 -22 24 -72 69 -110 102 -39 33 -110 100 -160
148 -49 48 -98 90 -110 93 -11 3 -28 16 -37 27 -16 20 -17 21 -36 4 -10 -9
-26 -17 -35 -17 -9 0 -19 -4 -22 -10 -8 -13 -59 14 -100 53 -18 18 -74 70
-125 117 -50 47 -119 113 -152 148 -34 34 -67 62 -74 62 -7 0 -15 8 -19 18 -8
24 -142 130 -166 132 -4 0 -12 -7 -19 -15z"/>
<path d="M2387 6823 c-9 -8 195 -203 206 -196 4 2 7 20 7 39 0 36 -28 74 -55
74 -8 0 -15 4 -15 10 0 5 -11 12 -24 16 -14 3 -27 12 -30 20 -3 8 -12 14 -19
14 -8 0 -20 7 -27 15 -13 16 -32 19 -43 8z"/>
<path d="M6770 6821 c0 -6 -11 -16 -24 -23 -108 -59 -128 -74 -149 -120 -22
-49 -37 -54 -37 -12 0 37 -16 61 -45 68 -14 4 -25 11 -25 16 0 6 -8 10 -19 10
-10 0 -24 7 -31 15 -7 8 -17 15 -23 15 -6 0 -18 7 -28 16 -19 17 -26 16 -74
-16 -16 -11 -39 -24 -50 -30 -11 -5 -27 -14 -35 -19 -8 -5 -23 -12 -32 -15
-16 -5 -18 -20 -18 -123 0 -106 2 -120 20 -136 11 -9 26 -17 33 -17 7 0 31
-16 52 -36 74 -67 66 -70 188 57 60 63 112 117 116 121 3 3 57 55 119 114 61
59 112 111 112 116 0 4 -11 8 -25 8 -14 0 -25 -4 -25 -9z m-340 -116 c20 -11
30 -23 30 -39 0 -47 -114 -166 -159 -166 -32 0 -61 46 -61 97 0 55 12 79 53
103 38 24 97 26 137 5z"/>
<path d="M8080 6799 c-14 -16 -35 -32 -47 -35 -12 -3 -27 -12 -34 -20 -6 -8
-20 -14 -30 -14 -11 0 -19 -6 -20 -12 0 -7 -1 -62 -2 -123 -2 -99 0 -112 18
-127 11 -10 27 -17 36 -18 9 0 22 -7 29 -15 7 -8 16 -15 21 -15 4 0 24 -11 44
-24 39 -27 36 -28 130 29 22 13 47 24 55 25 24 1 53 28 46 42 -3 7 -15 27 -26
43 -11 17 -25 42 -31 58 -6 15 -15 27 -20 27 -5 0 -9 5 -9 11 0 6 -20 45 -45
86 -25 40 -45 78 -45 83 0 8 -33 31 -42 29 -2 0 -14 -14 -28 -30z m20 -141
c11 -12 20 -25 20 -29 0 -4 11 -20 24 -36 30 -35 42 -144 14 -127 -7 4 -27 7
-45 6 -76 -6 -142 117 -99 183 21 31 58 33 86 3z"/>
<path d="M1050 6811 c0 -5 -10 -13 -22 -17 -12 -3 -26 -11 -32 -16 -6 -5 -36
-22 -66 -37 l-55 -27 -3 -116 c-2 -103 -1 -116 15 -121 10 -4 26 -11 36 -17
40 -23 53 -31 75 -40 12 -5 22 -14 22 -19 0 -17 58 -23 84 -9 99 53 151 78
162 78 10 0 11 25 7 113 -6 112 -17 147 -48 147 -7 0 -18 7 -25 15 -7 8 -21
15 -32 15 -10 0 -21 7 -24 15 -4 8 -12 15 -19 15 -7 0 -18 7 -25 15 -14 16
-50 21 -50 6z m68 -95 c70 -36 93 -94 64 -160 -25 -55 -68 -86 -121 -86 -33 0
-47 7 -81 38 -38 37 -40 42 -40 100 0 45 4 62 13 62 8 0 22 9 32 20 17 19 60
37 93 39 7 1 25 -5 40 -13z"/>
<path d="M2815 6809 c-4 -5 -17 -15 -28 -20 -34 -15 -68 -36 -80 -48 -6 -6
-19 -11 -28 -11 -26 0 -38 -22 -45 -82 -6 -49 -4 -58 15 -74 26 -23 27 -40 1
-54 -11 -6 -20 -18 -20 -28 0 -16 40 -42 66 -42 6 0 17 -7 24 -15 7 -8 19 -15
27 -15 7 0 27 -10 43 -21 22 -17 36 -20 63 -15 19 4 38 13 41 21 3 8 12 15 19
15 8 0 20 7 27 15 7 8 21 15 31 15 11 0 19 4 19 8 0 5 9 13 20 18 18 8 21 20
23 116 3 114 -2 130 -43 143 -14 4 -27 10 -30 14 -3 3 -26 16 -52 29 -27 13
-48 28 -48 33 0 13 -37 11 -45 -2z m107 -129 c63 -65 63 -120 0 -177 -48 -44
-110 -47 -141 -7 -12 15 -21 34 -21 43 0 9 -7 25 -15 35 -8 11 -15 37 -15 57
0 30 7 45 33 69 29 28 36 30 77 25 35 -5 53 -15 82 -45z"/>
<path d="M5578 6467 c-90 -93 -96 -103 -82 -118 12 -13 17 -47 19 -135 l4
-119 46 -23 c25 -13 45 -28 45 -33 0 -5 7 -9 15 -9 9 0 29 -10 45 -22 32 -23
38 -22 105 22 17 10 49 29 73 41 l42 23 0 123 c0 112 -2 123 -18 123 -10 0
-23 5 -29 11 -13 13 -47 33 -80 48 -13 6 -23 15 -23 20 0 22 -41 21 -82 -1
-24 -13 -45 -26 -48 -29 -3 -3 -17 -9 -32 -13 -16 -3 -28 -11 -28 -16 0 -6 -9
-10 -20 -10 -25 0 -26 18 -2 27 9 4 19 9 22 12 10 12 69 51 77 51 22 1 61 48
65 78 9 64 -14 54 -114 -51z m164 -136 c14 -3 40 -18 57 -34 27 -24 31 -34 31
-81 0 -107 -94 -165 -190 -118 -82 41 -88 126 -15 200 43 42 59 47 117 33z"/>
<path d="M4305 6539 c-22 -4 -63 -8 -91 -8 -28 -1 -73 -8 -100 -16 -27 -8 -68
-15 -91 -15 -47 0 -55 -7 -46 -38 3 -15 13 -22 29 -22 13 0 49 -13 79 -30 61
-33 79 -36 112 -17 12 6 56 30 98 52 71 36 76 41 73 69 -3 34 -9 36 -63 25z"/>
<path d="M4402 6513 c3 -34 7 -39 68 -69 36 -18 70 -36 76 -41 36 -28 50 -30
81 -14 99 52 182 91 192 91 6 0 60 -25 118 -56 l107 -56 43 21 c51 25 73 27
73 6 0 -8 -6 -15 -13 -15 -7 0 -20 -9 -30 -20 -9 -11 -24 -20 -32 -20 -13 0
-15 -20 -15 -124 0 -124 0 -124 25 -130 14 -4 25 -11 25 -16 0 -6 8 -10 19
-10 10 0 24 -7 31 -15 7 -8 18 -15 26 -15 7 0 17 -7 22 -17 11 -19 70 -23 81
-5 3 6 18 16 31 22 14 5 39 19 55 30 17 11 38 23 47 26 14 5 17 23 21 97 2 51
8 104 12 119 6 24 5 26 -14 21 -17 -4 -44 6 -121 46 -63 33 -85 41 -108 41
-15 0 -52 13 -82 30 -30 16 -68 29 -83 30 -16 0 -38 5 -50 12 -19 10 -44 15
-157 33 -99 16 -299 34 -368 35 l-83 0 3 -37z m864 -249 c107 -40 136 -79 98
-132 -18 -25 -75 -52 -112 -52 -30 0 -86 33 -107 63 -8 12 -15 38 -15 58 0 29
7 43 31 63 17 14 32 26 34 26 1 0 34 -12 71 -26z"/>
<path d="M1268 6444 c-16 -8 -28 -19 -28 -24 0 -6 -5 -10 -10 -10 -10 0 -69
-38 -80 -51 -3 -3 -15 -11 -27 -18 -19 -10 -23 -20 -23 -59 0 -61 -27 -216
-39 -220 -5 -2 -32 -21 -62 -43 -29 -21 -70 -47 -91 -57 l-37 -17 -1 -117 c0
-114 1 -118 25 -134 37 -24 31 -37 -15 -31 -31 4 -47 0 -73 -17 -17 -12 -39
-25 -47 -29 -8 -4 -33 -18 -55 -31 l-40 -24 0 -118 c0 -108 2 -119 20 -129 32
-17 77 -48 103 -72 22 -20 23 -23 8 -29 -10 -4 -27 -2 -39 4 -12 5 -29 13 -37
16 -22 10 -56 30 -74 45 -14 12 -19 11 -34 -3 -10 -9 -23 -16 -29 -16 -6 0
-16 -7 -23 -15 -7 -8 -20 -15 -30 -15 -10 0 -20 -7 -24 -15 -3 -8 -14 -15 -25
-15 -33 0 -44 -36 -42 -144 2 -105 14 -136 51 -136 10 0 23 -7 30 -15 7 -8 18
-15 26 -15 7 0 17 -6 21 -12 12 -19 72 -48 78 -38 7 12 65 40 82 40 7 0 13 -5
13 -10 0 -15 -50 -60 -66 -60 -11 0 -14 -23 -14 -104 0 -57 -3 -111 -6 -119
-9 -26 82 -94 101 -75 2 2 6 91 9 198 3 107 10 211 16 230 6 19 15 71 20 115
16 130 29 201 45 247 8 23 15 57 15 73 0 17 7 41 15 55 8 14 14 38 15 53 0 15
7 41 15 57 8 16 16 47 18 69 1 22 6 43 10 48 13 12 47 94 47 112 0 10 7 26 15
37 8 10 15 27 15 36 0 9 8 31 17 50 9 18 22 45 30 60 7 14 13 33 13 41 0 8 7
20 15 27 9 8 13 21 9 35 -4 18 -1 25 15 30 12 3 21 13 21 22 0 13 13 43 41 93
5 8 20 38 35 65 35 68 45 85 72 123 13 17 22 41 20 51 -3 18 -5 18 -30 5z
m-609 -1270 c22 -16 23 -22 19 -89 -9 -137 -67 -182 -142 -112 -32 31 -36 40
-36 83 1 60 17 92 61 115 43 23 68 23 98 3z"/>
<path d="M2594 6442 c-16 -15 -15 -18 12 -37 15 -11 64 -54 107 -95 43 -41 84
-75 90 -75 8 0 11 16 9 45 -4 45 -16 70 -34 70 -5 0 -14 5 -21 10 -7 6 -42 31
-79 55 -63 41 -68 43 -84 27z"/>
<path d="M3883 6442 c17 -21 -13 -35 -35 -15 -10 9 -27 13 -40 10 -54 -13
-102 -36 -118 -57 -10 -13 -22 -20 -29 -16 -13 8 -76 -17 -86 -34 -7 -12 -45
-14 -45 -2 0 4 -19 26 -41 50 -43 45 -78 54 -86 23 -2 -10 -14 -24 -26 -30
-35 -18 -61 -35 -69 -46 -4 -5 -8 -61 -8 -122 0 -104 2 -113 19 -113 10 0 24
-6 30 -14 7 -8 23 -17 36 -20 14 -4 25 -11 25 -16 0 -6 5 -10 12 -10 6 0 20
-7 29 -16 10 -9 30 -16 44 -16 14 0 34 7 44 16 9 9 22 16 28 16 6 0 16 7 23
15 7 8 21 15 31 15 11 0 19 4 19 10 0 5 11 12 25 16 29 7 38 31 34 95 -6 95 1
169 15 169 7 0 19 7 26 15 7 8 21 15 31 15 11 0 19 4 19 9 0 14 32 23 43 12 7
-7 1 -14 -16 -20 -15 -6 -27 -15 -27 -21 0 -5 -9 -10 -19 -10 -26 0 -27 -8
-23 -142 3 -97 6 -117 20 -122 23 -9 61 -31 75 -45 6 -6 19 -11 29 -11 9 0 21
-7 26 -17 6 -10 22 -16 42 -16 20 0 36 6 42 16 5 10 17 17 27 17 11 0 21 7 25
15 3 8 13 15 22 15 9 0 27 9 41 20 24 19 25 24 26 135 0 63 -2 116 -4 118 -2
1 -13 8 -24 15 -11 6 -30 16 -42 22 -13 5 -23 14 -23 19 0 5 -11 12 -25 15
-14 4 -25 13 -25 21 0 16 -31 28 -77 29 -25 1 -29 -2 -20 -12z m136 -138 c70
-50 55 -175 -25 -209 -61 -25 -96 -20 -142 23 -36 33 -42 45 -42 79 0 31 7 47
32 73 46 48 133 65 177 34z m-553 -48 c12 -8 43 -20 70 -27 61 -15 86 -35 78
-63 -16 -54 -87 -93 -145 -81 -17 4 -46 20 -65 37 -28 25 -34 37 -34 70 0 21
5 48 10 59 13 23 56 25 86 5z"/>
<path d="M4349 6422 c-13 -10 -31 -22 -39 -25 -8 -4 -28 -16 -45 -27 -16 -11
-39 -24 -50 -28 -18 -8 -20 -19 -20 -131 0 -85 3 -121 11 -121 6 0 17 -7 24
-15 7 -8 20 -15 30 -15 10 0 20 -7 24 -15 3 -8 14 -15 25 -15 11 0 24 -7 29
-17 6 -10 22 -16 42 -16 20 0 36 6 42 16 5 10 17 17 26 17 10 0 23 5 29 11 14
14 52 36 76 45 15 6 17 21 17 130 0 116 -1 124 -19 124 -11 0 -23 5 -26 11 -4
5 -17 14 -28 20 -25 10 -51 26 -86 52 -30 21 -33 21 -62 -1z m92 -103 c104
-52 79 -213 -35 -235 -51 -9 -110 10 -131 43 -23 35 -31 105 -16 141 14 34 74
71 114 72 15 0 46 -9 68 -21z"/>
<path d="M4789 6424 c-7 -9 -22 -20 -34 -26 -11 -5 -31 -16 -45 -24 -14 -8
-38 -23 -55 -33 l-30 -18 -3 -111 c-3 -111 -2 -112 22 -122 13 -5 27 -14 31
-19 3 -6 15 -11 26 -11 11 0 22 -7 25 -15 4 -8 14 -15 25 -15 10 0 22 -7 27
-16 11 -21 68 -21 90 -1 10 10 23 17 29 17 6 0 13 7 17 15 3 8 14 15 25 15 11
0 23 5 26 11 4 5 18 14 31 19 23 9 24 13 24 120 l0 111 -30 17 c-16 9 -30 20
-30 25 0 4 -7 7 -15 7 -15 0 -63 30 -93 58 -19 17 -47 15 -63 -4z m63 -94 c20
-6 50 -23 67 -39 27 -25 31 -36 31 -80 0 -44 -5 -56 -34 -89 -33 -36 -37 -37
-97 -36 -59 1 -65 4 -96 38 -26 28 -33 44 -33 75 0 58 14 86 57 115 42 29 52
30 105 16z"/>
<path d="M8280 6404 c-19 -19 -40 -34 -46 -34 -6 0 -17 -7 -24 -15 -7 -8 -21
-15 -31 -15 -18 0 -19 -9 -19 -122 l0 -123 48 -23 c71 -35 94 -49 102 -63 12
-18 67 -15 88 4 10 10 26 17 35 17 9 0 17 5 17 10 0 6 11 10 25 10 34 0 42 25
22 66 -9 19 -23 49 -30 67 -20 47 -41 93 -82 180 -41 88 -52 92 -105 41z m43
-170 c27 -41 37 -68 37 -95 0 -39 0 -39 -39 -39 -32 0 -44 6 -65 31 -22 25
-26 41 -26 89 0 47 3 58 14 54 8 -3 17 -1 21 5 11 19 20 12 58 -45z"/>
<path d="M813 6419 c-13 -13 -41 -30 -105 -61 -26 -13 -48 -30 -50 -38 -2 -8
-2 -63 0 -122 3 -83 6 -108 17 -108 7 0 20 -6 27 -14 8 -7 24 -17 36 -20 12
-4 22 -12 22 -17 0 -5 9 -9 20 -9 10 0 23 -7 28 -17 6 -9 22 -16 40 -16 16 0
38 7 47 16 9 10 22 17 29 17 8 0 19 7 26 15 7 8 21 15 31 15 11 0 19 3 19 8 0
4 10 12 23 17 12 6 22 18 21 28 0 9 -1 62 -2 117 -2 94 -3 101 -24 110 -13 6
-36 19 -53 30 -16 11 -40 24 -52 29 -11 5 -24 15 -28 20 -8 14 -58 14 -72 0z
m116 -105 c43 -36 55 -86 34 -145 -13 -36 -26 -53 -54 -68 -46 -26 -69 -26
-119 -1 -44 22 -54 37 -64 94 -10 52 15 108 57 129 51 25 110 21 146 -9z"/>
<path d="M3023 6419 c-13 -13 -42 -30 -105 -61 -42 -20 -48 -28 -58 -68 -6
-25 -14 -55 -17 -68 -6 -24 -4 -25 150 -169 67 -63 102 -77 114 -47 3 8 15 20
27 25 26 11 56 30 74 47 7 6 20 12 28 12 11 0 14 23 14 120 0 115 -1 121 -22
130 -23 10 -33 15 -73 38 -11 7 -30 16 -42 22 -13 5 -23 14 -23 20 0 14 -53
13 -67 -1z m114 -105 c20 -15 37 -40 44 -65 11 -34 10 -46 -7 -86 -16 -40 -23
-46 -49 -48 -42 -2 -84 26 -128 83 -40 54 -47 90 -19 115 46 42 104 42 159 1z"/>
<path d="M6113 6419 c-14 -14 -42 -30 -105 -61 -26 -13 -48 -30 -48 -38 0 -8
-2 -62 -3 -118 -3 -92 -2 -105 15 -115 10 -7 18 -17 18 -24 0 -7 12 -16 26
-19 23 -6 41 9 175 142 105 105 145 151 138 160 -5 6 -30 17 -54 24 -25 7 -45
17 -45 21 0 5 -8 9 -19 9 -10 0 -24 7 -31 15 -15 18 -51 20 -67 4z m17 -99 c0
-16 -91 -101 -101 -94 -27 17 20 86 66 97 33 8 35 7 35 -3z"/>
<path d="M7875 6421 c-8 -13 -59 -38 -94 -46 -40 -8 -58 -30 -41 -49 12 -16
54 -93 90 -166 12 -25 26 -52 31 -60 5 -8 12 -22 15 -30 11 -31 42 -84 51 -87
5 -2 29 15 53 37 24 22 49 40 56 40 6 0 17 7 24 15 7 8 21 15 31 15 18 0 19 9
19 120 0 106 -2 121 -17 126 -29 9 -36 13 -68 34 -16 11 -40 24 -52 29 -11 5
-24 15 -28 20 -8 13 -62 14 -70 2z m94 -96 c16 -8 41 -28 55 -46 22 -26 25
-37 20 -68 -3 -20 -14 -44 -24 -55 -26 -27 -53 -8 -89 66 -52 103 -37 142 38
103z"/>
<path d="M604 6040 c-12 -5 -25 -13 -29 -19 -3 -6 -15 -11 -26 -11 -10 0 -19
-4 -19 -10 0 -5 -6 -10 -12 -10 -7 0 -33 -10 -58 -23 -42 -21 -45 -25 -48 -67
-3 -49 -18 -86 -43 -110 -10 -8 -20 -34 -23 -57 -5 -38 -4 -43 13 -43 20 0 31
25 31 78 0 17 4 32 9 32 13 0 32 -27 31 -42 -4 -30 14 -54 58 -76 83 -41 107
-55 110 -64 5 -11 62 -10 62 2 0 5 11 12 24 16 14 3 27 12 30 20 3 8 14 14 24
14 11 0 25 7 32 15 7 8 21 15 31 15 18 0 19 9 19 123 l0 123 -42 23 c-52 26
-75 40 -107 64 -26 19 -36 20 -67 7z m97 -103 c48 -32 68 -95 48 -151 -17 -50
-74 -86 -136 -86 -34 0 -46 5 -67 31 -17 20 -26 42 -26 66 0 130 91 200 181
140z"/>
<path d="M3238 6031 c-14 -12 -32 -21 -40 -21 -7 0 -22 -7 -32 -15 -11 -8 -28
-15 -38 -15 -13 0 -18 -8 -18 -25 0 -14 4 -25 8 -25 8 0 73 -60 208 -191 39
-38 78 -69 86 -69 8 0 24 10 35 23 18 20 20 33 17 135 -3 107 -4 114 -27 133
-14 10 -32 19 -41 19 -9 0 -19 7 -22 15 -4 8 -14 15 -25 15 -10 0 -22 6 -26
14 -14 26 -57 29 -85 7z m124 -118 c18 -16 25 -43 10 -43 -8 0 -62 48 -62 55
0 12 35 3 52 -12z"/>
<path d="M3695 6039 c-11 -5 -33 -18 -50 -29 -16 -10 -49 -29 -71 -41 l-41
-21 0 -120 c0 -112 1 -120 21 -129 11 -5 35 -18 51 -29 17 -11 40 -24 52 -29
11 -5 24 -15 28 -20 10 -17 62 -13 69 4 3 8 12 15 19 15 8 0 20 7 27 15 7 8
21 15 31 15 11 0 19 4 19 9 0 5 14 14 30 20 l30 10 0 119 c0 105 -2 120 -17
126 -24 9 -62 31 -76 45 -6 6 -19 11 -29 11 -9 0 -21 6 -25 14 -11 19 -44 26
-68 15z m113 -124 c43 -44 45 -46 38 -92 -8 -60 -25 -86 -76 -111 -69 -34
-143 -2 -177 76 -11 27 -12 41 -2 70 6 21 17 43 23 51 22 28 72 51 110 51 33
0 46 -7 84 -45z"/>
<path d="M4135 6039 c-11 -5 -33 -18 -50 -29 -16 -11 -40 -24 -52 -29 -11 -5
-24 -15 -28 -20 -3 -6 -15 -11 -26 -11 -19 0 -19 -6 -17 -117 3 -117 3 -118
31 -131 15 -7 27 -17 27 -21 0 -5 11 -12 25 -15 14 -4 25 -13 25 -20 0 -23 51
-27 115 -10 33 9 71 19 85 22 14 2 32 10 40 17 8 6 23 15 33 18 15 6 17 21 17
126 l0 120 -27 15 c-16 8 -40 20 -55 27 -16 6 -28 15 -28 20 0 5 -5 9 -12 9
-6 0 -19 6 -27 14 -23 20 -53 26 -76 15z m63 -88 c15 -10 37 -21 49 -25 13 -4
30 -22 38 -40 14 -28 14 -36 1 -67 -29 -70 -170 -106 -230 -58 -22 18 -26 28
-26 74 0 50 3 56 35 82 28 22 75 46 103 52 2 1 16 -7 30 -18z"/>
<path d="M4560 6032 c-14 -10 -32 -22 -40 -25 -8 -4 -28 -16 -45 -27 -16 -11
-38 -23 -47 -26 -15 -5 -18 -20 -18 -99 0 -51 -3 -106 -6 -123 -6 -28 -3 -32
27 -45 19 -8 92 -17 167 -21 126 -7 133 -6 160 14 27 22 27 23 27 146 0 86 -3
124 -11 124 -6 0 -17 7 -24 15 -7 8 -20 15 -30 15 -10 0 -20 7 -24 15 -3 8
-12 15 -20 15 -8 0 -21 7 -29 15 -25 25 -61 28 -87 7z m110 -92 c58 -41 75
-126 30 -150 -28 -15 -146 -12 -184 4 -19 8 -37 24 -41 36 -11 35 24 90 70
111 52 24 90 24 125 -1z"/>
<path d="M5020 6043 c-8 -3 -19 -12 -23 -19 -4 -8 -16 -14 -26 -14 -11 0 -21
-7 -25 -15 -3 -8 -13 -15 -22 -15 -9 0 -27 -9 -40 -19 -24 -19 -25 -26 -28
-135 l-3 -116 46 -27 c25 -15 52 -33 59 -40 7 -7 19 -13 27 -13 7 0 15 -7 19
-15 8 -22 53 -18 73 5 10 11 23 20 30 20 7 0 13 4 13 10 0 5 11 12 25 16 13 3
29 12 36 20 6 8 20 14 30 14 18 0 19 9 19 123 l0 123 -42 23 c-52 26 -75 40
-107 64 -25 18 -35 19 -61 10z m91 -106 c41 -27 62 -82 53 -138 -13 -81 -105
-113 -189 -66 -51 29 -67 60 -60 116 6 50 26 77 70 97 45 20 88 17 126 -9z"/>
<path d="M5460 6043 c-8 -3 -19 -12 -23 -19 -4 -8 -16 -14 -26 -14 -11 0 -21
-7 -25 -15 -3 -8 -14 -15 -25 -15 -11 0 -23 -5 -26 -11 -4 -5 -18 -14 -31 -19
-23 -9 -24 -13 -24 -112 1 -100 11 -138 37 -138 6 0 16 -7 23 -15 7 -8 21 -15
32 -15 10 0 21 -7 24 -15 4 -8 12 -15 19 -15 6 0 22 -9 35 -20 27 -24 53 -26
70 -5 14 17 50 20 50 5 0 -6 -8 -14 -17 -17 -10 -4 -29 -17 -43 -30 -14 -13
-31 -21 -40 -17 -8 3 -23 9 -32 11 -10 3 -18 9 -18 14 0 5 -9 9 -19 9 -11 0
-23 5 -26 11 -4 5 -17 15 -28 20 -12 6 -38 18 -57 28 -35 19 -64 13 -83 -16
-4 -7 -16 -13 -26 -13 -10 0 -24 -7 -31 -15 -7 -8 -18 -15 -24 -15 -7 0 -24
-6 -39 -12 -33 -16 -34 -59 -2 -68 52 -14 215 -145 215 -172 0 -4 8 -8 18 -8
20 0 162 140 162 159 0 7 9 15 19 19 10 4 42 29 71 56 50 47 60 76 25 76 -9 0
-14 4 -10 10 3 6 15 6 29 0 27 -10 37 -5 30 15 -3 7 4 16 15 20 33 10 44 39
31 83 -5 20 -10 70 -10 110 0 65 -2 72 -19 72 -11 0 -23 5 -26 11 -4 5 -17 15
-28 20 -29 13 -62 32 -78 46 -19 15 -51 22 -69 16z m72 -97 c24 -13 52 -39 63
-59 19 -34 19 -36 1 -75 -30 -66 -67 -95 -128 -100 -48 -3 -55 -1 -81 26 -34
35 -46 97 -27 142 14 33 48 61 95 78 17 6 31 11 32 11 1 1 22 -10 45 -23z
m-224 -388 c19 -19 14 -28 -12 -28 -27 0 -41 14 -31 30 8 14 28 13 43 -2z"/>
<path d="M5879 6032 c-13 -10 -31 -22 -39 -25 -21 -9 -51 -29 -68 -44 -7 -7
-19 -13 -26 -13 -9 0 -15 -26 -20 -87 -4 -49 -8 -97 -9 -107 -1 -10 3 -20 8
-22 6 -2 73 59 150 137 l140 140 -24 20 c-29 24 -81 25 -112 1z"/>
<path d="M8110 6043 c-8 -3 -17 -9 -20 -13 -3 -4 -27 -17 -55 -30 -93 -42
-100 -47 -97 -72 2 -13 10 -33 18 -45 8 -12 14 -30 14 -40 0 -10 7 -27 15 -37
8 -11 15 -29 15 -41 0 -12 7 -30 15 -41 8 -10 15 -31 15 -46 0 -18 9 -33 25
-44 20 -13 22 -19 12 -34 -9 -15 -8 -28 3 -57 7 -21 16 -56 19 -77 3 -22 12
-41 19 -44 19 -6 17 144 -3 152 -26 10 -16 26 15 26 18 0 37 8 47 20 10 11 23
20 30 20 7 0 13 4 13 10 0 5 11 12 25 16 13 3 29 12 36 20 6 8 20 14 30 14 18
0 19 9 19 123 l0 123 -42 23 c-52 26 -75 40 -107 64 -25 18 -35 19 -61 10z
m81 -98 c69 -36 91 -137 43 -194 -37 -45 -67 -41 -100 11 -22 35 -53 122 -54
151 0 15 41 47 60 47 12 0 34 -7 51 -15z"/>
<path d="M8457 5990 c-31 -22 -62 -40 -67 -40 -12 0 -18 -198 -7 -225 5 -11
30 -30 58 -43 27 -12 49 -27 49 -32 0 -6 9 -10 20 -10 11 0 23 -6 26 -14 9
-24 45 -26 86 -5 42 21 42 20 17 89 -6 19 -17 51 -24 70 -7 19 -18 51 -24 70
-7 19 -17 49 -21 65 -16 56 -38 109 -46 112 -5 2 -35 -15 -67 -37z"/>
<path d="M4793 5668 c-32 -15 -29 -38 5 -38 15 -1 38 -7 52 -15 14 -8 35 -14
47 -15 12 0 28 -7 37 -15 8 -8 25 -15 37 -15 12 0 27 -7 34 -17 8 -11 14 -13
19 -4 4 6 0 14 -8 17 -9 3 -16 12 -16 20 0 8 -10 14 -25 14 -14 0 -28 7 -31
15 -4 8 -14 15 -24 15 -11 0 -22 5 -25 10 -5 8 -73 42 -79 39 0 0 -11 -5 -23
-11z"/>
<path d="M360 5661 c-28 -8 -69 -95 -70 -147 0 -17 -7 -48 -15 -67 -8 -20 -15
-51 -15 -69 0 -18 -5 -40 -10 -48 -10 -17 14 -50 38 -50 15 0 67 -26 94 -49
18 -14 25 -12 73 19 17 11 40 24 52 29 11 5 24 15 28 20 3 6 14 11 24 11 36 0
45 27 46 140 2 91 -1 109 -14 114 -9 3 -29 15 -46 26 -16 11 -37 23 -45 27 -8
4 -26 15 -40 24 -31 22 -67 30 -100 20z m146 -142 c24 -25 29 -39 29 -80 0
-46 -3 -53 -40 -84 -46 -39 -89 -46 -105 -16 -24 46 -7 149 32 199 18 21 53
13 84 -19z"/>
<path d="M3458 5663 c-10 -2 -18 -9 -18 -15 0 -7 57 -67 128 -135 127 -122
161 -142 148 -85 -3 15 -9 50 -12 77 l-6 50 -97 58 c-95 55 -107 60 -143 50z"/>
<path d="M3890 5643 c-25 -14 -52 -32 -61 -39 -8 -8 -22 -14 -31 -14 -31 0
-55 -43 -61 -107 -6 -78 2 -80 81 -20 31 24 64 47 72 50 8 4 35 18 59 32 24
14 52 25 61 25 19 0 50 30 50 48 0 7 -8 12 -18 12 -10 0 -37 9 -60 20 -22 11
-42 20 -44 20 -2 0 -23 -12 -48 -27z"/>
<path d="M8325 5656 c-11 -6 -24 -17 -28 -23 -4 -7 -16 -13 -26 -13 -11 0 -21
-7 -25 -15 -3 -8 -12 -15 -19 -15 -8 0 -28 -7 -45 -16 -31 -15 -32 -17 -34
-92 -4 -144 3 -272 20 -352 6 -30 17 -97 24 -148 17 -129 18 -129 113 -44 18
16 20 27 15 132 -4 102 -7 116 -25 125 -51 26 -125 85 -125 99 0 9 38 7 58 -3
9 -5 24 -12 32 -15 8 -4 29 -15 45 -26 48 -32 55 -33 74 -16 10 9 22 16 28 16
6 0 13 7 17 15 3 8 14 15 24 15 11 0 25 7 32 15 7 8 20 15 30 15 10 0 20 6 23
14 8 21 11 222 3 234 -3 5 -20 17 -38 27 -46 23 -74 39 -89 51 -32 24 -64 31
-84 20z m113 -119 c104 -104 -1 -268 -129 -201 -59 30 -82 160 -36 201 59 54
111 54 165 0z"/>
<path d="M8618 5575 c-15 -19 -18 -45 -18 -129 0 -118 -4 -108 83 -173 62 -45
79 -35 54 34 -9 27 -17 60 -17 74 0 15 -7 46 -15 69 -8 23 -15 57 -15 74 0 34
-24 76 -43 76 -7 0 -20 -11 -29 -25z"/>
<path d="M8550 5275 c-7 -8 -18 -15 -25 -15 -7 0 -15 -7 -19 -15 -3 -8 -14
-15 -24 -15 -11 0 -25 -7 -32 -15 -7 -8 -19 -15 -26 -15 -8 0 -22 -8 -31 -18
-25 -24 -27 -228 -3 -236 8 -3 29 -15 45 -25 103 -68 141 -83 168 -68 12 6 26
18 30 25 4 6 16 12 26 12 10 0 24 7 31 15 7 8 20 15 29 15 9 0 27 9 40 19 23
17 24 23 19 97 -7 95 -26 164 -47 171 -42 14 -91 38 -91 44 0 4 -11 10 -25 13
-14 4 -25 11 -25 16 0 15 -26 12 -40 -5z m68 -114 c38 -33 54 -79 46 -135 -11
-72 -68 -109 -130 -86 -101 38 -122 153 -41 222 42 36 82 35 125 -1z"/>
<path d="M235 5258 c-2 -7 -6 -33 -9 -58 -3 -25 -10 -65 -15 -90 -6 -25 -10
-69 -11 -99 0 -29 -7 -80 -16 -113 -8 -33 -13 -63 -10 -65 7 -7 76 25 76 35 0
4 27 23 60 41 33 19 60 37 60 40 0 4 1 53 1 111 1 109 -5 140 -25 140 -12 0
-44 22 -77 53 -23 20 -28 21 -34 5z"/>
<path d="M5330 5248 c0 -13 18 -48 40 -78 21 -30 50 -78 64 -107 14 -28 29
-54 35 -57 5 -4 17 -30 26 -59 9 -28 25 -70 36 -92 40 -86 59 -226 55 -390 -5
-155 -27 -288 -62 -370 -41 -98 -107 -227 -130 -255 -25 -31 -64 -111 -64
-132 0 -15 19 -28 41 -28 5 0 9 11 9 24 0 16 17 42 48 74 26 27 60 71 74 98
54 100 98 195 98 212 0 5 7 23 15 38 8 16 15 37 15 46 0 9 7 45 17 80 23 89
23 378 0 466 -9 35 -17 74 -17 86 0 12 -7 31 -15 42 -8 10 -15 27 -15 37 0 11
-6 31 -14 45 -7 15 -24 50 -36 77 -13 28 -47 87 -76 131 -75 115 -144 168
-144 112z"/>
<path d="M8753 4897 c-11 -20 -110 -87 -127 -87 -12 0 -15 -23 -18 -117 -3
-115 -2 -119 22 -140 14 -13 29 -23 33 -23 5 0 19 -8 32 -17 12 -10 33 -25 45
-33 13 -8 30 -23 38 -32 9 -9 19 -15 24 -12 9 6 9 333 0 414 -5 40 -12 56 -24
58 -9 2 -20 -3 -25 -11z"/>
<path d="M380 4890 c0 -5 -11 -12 -25 -16 -14 -3 -25 -9 -25 -13 0 -6 -75 -43
-112 -55 -16 -5 -18 -20 -18 -126 0 -106 2 -121 18 -126 37 -13 81 -35 87 -44
3 -6 15 -10 26 -10 11 0 22 -6 25 -14 13 -34 64 -28 129 14 17 11 51 30 77 42
l48 23 -1 105 c0 107 -9 140 -41 140 -8 0 -19 5 -25 11 -12 12 -46 33 -80 48
-11 5 -24 15 -28 20 -8 14 -55 14 -55 1z m119 -125 c33 -32 36 -40 35 -90 0
-49 -4 -59 -34 -90 -29 -29 -41 -35 -77 -35 -91 0 -129 48 -117 144 6 41 15
59 44 88 34 34 39 36 75 28 23 -5 53 -23 74 -45z"/>
<path d="M8292 4874 c-24 -13 -46 -23 -50 -23 -33 5 -34 1 -27 -153 7 -162 17
-208 45 -208 9 0 31 -7 49 -16 35 -18 86 -11 95 12 3 8 14 14 25 14 10 0 21 7
25 15 3 8 13 15 23 15 10 1 28 9 41 19 20 18 22 27 22 128 0 59 -4 113 -8 119
-4 6 -17 14 -29 18 -13 4 -23 12 -23 17 0 5 -8 9 -19 9 -10 0 -24 7 -31 15 -7
8 -19 15 -27 15 -7 0 -16 7 -19 15 -8 21 -42 17 -92 -11z m133 -89 c40 -19 55
-51 55 -115 0 -42 -4 -52 -31 -74 -36 -30 -83 -35 -94 -8 -4 9 -9 53 -12 98
-5 77 -4 82 18 98 28 19 24 19 64 1z"/>
<path d="M171 4363 c2 -294 12 -326 78 -264 18 17 52 40 77 52 l44 23 0 122
c0 107 -2 122 -17 128 -35 13 -73 37 -73 47 0 5 -6 9 -14 9 -7 0 -25 11 -40
25 -53 49 -56 42 -55 -142z"/>
<path d="M610 4513 c-8 -3 -19 -12 -23 -19 -4 -8 -16 -14 -26 -14 -11 0 -21
-7 -25 -15 -3 -8 -14 -15 -24 -15 -11 0 -25 -7 -32 -15 -7 -8 -19 -15 -26 -15
-11 0 -14 -25 -14 -124 0 -109 2 -124 18 -130 9 -3 24 -10 32 -15 8 -5 22 -12
30 -16 17 -7 42 -22 81 -48 24 -16 56 -15 69 3 3 4 25 13 50 21 l45 14 -4 160
c-4 171 -13 205 -55 205 -11 0 -30 7 -40 15 -21 16 -31 17 -56 8z m4 -116 c22
-16 35 -161 17 -195 -17 -33 -65 -29 -102 7 -23 24 -29 38 -29 75 0 59 16 91
54 110 38 19 38 19 60 3z"/>
<path d="M8535 4499 c-4 -5 -17 -15 -28 -20 -12 -5 -35 -18 -52 -29 -16 -11
-40 -24 -52 -30 -13 -5 -23 -14 -24 -20 0 -5 -1 -53 -1 -105 0 -52 1 -100 1
-105 1 -6 11 -15 24 -20 12 -6 36 -19 52 -30 17 -11 40 -24 52 -29 11 -5 24
-15 28 -20 8 -14 75 -14 75 -1 0 5 11 12 25 16 14 3 25 10 25 14 0 9 49 30 90
39 25 6 25 7 28 134 2 81 -1 127 -8 127 -18 0 -110 43 -110 52 0 4 -9 8 -20 8
-11 0 -23 7 -26 15 -7 17 -69 21 -79 4z m86 -89 c46 -24 59 -51 59 -122 0 -43
-4 -54 -33 -83 -60 -60 -118 -56 -178 13 -27 31 -30 40 -25 76 10 58 26 87 65
113 42 28 61 29 112 3z"/>
<path d="M8215 4285 c-5 -124 -4 -180 4 -189 8 -10 8 -16 -3 -25 -15 -13 -23
-47 -37 -161 -5 -41 -12 -90 -15 -107 -5 -29 -4 -33 15 -33 19 0 39 -8 81 -32
8 -4 27 -13 43 -19 15 -6 27 -15 27 -20 0 -5 11 -9 25 -9 14 0 25 5 25 10 0 6
10 15 23 20 12 6 36 19 52 30 30 20 43 26 70 35 12 3 15 26 15 121 0 108 -2
117 -22 135 -13 10 -30 18 -39 19 -9 0 -22 7 -29 15 -7 8 -18 15 -26 15 -7 0
-17 8 -23 17 -11 20 -87 25 -99 6 -10 -15 -54 -21 -59 -7 -2 6 15 23 37 39
l40 28 0 82 c0 45 3 96 6 112 5 25 0 36 -25 62 -17 18 -41 31 -54 31 l-24 0
-8 -175z m210 -270 c35 -20 44 -32 54 -70 14 -54 -1 -100 -44 -133 -31 -25
-103 -30 -123 -10 -15 15 -16 110 -2 160 9 31 50 78 68 78 3 0 24 -11 47 -25z"/>
<path d="M8775 4136 c-12 -6 -39 -26 -62 -43 -22 -18 -46 -33 -52 -33 -7 0
-21 -9 -33 -19 -18 -18 -20 -31 -20 -125 1 -58 1 -112 1 -120 1 -8 12 -17 26
-20 14 -4 25 -11 25 -16 0 -6 5 -10 12 -10 6 0 22 -9 34 -21 29 -27 44 -17 44
31 0 21 4 51 10 65 5 14 12 59 15 98 3 40 11 102 17 138 13 78 10 89 -17 75z"/>
<path d="M380 4123 c-8 -3 -19 -12 -23 -19 -4 -8 -16 -14 -25 -14 -10 0 -24
-6 -30 -12 -7 -7 -32 -20 -55 -29 l-42 -17 -3 -58 c-2 -32 4 -90 13 -130 15
-66 19 -73 48 -84 18 -6 39 -16 47 -21 8 -5 27 -14 43 -20 15 -6 27 -15 27
-20 0 -13 44 -11 57 2 12 12 46 33 80 48 11 5 24 15 28 20 3 6 14 11 24 11 29
0 39 39 38 143 l-2 98 -50 30 c-27 16 -57 32 -65 35 -8 4 -22 13 -30 20 -19
16 -60 25 -80 17z m57 -84 c43 -16 92 -69 99 -106 8 -43 -10 -86 -53 -123 -58
-52 -114 -34 -149 47 -27 63 -13 163 22 163 8 0 17 7 20 15 7 18 23 19 61 4z"/>
<path d="M729 4082 c-9 -9 -28 -26 -42 -36 -27 -19 -27 -20 -27 -138 0 -104 2
-120 18 -126 9 -4 41 -23 70 -42 91 -61 56 -83 -45 -29 -32 17 -59 35 -61 39
-4 10 -64 -20 -75 -37 -4 -7 -17 -13 -27 -13 -11 0 -20 -4 -20 -10 0 -5 -11
-12 -24 -16 -49 -12 -58 -34 -58 -142 0 -106 11 -142 42 -142 10 0 22 -5 25
-11 4 -5 17 -15 28 -20 31 -14 62 -33 81 -48 13 -11 19 -11 32 0 19 15 50 34
81 48 11 5 24 15 28 20 3 6 14 11 24 11 37 0 48 31 56 147 6 99 5 114 -10 119
-14 6 -14 9 -2 23 15 17 12 66 -11 161 -6 25 -16 88 -23 140 -6 52 -13 100
-16 107 -7 17 -24 15 -44 -5z m-55 -443 c30 -24 44 -53 56 -114 15 -72 -31
-125 -108 -125 -38 0 -50 6 -83 39 -34 34 -39 44 -39 85 0 59 11 79 58 111 45
31 81 32 116 4z"/>
<path d="M8927 3985 c-4 -22 -7 -50 -7 -63 0 -12 -9 -41 -20 -65 -11 -24 -22
-74 -25 -116 -3 -41 -9 -79 -14 -85 -10 -13 -47 -164 -56 -226 -3 -25 -19 -76
-34 -115 -16 -38 -32 -90 -36 -114 -4 -24 -15 -58 -25 -75 -10 -17 -25 -56
-34 -86 -8 -30 -22 -73 -30 -95 -8 -22 -15 -48 -16 -58 0 -35 -75 -207 -90
-207 -5 0 -17 -24 -25 -54 -9 -30 -22 -60 -30 -66 -8 -6 -21 -35 -29 -65 -9
-29 -22 -58 -30 -64 -8 -7 -26 -35 -41 -64 -38 -76 -98 -177 -151 -256 -17
-25 -39 -60 -48 -76 -39 -70 -101 -158 -130 -184 -14 -14 -26 -29 -26 -34 0
-5 -10 -20 -22 -32 -13 -12 -42 -48 -65 -81 -23 -32 -72 -90 -109 -129 -36
-38 -104 -114 -151 -167 -46 -54 -88 -98 -94 -98 -5 0 -37 -28 -72 -61 -120
-118 -308 -273 -367 -304 -19 -10 -50 -31 -68 -46 -45 -39 -62 -38 -62 6 0 31
-3 35 -25 35 -15 0 -61 -24 -106 -55 -44 -30 -84 -55 -88 -55 -4 0 -25 -13
-47 -30 -21 -16 -43 -30 -48 -30 -5 0 -17 -6 -25 -14 -13 -11 -94 -57 -168
-94 -10 -5 -38 -20 -63 -33 -69 -35 -71 -36 -140 -67 -99 -46 -176 -79 -250
-107 -25 -9 -58 -23 -75 -30 -16 -7 -63 -23 -102 -35 -40 -12 -75 -26 -78 -31
-4 -5 -23 -9 -43 -9 -20 0 -50 -7 -66 -15 -32 -17 -84 -31 -161 -45 -27 -5
-59 -14 -70 -19 -28 -12 -117 -31 -195 -40 -36 -4 -87 -13 -115 -19 -73 -16
-191 -31 -350 -43 -190 -14 -707 -4 -800 16 -38 8 -88 15 -111 15 -23 0 -54 4
-70 10 -16 5 -63 14 -104 20 -96 13 -181 30 -201 40 -9 5 -34 11 -55 15 -53 8
-145 34 -168 46 -10 6 -39 14 -65 19 -45 8 -189 54 -224 72 -9 4 -39 15 -65
24 -26 9 -67 25 -92 36 -25 11 -61 26 -80 35 -156 68 -343 162 -363 182 -6 6
-17 11 -25 11 -8 0 -34 14 -59 30 -24 17 -47 30 -51 30 -4 0 -25 14 -46 30
-22 17 -43 30 -46 30 -4 0 -45 25 -90 55 -45 30 -93 55 -106 55 -21 0 -24 -5
-24 -35 0 -19 -4 -35 -9 -35 -24 0 -65 23 -83 45 -11 14 -24 25 -29 25 -12 0
-209 153 -279 217 -93 84 -193 177 -220 204 -24 25 -175 189 -195 213 -5 6
-40 45 -76 86 -36 41 -94 116 -128 165 -34 50 -77 110 -96 135 -19 25 -47 65
-62 90 -15 25 -37 58 -50 73 -13 16 -23 35 -23 42 0 8 -13 30 -30 48 -16 19
-30 39 -30 44 0 6 -12 28 -26 49 -15 21 -33 58 -41 82 -8 23 -23 47 -33 52
-10 5 -24 27 -30 47 -7 21 -18 45 -25 53 -7 8 -16 31 -20 50 -4 19 -18 55 -31
80 -13 25 -24 48 -24 52 0 4 -11 31 -24 60 -13 29 -34 79 -45 111 -12 32 -27
68 -35 80 -7 12 -19 45 -26 72 -7 28 -23 72 -36 99 -13 28 -24 58 -24 68 0 28
-21 111 -36 139 -15 30 -44 161 -44 202 0 15 -9 48 -21 73 -11 26 -24 85 -30
137 -5 51 -14 102 -19 115 -6 13 -10 34 -10 47 0 32 -16 40 -29 16 -15 -28
-14 -103 3 -142 8 -19 14 -62 13 -96 0 -47 4 -68 18 -83 14 -15 16 -29 11 -60
-5 -30 -1 -49 14 -77 13 -25 18 -47 14 -65 -4 -20 1 -36 15 -54 13 -17 21 -41
21 -65 0 -21 4 -40 9 -43 4 -3 11 -27 14 -52 3 -29 11 -51 22 -56 11 -7 15
-17 10 -37 -4 -19 0 -35 14 -53 11 -14 18 -33 15 -44 -3 -11 3 -30 16 -43 11
-14 18 -32 15 -41 -3 -10 1 -23 10 -30 8 -7 15 -23 15 -35 0 -12 8 -33 19 -46
10 -13 16 -30 13 -38 -3 -8 2 -19 10 -25 8 -6 18 -28 22 -48 4 -21 11 -38 16
-38 5 0 13 -12 16 -27 4 -16 13 -36 21 -45 8 -9 12 -21 9 -27 -4 -5 3 -19 15
-30 12 -11 18 -24 15 -29 -3 -6 1 -17 9 -25 8 -9 15 -25 15 -37 0 -13 8 -24
20 -27 14 -4 20 -14 20 -33 0 -16 7 -30 15 -34 8 -3 15 -14 15 -24 0 -10 5
-23 10 -28 14 -14 58 -92 71 -126 6 -16 15 -28 19 -28 4 0 18 -19 30 -42 12
-24 28 -47 36 -51 8 -4 14 -16 14 -26 0 -9 14 -33 30 -51 17 -18 30 -37 30
-42 0 -5 9 -19 21 -31 11 -12 39 -50 62 -84 23 -35 45 -63 49 -63 3 0 17 -17
29 -37 25 -41 45 -66 98 -122 18 -20 50 -56 70 -81 106 -131 330 -355 441
-440 18 -14 45 -36 60 -50 48 -44 74 -65 113 -89 20 -12 37 -26 37 -29 0 -4
28 -26 63 -49 34 -23 72 -51 84 -62 12 -12 26 -21 31 -21 5 0 24 -13 42 -30
18 -16 41 -30 50 -30 8 0 23 -8 32 -17 28 -30 47 -43 61 -43 8 0 20 -6 26 -14
11 -13 40 -30 123 -73 15 -8 30 -18 33 -24 4 -5 14 -9 24 -9 10 0 24 -7 31
-15 7 -8 21 -15 31 -15 10 0 23 -9 29 -20 6 -11 20 -20 31 -20 11 0 27 -7 35
-15 8 -8 21 -12 29 -9 7 3 18 -4 25 -15 6 -12 21 -21 35 -21 13 0 27 -4 30
-10 3 -5 14 -10 24 -10 10 0 28 -9 41 -20 13 -11 36 -20 52 -20 15 0 28 -4 28
-10 0 -5 12 -13 28 -16 15 -4 36 -13 47 -20 11 -8 29 -14 41 -14 12 0 27 -7
34 -15 7 -9 19 -14 27 -11 8 3 27 -4 43 -15 17 -13 35 -19 45 -15 10 3 28 -2
43 -15 17 -13 34 -18 48 -15 14 4 29 0 39 -10 8 -9 35 -18 58 -21 23 -3 49
-12 58 -20 11 -9 26 -12 44 -7 19 5 35 1 56 -15 21 -16 38 -21 57 -17 18 4 40
-1 65 -14 28 -15 48 -19 73 -14 24 4 42 1 59 -10 16 -11 55 -18 106 -21 45 -3
88 -10 95 -16 21 -18 202 -5 217 15 22 29 116 37 457 36 340 -1 463 -11 454
-34 -10 -25 183 -35 237 -12 19 8 61 14 94 13 42 0 69 5 87 17 19 12 36 15 61
11 25 -5 45 -1 73 14 26 14 49 19 69 15 22 -4 37 0 54 15 18 16 32 20 56 15
22 -4 35 -1 44 10 8 9 28 16 45 16 17 0 44 9 61 20 16 11 38 17 50 14 12 -3
31 3 47 15 15 12 33 18 42 15 9 -3 28 2 44 12 15 10 34 17 43 16 9 -2 22 4 29
13 7 8 22 15 34 15 12 0 31 7 42 15 10 8 29 15 40 15 12 0 27 7 34 15 7 8 23
15 36 15 12 0 29 7 37 15 8 7 26 17 41 21 14 3 29 10 32 15 3 5 16 9 29 9 14
0 29 9 35 20 8 15 17 19 31 15 12 -4 21 -1 25 9 3 9 17 16 30 16 13 0 28 9 34
20 6 11 21 20 34 20 13 0 26 7 30 15 3 8 14 15 24 15 10 0 23 5 29 11 13 13
85 53 126 70 15 6 27 15 27 19 0 4 19 18 43 30 23 12 46 28 50 36 4 8 16 14
26 14 9 0 33 14 51 30 18 17 38 30 43 30 4 0 29 17 55 38 26 21 64 49 84 63
21 13 38 27 38 31 0 3 17 17 38 29 38 24 64 45 112 89 15 14 42 36 60 50 102
78 440 414 440 437 0 3 10 16 23 28 12 12 39 42 59 66 20 24 46 55 58 68 11
13 20 27 20 31 0 4 20 29 45 56 24 27 45 53 45 58 0 10 61 89 72 94 5 2 8 11
8 20 0 10 14 30 30 46 17 16 30 37 30 47 0 10 6 22 14 26 8 4 24 27 36 51 12
23 26 44 30 47 5 3 15 18 23 33 41 81 60 113 68 118 5 3 9 13 9 23 0 10 7 24
15 31 8 7 15 20 15 29 0 9 9 24 20 34 11 9 20 26 20 37 0 11 5 20 10 20 6 0
10 11 10 25 0 14 8 29 20 35 11 6 20 21 20 35 0 13 5 27 10 30 6 3 10 14 10
24 0 10 9 30 20 44 11 14 20 34 20 45 0 11 7 25 15 32 9 7 13 20 10 27 -3 8 4
26 15 40 11 14 20 36 20 48 0 12 7 28 15 35 9 7 13 21 10 30 -3 10 2 25 11 34
8 9 17 32 18 50 2 19 11 42 20 52 10 10 15 25 12 37 -2 11 4 36 15 56 10 19
19 48 19 62 0 15 7 32 16 40 11 9 14 22 10 44 -5 24 -1 39 15 59 16 20 20 35
15 58 -4 22 0 40 15 64 15 25 18 42 13 69 -4 25 -1 42 11 61 12 18 18 52 20
106 2 44 8 85 14 91 12 12 13 97 2 167 l-7 45 -7 -40z"/>
<path d="M8156 3738 c-3 -7 -9 -29 -16 -48 -6 -19 -15 -57 -20 -85 -4 -27 -13
-65 -19 -82 -6 -18 -16 -48 -22 -65 -6 -18 -15 -53 -20 -78 -5 -25 -13 -54
-18 -65 -4 -11 -16 -37 -25 -58 -9 -21 -16 -45 -16 -55 0 -9 -7 -26 -15 -36
-8 -11 -15 -28 -15 -37 0 -15 -15 -52 -42 -99 -4 -8 -11 -22 -14 -30 -3 -8
-12 -27 -20 -42 -8 -14 -14 -35 -14 -46 0 -11 -7 -22 -15 -26 -8 -3 -15 -11
-15 -17 0 -11 -56 -128 -80 -169 -60 -100 -90 -153 -95 -170 -3 -11 -11 -20
-16 -20 -5 0 -14 -10 -19 -22 -13 -29 -28 -54 -62 -99 -16 -20 -28 -41 -28
-47 0 -6 -3 -12 -7 -14 -5 -1 -21 -22 -37 -46 -17 -24 -40 -53 -53 -65 -12
-12 -23 -27 -23 -33 0 -6 -15 -26 -32 -45 -18 -19 -51 -56 -73 -83 -59 -72
-126 -146 -162 -182 -18 -17 -33 -35 -33 -40 1 -10 109 -64 128 -64 7 0 12 5
12 10 0 6 10 15 23 21 33 15 67 35 80 48 6 6 18 11 27 11 24 0 51 37 45 63 -3
12 -2 58 3 102 8 63 7 83 -4 96 -17 18 -9 29 21 29 11 0 30 7 40 15 43 33 127
85 139 85 9 0 15 30 21 103 4 56 7 114 6 130 -1 17 4 27 13 27 8 0 16 7 20 15
3 8 12 15 20 15 8 0 19 6 23 13 4 7 26 24 48 37 22 13 46 30 53 37 7 7 17 13
21 13 7 0 21 129 24 215 1 24 12 39 53 73 29 23 58 42 63 42 6 0 11 3 11 8 0
4 20 18 45 32 l45 25 0 111 c0 106 -1 113 -25 135 -13 13 -25 27 -25 32 0 11
38 9 45 -3 7 -12 45 -13 45 -2 0 5 10 14 23 21 12 6 36 20 52 31 17 10 45 27
63 36 l32 16 0 117 0 118 -27 13 c-16 8 -49 31 -75 52 -51 42 -57 44 -62 26z"/>
<path d="M8535 3729 c-16 -10 -40 -23 -52 -28 -11 -5 -24 -15 -28 -20 -3 -6
-14 -11 -23 -11 -9 -1 -26 -8 -37 -18 -18 -15 -20 -29 -20 -122 0 -93 2 -107
20 -122 11 -10 28 -17 38 -18 10 0 20 -7 23 -15 4 -8 15 -15 25 -15 11 0 22
-7 25 -15 4 -8 12 -15 19 -15 7 0 18 -7 25 -15 14 -17 50 -20 50 -5 0 6 11 10
25 10 19 0 26 6 30 28 4 15 13 42 21 60 8 18 14 45 14 61 0 16 6 44 14 62 8
19 16 58 17 88 l4 53 -74 39 c-40 22 -76 39 -80 38 -3 0 -19 -9 -36 -20z m55
-94 c17 -21 4 -133 -21 -174 -25 -41 -43 -47 -84 -28 -29 14 -35 23 -41 62 -3
26 -2 61 3 78 16 58 112 100 143 62z"/>
<path d="M233 3725 c-3 -9 2 -35 11 -58 9 -24 16 -54 16 -69 0 -14 7 -45 15
-68 8 -23 15 -55 15 -71 0 -69 44 -102 75 -56 11 18 14 49 12 132 l-2 109 -55
38 c-30 21 -56 42 -58 48 -5 15 -22 12 -29 -5z"/>
<path d="M5380 3656 c0 -11 277 -278 434 -417 27 -24 97 -89 154 -144 58 -55
123 -116 144 -135 21 -19 67 -62 101 -95 161 -155 234 -221 260 -232 15 -7 27
-17 27 -23 0 -15 32 -12 58 6 42 29 98 4 189 -83 22 -21 93 -87 158 -148 65
-60 147 -138 182 -172 34 -35 69 -63 76 -63 7 0 20 -9 30 -20 17 -21 61 -27
72 -10 6 10 -78 97 -240 247 -244 224 -351 328 -371 359 -25 37 -48 29 -85
-28 -40 -63 -67 -71 -91 -30 -9 15 -41 50 -70 77 -29 27 -125 117 -213 200
-171 161 -241 226 -319 296 -27 24 -72 67 -100 94 -29 28 -104 98 -167 157
-178 165 -229 202 -229 164z"/>
<path d="M3577 3571 c-42 -43 -77 -83 -77 -89 0 -6 -10 -14 -22 -18 -33 -10
-118 -103 -125 -135 -4 -20 -13 -31 -30 -35 -34 -9 -46 -37 -33 -82 5 -20 10
-69 10 -108 l0 -70 46 -25 c52 -27 68 -37 106 -63 32 -21 92 -16 102 9 3 8 14
15 24 15 10 0 23 5 29 11 13 13 51 36 74 45 13 4 15 24 14 114 -2 114 -10 140
-47 140 -10 0 -21 7 -24 15 -4 8 -13 15 -21 15 -8 0 -35 16 -60 35 -52 40 -56
41 -73 20 -7 -8 -23 -15 -36 -15 -15 0 -24 -6 -24 -15 0 -15 -21 -21 -33 -9
-6 6 57 54 71 54 4 0 13 9 20 20 14 24 54 26 72 5 7 -8 21 -15 31 -15 10 0 21
-5 24 -11 4 -5 17 -15 28 -20 31 -14 62 -33 81 -48 13 -11 19 -11 32 0 20 17
45 31 114 65 30 15 61 31 67 37 18 13 0 42 -34 56 -57 24 -85 44 -154 112 -39
38 -72 69 -73 69 -2 0 -37 -35 -79 -79z m122 -130 c8 -5 11 -16 8 -25 -5 -14
-11 -15 -27 -6 -11 6 -20 17 -20 25 0 17 18 19 39 6z m-124 -188 c89 -42 61
-200 -41 -233 -67 -22 -164 36 -164 97 0 48 43 103 105 136 39 21 56 21 100 0z"/>
<path d="M5271 3586 c-8 -10 -9 -26 -2 -57 6 -24 11 -58 11 -74 0 -31 28 -65
54 -65 7 0 19 -7 26 -15 7 -8 17 -15 22 -15 11 0 72 -42 76 -52 5 -12 40 -10
47 2 3 6 15 10 26 10 34 0 20 26 -43 81 -35 30 -95 87 -134 126 -58 59 -74 70
-83 59z"/>
<path d="M5210 3552 c0 -16 -97 -82 -180 -122 -115 -55 -146 -80 -102 -80 11
0 43 -12 71 -26 46 -24 51 -25 66 -10 9 9 23 16 31 16 8 0 14 4 14 10 0 5 25
21 55 35 30 15 59 34 64 44 5 9 11 43 12 76 2 50 0 60 -14 63 -9 2 -17 -1 -17
-6z"/>
<path d="M860 3481 c0 -38 5 -73 10 -76 16 -10 11 -25 -8 -25 -11 0 -27 -9
-37 -20 -10 -11 -24 -20 -30 -20 -7 0 -15 -7 -19 -15 -3 -8 -14 -15 -24 -15
-10 0 -23 -5 -29 -11 -6 -6 -22 -17 -35 -23 -22 -11 -23 -16 -23 -130 l0 -119
34 -18 c19 -10 39 -23 45 -29 5 -5 18 -10 28 -10 9 0 21 -6 25 -12 19 -30 48
-36 83 -18 68 35 115 58 138 64 26 9 30 48 8 93 -31 65 -65 152 -73 193 -3 14
-17 37 -30 51 -16 17 -21 29 -14 33 14 9 14 49 0 63 -5 5 -13 32 -17 58 -11
78 -32 69 -32 -14z m-1 -293 c41 -90 47 -125 25 -149 -33 -37 -104 -20 -142
35 -46 68 -9 176 60 176 26 0 32 -7 57 -62z"/>
<path d="M3970 3395 c0 -9 9 -15 25 -15 14 0 28 -7 31 -15 4 -8 14 -15 24 -15
10 0 23 -7 30 -15 7 -8 21 -15 31 -15 11 0 19 -4 19 -9 0 -20 41 -19 60 1 24
26 17 38 -23 38 -18 1 -43 7 -57 15 -14 8 -35 14 -46 15 -12 0 -27 7 -34 15
-7 8 -23 15 -36 15 -15 0 -24 -6 -24 -15z"/>
<path d="M3919 3364 c-7 -9 -22 -20 -34 -26 -11 -5 -31 -16 -45 -24 -14 -8
-38 -23 -55 -33 l-30 -18 -3 -113 c-2 -102 -1 -115 17 -131 11 -11 27 -19 34
-19 8 0 20 -7 27 -15 7 -8 18 -15 26 -15 7 0 19 -6 26 -12 31 -29 52 -35 78
-24 14 6 29 16 33 23 4 7 16 13 26 13 11 0 21 7 25 15 3 8 13 15 23 15 10 1
27 8 38 18 18 15 20 28 19 127 -2 139 -1 135 -18 135 -8 0 -21 6 -28 13 -7 7
-24 18 -38 25 -40 19 -64 36 -73 50 -11 17 -32 15 -48 -4z m91 -122 c62 -46
72 -131 22 -186 -56 -59 -128 -58 -187 2 -31 32 -35 42 -35 88 0 48 3 54 41
89 39 35 45 37 88 31 25 -3 57 -14 71 -24z"/>
<path d="M375 3360 c-3 -5 -15 -10 -25 -10 -28 0 -34 -18 -18 -58 24 -58 39
-104 49 -145 5 -21 13 -45 18 -55 14 -28 33 -85 38 -115 3 -15 9 -30 14 -33 7
-4 54 20 69 36 14 14 71 50 80 50 6 0 10 40 10 108 0 116 -6 131 -57 146 -13
4 -23 12 -23 17 0 5 -7 9 -16 9 -9 0 -33 14 -54 30 -38 30 -74 39 -85 20z"/>
<path d="M5240 3360 c0 -5 -11 -12 -24 -16 -14 -3 -27 -12 -30 -20 -3 -8 -14
-14 -25 -14 -11 0 -21 -4 -23 -8 -1 -5 -16 -15 -33 -23 l-30 -14 -3 -115 c-3
-109 -2 -115 20 -132 13 -10 30 -18 39 -18 9 0 19 -7 23 -15 3 -8 14 -15 25
-15 11 0 24 -6 28 -12 25 -40 63 -37 138 12 17 11 39 24 50 30 49 23 51 30 52
140 1 122 -2 140 -26 140 -10 0 -24 6 -30 14 -7 8 -23 17 -36 20 -14 4 -25 11
-25 16 0 6 -6 10 -14 10 -7 0 -19 7 -26 15 -14 17 -50 20 -50 5z m87 -101 c42
-14 68 -72 60 -136 -13 -115 -164 -151 -231 -55 -47 68 -30 150 40 190 24 14
92 15 131 1z"/>
<path d="M8326 3355 c-3 -8 -15 -15 -26 -15 -11 0 -20 -4 -20 -9 0 -5 -26 -22
-57 -38 l-58 -29 -3 -114 c-3 -109 -2 -115 20 -132 13 -10 31 -18 41 -18 10 0
20 -7 23 -15 4 -8 14 -15 25 -15 10 0 22 -6 26 -12 16 -26 47 -36 78 -25 17 6
32 13 35 17 9 12 73 40 92 40 31 0 21 -15 -39 -58 -95 -67 -93 -64 -93 -141 0
-37 -3 -89 -6 -115 -5 -37 -4 -46 8 -46 21 0 48 32 48 57 0 11 7 26 15 33 8 7
15 23 15 35 0 12 7 28 15 35 8 7 15 22 15 34 0 11 7 30 15 40 8 11 15 26 15
35 0 8 7 22 15 31 12 13 13 23 6 42 -8 22 -6 29 16 48 20 17 24 28 19 52 -6
30 10 70 45 113 21 26 33 91 18 100 -16 11 -31 -9 -38 -52 -4 -26 -12 -39 -24
-41 -14 -3 -18 2 -16 20 4 29 -20 68 -42 68 -9 0 -22 6 -28 14 -7 8 -23 17
-36 20 -14 4 -25 11 -25 16 0 6 -6 10 -14 10 -7 0 -19 7 -26 15 -7 8 -20 15
-30 15 -10 0 -20 -7 -24 -15z m83 -99 c85 -44 59 -197 -40 -235 -35 -13 -104
20 -130 63 -64 105 58 229 170 172z"/>
<path d="M4781 3335 c-18 -8 -46 -15 -61 -15 -15 0 -33 -7 -40 -15 -7 -8 -18
-15 -26 -15 -25 0 -34 -39 -34 -148 0 -95 2 -110 18 -116 23 -9 61 -31 75 -45
6 -6 19 -11 29 -11 10 0 21 -6 24 -14 3 -8 18 -17 33 -21 34 -7 64 6 156 66
17 10 38 22 48 25 16 6 17 19 15 117 l-3 111 -57 39 c-32 20 -58 42 -58 47 0
15 -81 11 -119 -5z m111 -109 c24 -10 40 -27 52 -55 18 -39 18 -40 -3 -75 -51
-82 -107 -100 -187 -61 -57 28 -61 36 -55 110 2 39 18 53 82 75 67 23 69 23
111 6z"/>
<path d="M4223 3292 l-32 -27 2 -115 c2 -101 4 -117 22 -132 11 -10 25 -17 32
-18 6 0 18 -6 25 -13 7 -7 20 -16 28 -21 8 -4 31 -15 50 -25 35 -19 64 -13 83
17 4 6 16 12 26 12 10 0 24 7 31 15 7 8 18 15 24 15 6 0 21 8 33 18 20 15 22
27 25 134 1 74 -2 122 -8 128 -6 6 -49 13 -95 15 -46 3 -102 9 -124 15 -62 15
-88 12 -122 -18z m184 -103 c74 -13 93 -28 93 -74 0 -48 -58 -95 -118 -95 -54
0 -117 31 -126 62 -12 47 -6 76 20 97 31 24 44 25 131 10z"/>
<path d="M5556 3295 c-10 -8 -24 -16 -30 -18 -7 -2 -11 -46 -11 -123 0 -107 2
-121 20 -136 11 -10 28 -17 38 -18 10 0 20 -7 23 -15 4 -8 12 -15 19 -15 8 0
20 -6 27 -13 7 -7 25 -18 40 -24 23 -10 31 -9 63 13 20 13 42 24 50 24 8 0 16
4 20 9 3 5 19 12 35 16 45 10 38 35 -27 92 -32 28 -97 89 -146 137 -48 47 -91
86 -95 86 -4 0 -16 -7 -26 -15z m101 -208 c34 -32 35 -47 2 -47 -35 0 -69 30
-69 61 0 35 19 31 67 -14z"/>
<path d="M3108 3106 c-71 -73 -128 -139 -128 -148 0 -9 -10 -18 -22 -22 -13
-3 -88 -70 -167 -150 -122 -122 -143 -147 -132 -160 7 -8 26 -18 42 -21 16 -4
31 -11 34 -16 4 -5 15 -9 25 -9 10 0 23 -8 29 -17 6 -11 22 -17 46 -17 24 0
40 6 46 17 6 9 16 17 23 17 8 0 19 7 26 15 7 8 20 15 29 15 9 1 28 11 43 23
25 21 27 27 30 131 2 102 1 109 -20 126 -34 28 -28 44 14 37 34 -6 84 8 84 24
0 4 12 12 28 18 15 6 45 22 67 35 39 24 40 25 47 96 3 39 9 87 13 106 11 60
-23 39 -157 -100z m-160 -393 c-7 -16 -21 -36 -32 -45 -24 -20 -66 -24 -66 -7
0 18 70 79 90 79 17 0 18 -3 8 -27z"/>
<path d="M1010 2963 c-19 -19 -44 -39 -55 -44 -11 -5 -33 -17 -50 -27 l-30
-19 -3 -111 c-3 -108 -2 -113 20 -123 37 -16 83 -42 88 -48 7 -9 42 -30 68
-41 23 -10 35 -6 102 30 39 21 80 26 80 10 0 -12 -50 -59 -63 -60 -5 0 -20 -9
-35 -20 -25 -20 -25 -24 -26 -137 l-1 -116 28 -9 c15 -6 27 -14 27 -19 0 -5 8
-9 19 -9 10 0 24 -7 31 -15 7 -8 19 -15 27 -15 7 0 16 -7 19 -15 4 -8 18 -15
34 -15 15 0 33 7 40 15 7 8 17 15 22 15 5 0 16 7 24 15 9 8 24 15 34 15 10 0
22 5 25 10 7 11 55 14 55 4 0 -15 -70 -69 -135 -105 l-30 -16 0 -118 c0 -122
0 -122 45 -139 8 -4 29 -15 45 -26 17 -11 40 -24 53 -30 12 -5 22 -14 22 -20
0 -11 37 -14 42 -2 6 13 67 52 81 52 8 0 20 7 27 15 7 8 19 15 26 15 8 0 23 9
34 20 26 26 36 25 56 -5 9 -14 24 -25 34 -25 10 0 23 -7 30 -15 7 -8 17 -15
23 -15 18 0 87 -33 87 -42 0 -14 37 -9 50 7 7 8 19 15 26 15 8 0 14 4 14 9 0
5 12 14 28 20 80 32 87 41 93 127 3 43 9 100 13 127 6 37 4 47 -7 47 -8 0 -76
-63 -151 -140 -75 -77 -143 -140 -150 -140 -7 0 -24 16 -37 35 -13 19 -32 38
-42 41 -10 3 -26 18 -35 34 -14 23 -85 108 -127 154 -6 6 -24 29 -40 51 -16
22 -39 49 -50 60 -11 11 -26 32 -34 47 -8 15 -21 36 -30 46 -9 10 -20 25 -26
34 -5 9 -33 49 -60 90 -28 40 -59 90 -70 112 -11 21 -28 41 -37 44 -11 2 -18
14 -18 28 0 14 -10 41 -23 62 -13 20 -45 82 -71 137 -65 135 -83 169 -93 172
-4 1 -24 -14 -43 -34z m13 -175 c53 -71 72 -133 43 -144 -29 -11 -81 12 -104
46 -30 45 -37 76 -23 106 16 36 54 32 84 -8z m214 -371 c21 -16 73 -113 73
-136 0 -33 -41 -37 -92 -9 -38 20 -44 29 -52 71 -12 61 3 98 36 90 13 -3 29
-10 35 -16z m249 -356 c51 -37 70 -59 89 -104 19 -45 19 -52 -1 -71 -10 -10
-33 -16 -65 -16 -42 0 -55 5 -84 33 -29 26 -37 41 -42 83 -5 47 -3 53 23 77
16 15 32 27 35 27 3 0 24 -13 45 -29z"/>
<path d="M5878 2973 c-39 -41 -56 -53 -70 -53 -9 0 -18 -6 -21 -14 -3 -8 -16
-16 -29 -18 -22 -3 -23 -6 -26 -124 l-3 -122 26 -6 c14 -4 25 -11 25 -16 0 -6
8 -10 19 -10 10 0 24 -7 31 -15 7 -8 18 -15 26 -15 7 0 17 -7 22 -17 6 -10 22
-16 41 -16 17 0 39 7 49 16 10 10 23 17 29 17 6 0 16 7 23 15 7 8 20 15 29 15
9 1 29 11 44 24 22 18 30 36 39 90 l11 67 -34 31 c-19 17 -67 62 -106 99 -76
72 -97 81 -125 52z m17 -113 c24 0 124 -101 130 -132 9 -39 -15 -73 -60 -88
-51 -17 -98 -5 -140 34 -27 26 -35 41 -35 69 0 63 45 134 78 122 8 -3 20 -5
27 -5z"/>
<path d="M590 2965 c-7 -8 -21 -15 -31 -15 -11 0 -19 -4 -19 -9 0 -5 -12 -11
-26 -13 -35 -4 -53 -32 -36 -55 6 -10 15 -25 18 -33 16 -43 63 -150 75 -170 5
-8 12 -22 15 -30 3 -8 12 -28 20 -43 7 -16 14 -35 14 -43 0 -18 46 -19 57 -1
10 15 54 45 106 72 l37 20 0 122 c0 114 -1 123 -19 123 -10 0 -24 7 -31 15 -7
8 -21 15 -32 15 -10 0 -21 6 -24 14 -3 8 -16 17 -30 20 -13 4 -24 11 -24 16 0
16 -56 12 -70 -5z m130 -112 c29 -28 36 -55 32 -129 -3 -47 -39 -54 -72 -14
-28 32 -60 112 -60 148 0 34 60 31 100 -5z"/>
<path d="M3245 2969 c-4 -5 -17 -15 -28 -20 -34 -15 -68 -36 -80 -48 -6 -6
-19 -11 -29 -11 -16 0 -18 -11 -18 -123 l0 -123 43 -23 c23 -12 56 -31 72 -41
69 -45 73 -46 123 -19 26 13 49 27 50 32 2 4 15 7 28 7 14 0 27 7 30 15 4 8
13 15 21 15 13 0 15 10 9 61 -3 34 -6 92 -6 128 l0 66 -48 23 c-81 40 -102 53
-102 63 0 13 -57 12 -65 -2z m118 -115 c69 -66 43 -166 -55 -210 -33 -15 -43
-15 -78 -4 -57 19 -73 41 -78 110 -4 59 -4 61 36 100 35 36 45 40 88 40 42 0
54 -5 87 -36z"/>
<path d="M3685 2969 c-4 -5 -17 -15 -28 -20 -12 -5 -35 -18 -52 -29 -16 -11
-40 -24 -52 -30 -21 -9 -23 -16 -23 -90 0 -49 -6 -95 -15 -117 -19 -46 -19
-46 10 -39 18 5 49 -5 108 -33 88 -42 144 -60 165 -53 7 2 24 -8 39 -22 14
-14 37 -26 51 -26 13 0 45 -6 71 -14 82 -26 135 -38 182 -41 25 -2 73 -8 105
-15 32 -6 118 -13 189 -17 143 -6 158 -2 148 49 -4 20 -17 32 -52 48 -25 11
-59 30 -76 40 -59 39 -96 45 -115 20 -3 -4 -44 -26 -92 -50 l-88 -42 -57 28
c-32 16 -60 31 -63 34 -14 14 -91 50 -108 50 -10 0 -27 -7 -38 -15 -25 -19
-64 -19 -64 -1 0 8 9 18 20 21 11 3 20 10 20 15 0 5 9 12 20 15 19 6 20 15 20
126 l0 120 -30 10 c-16 6 -30 15 -30 20 0 5 -8 9 -19 9 -10 0 -24 7 -31 15 -7
8 -19 15 -27 15 -7 0 -16 7 -19 15 -7 17 -59 21 -69 4z m125 -119 c26 -24 30
-35 30 -78 0 -41 -4 -54 -22 -66 -28 -20 -45 -20 -105 0 -66 22 -113 59 -113
89 0 35 49 85 90 94 44 9 81 -3 120 -39z"/>
<path d="M4130 2970 c0 -5 -11 -12 -24 -16 -14 -3 -27 -12 -30 -20 -3 -8 -14
-14 -24 -14 -10 0 -23 -5 -29 -11 -6 -6 -22 -17 -35 -23 -22 -11 -23 -17 -25
-126 l-3 -115 43 -19 c42 -19 89 -50 115 -73 20 -19 56 -16 85 7 14 11 30 20
36 20 6 0 11 4 11 9 0 5 12 14 28 20 84 35 82 32 82 142 0 101 -9 139 -34 139
-8 0 -19 7 -26 15 -7 8 -21 15 -32 15 -10 0 -21 7 -24 15 -4 8 -15 15 -25 15
-11 0 -22 7 -25 15 -7 17 -64 21 -64 5z m95 -99 c40 -23 66 -76 61 -124 -5
-45 -27 -72 -76 -96 -46 -23 -107 -11 -149 28 -27 25 -31 36 -31 79 0 58 22
92 78 122 40 21 69 19 117 -9z"/>
<path d="M4560 2965 c-7 -8 -18 -15 -25 -15 -7 0 -15 -7 -19 -15 -3 -8 -13
-15 -21 -15 -9 0 -23 -7 -31 -15 -9 -8 -24 -15 -35 -15 -18 0 -19 -8 -19 -123
l0 -123 43 -23 c23 -12 56 -31 72 -41 62 -40 74 -44 98 -31 45 24 69 39 80 50
6 6 19 11 29 11 10 0 18 4 18 9 0 5 8 12 18 15 15 5 17 19 15 123 -1 65 -2
121 -2 124 -1 4 -12 10 -26 13 -14 4 -25 11 -25 16 0 6 -6 10 -14 10 -7 0 -19
7 -26 15 -7 8 -21 15 -32 15 -10 0 -21 7 -24 15 -4 8 -18 15 -34 15 -15 0 -33
-7 -40 -15z m131 -113 c58 -65 41 -170 -33 -204 -52 -25 -122 -11 -160 31 -22
25 -28 41 -28 79 0 119 144 180 221 94z"/>
<path d="M5006 2965 c-3 -8 -12 -15 -19 -15 -8 0 -20 -7 -27 -15 -7 -8 -21
-15 -31 -15 -11 0 -19 -4 -19 -10 0 -5 -11 -12 -25 -16 -14 -3 -25 -9 -26 -13
0 -3 -1 -58 -2 -122 l-2 -117 35 -18 c36 -19 65 -39 112 -77 20 -15 42 -22 78
-23 50 -1 65 8 33 20 -15 6 -15 8 -3 16 21 14 30 12 30 -5 0 -20 58 -20 84 0
11 8 28 15 37 15 26 0 35 21 15 36 -19 14 -57 3 -85 -24 -15 -14 -33 -12 -39
6 -2 7 5 12 17 12 11 0 30 10 43 23 22 21 23 28 20 145 -3 109 -6 122 -22 122
-9 0 -23 7 -30 15 -7 8 -21 15 -32 15 -10 0 -21 7 -24 15 -4 8 -12 15 -19 15
-7 0 -18 7 -25 15 -7 8 -25 15 -40 15 -16 0 -30 -7 -34 -15z m117 -108 c69
-65 58 -134 -29 -185 -32 -19 -48 -22 -89 -17 -57 7 -81 28 -91 82 -16 85 40
153 128 153 39 0 52 -5 81 -33z"/>
<path d="M5446 2965 c-3 -8 -15 -15 -26 -15 -11 0 -20 -4 -20 -10 0 -5 -24
-21 -54 -35 -30 -14 -57 -33 -60 -41 -12 -30 -7 -229 6 -242 19 -19 55 -14 98
13 40 25 60 31 60 18 0 -18 79 -93 97 -93 11 0 29 10 40 23 30 32 65 57 80 57
11 0 13 25 11 117 -3 112 -4 118 -26 129 -13 6 -29 17 -35 23 -6 6 -19 11 -29
11 -10 0 -18 5 -18 11 0 5 -13 15 -30 20 -16 6 -30 15 -30 20 0 15 -57 10 -64
-6z m131 -119 c24 -26 33 -45 33 -72 0 -77 -29 -90 -108 -50 -26 14 -64 28
-84 31 -21 4 -42 13 -49 21 -18 22 -2 62 39 89 31 22 45 26 86 22 42 -4 55
-10 83 -41z"/>
<path d="M8096 2965 c-3 -8 -14 -15 -25 -15 -11 0 -23 -5 -26 -10 -4 -6 -29
-20 -55 -32 -27 -12 -51 -26 -52 -32 -2 -6 -2 -62 0 -123 3 -84 7 -113 17
-113 7 0 18 -7 25 -15 7 -8 21 -15 32 -15 10 0 21 -7 24 -15 4 -8 15 -15 25
-15 11 0 22 -6 25 -14 9 -24 53 -29 83 -9 38 26 64 41 81 49 75 32 82 38 76
74 -3 19 -6 74 -6 123 0 78 -2 87 -19 87 -10 0 -24 7 -31 15 -7 8 -21 15 -32
15 -10 0 -21 7 -24 15 -4 8 -12 15 -19 15 -7 0 -18 7 -25 15 -7 8 -25 15 -40
15 -16 0 -30 -7 -34 -15z m122 -111 c35 -30 42 -42 42 -72 0 -20 -8 -59 -18
-87 -18 -50 -18 -50 -72 -58 -67 -9 -90 -4 -128 28 -82 69 -19 225 91 225 35
0 51 -7 85 -36z"/>
<path d="M6167 2743 c-7 -14 5 -103 13 -103 5 0 15 -6 22 -13 7 -7 24 -18 38
-25 38 -18 75 -43 105 -69 7 -7 20 -13 28 -13 19 0 43 29 31 38 -5 5 -31 25
-58 47 -27 21 -73 63 -103 92 -54 52 -68 61 -76 46z"/>
<path d="M3475 2619 c-23 -21 -104 -79 -110 -79 -4 0 -22 -12 -41 -26 -30 -23
-34 -32 -34 -70 0 -24 4 -44 8 -44 10 0 140 135 172 178 22 29 25 59 5 41z"/>
<path d="M2488 2483 c-68 -71 -170 -172 -226 -226 -56 -54 -102 -103 -102
-108 0 -14 37 -11 52 4 7 7 43 32 80 56 71 46 90 68 102 115 6 23 9 27 17 15
5 -7 9 -28 9 -46 0 -28 6 -34 53 -58 71 -36 97 -51 110 -64 6 -6 20 -11 32
-11 12 0 26 5 32 11 12 12 46 33 80 48 11 5 24 15 28 20 3 6 15 11 26 11 18 0
19 8 19 124 0 116 -1 125 -20 131 -11 3 -20 11 -20 16 0 5 -7 9 -17 9 -16 0
-32 12 -75 58 -12 12 -29 22 -38 22 -10 0 -73 -57 -142 -127z m227 -29 c22
-14 25 -24 25 -75 0 -53 -3 -61 -32 -89 -18 -17 -46 -34 -63 -39 -56 -15 -125
20 -125 65 0 42 111 154 152 154 10 0 30 -7 43 -16z"/>
<path d="M8325 2598 c-11 -6 -22 -14 -25 -17 -5 -6 -41 -31 -85 -58 -11 -7
-27 -15 -36 -19 -13 -5 -17 -28 -22 -132 -3 -70 -3 -129 -1 -132 9 -8 38 16
56 46 9 16 29 52 44 79 14 28 41 77 60 110 46 81 56 106 50 122 -6 16 -15 16
-41 1z"/>
<path d="M830 2593 c-8 -3 -19 -12 -23 -19 -4 -8 -16 -14 -26 -14 -10 0 -24
-7 -31 -15 -7 -8 -18 -15 -25 -15 -17 0 -75 -30 -75 -39 0 -4 5 -12 11 -18 13
-13 33 -47 49 -83 6 -13 14 -27 18 -30 4 -3 13 -16 19 -30 7 -14 26 -47 42
-75 17 -27 35 -60 40 -71 14 -31 61 -47 61 -21 0 8 10 19 23 26 12 6 36 20 52
31 17 11 39 24 50 29 18 8 20 18 20 124 -1 113 -2 117 -27 136 -14 12 -33 21
-42 21 -9 0 -19 7 -22 15 -4 8 -12 15 -19 15 -8 0 -20 6 -27 14 -18 17 -49 26
-68 19z m112 -124 c10 -11 22 -39 28 -60 9 -33 8 -47 -9 -84 -11 -25 -24 -45
-29 -45 -16 0 -40 25 -81 84 -42 60 -51 102 -28 125 18 19 98 6 119 -20z"/>
<path d="M3030 2585 c-14 -8 -34 -19 -45 -25 -11 -6 -33 -19 -50 -30 -16 -11
-38 -23 -47 -26 -16 -6 -18 -21 -18 -130 0 -115 1 -124 19 -124 10 0 24 -7 31
-15 7 -8 19 -15 27 -15 7 0 16 -7 19 -15 3 -8 14 -17 25 -20 26 -9 24 -35 -3
-35 -25 0 -98 31 -98 41 0 5 -16 11 -36 15 -28 5 -42 2 -64 -15 -16 -11 -36
-21 -44 -21 -7 0 -16 -7 -20 -15 -3 -8 -12 -15 -21 -15 -9 0 -27 -7 -40 -16
-24 -16 -25 -20 -25 -129 0 -109 1 -114 25 -133 44 -35 25 -55 -28 -31 -21 9
-31 7 -68 -17 -65 -42 -82 -52 -104 -63 -36 -16 -43 -34 -47 -118 -1 -45 -8
-87 -15 -94 -19 -19 -43 42 -43 111 0 70 -12 100 -41 100 -11 0 -22 7 -25 15
-4 8 -14 15 -24 15 -10 0 -23 7 -30 15 -7 8 -17 15 -23 15 -6 0 -19 7 -29 16
-15 14 -20 15 -34 3 -21 -17 -54 -37 -76 -45 -10 -3 -18 -9 -18 -13 0 -4 -18
-15 -40 -25 l-40 -17 0 -113 c0 -99 2 -113 20 -129 11 -9 26 -17 34 -17 7 0
19 -7 26 -15 7 -8 17 -15 22 -15 6 0 27 -13 47 -30 37 -29 38 -29 74 -12 21 9
37 20 37 24 0 4 11 8 25 8 14 0 28 7 31 15 6 15 34 21 34 7 0 -10 -96 -82
-109 -82 -13 0 -51 -63 -51 -84 0 -9 7 -16 16 -16 22 0 153 136 170 177 9 19
25 38 40 43 30 12 287 271 303 306 6 13 16 24 23 24 17 0 298 286 298 304 0 8
10 18 23 23 12 4 69 56 126 116 l103 107 -6 48 c-11 71 -15 81 -42 88 -13 3
-24 10 -24 15 0 5 -8 9 -19 9 -10 0 -24 7 -31 15 -7 8 -18 15 -26 15 -7 0 -17
6 -21 14 -13 22 -46 27 -73 11z m91 -101 c37 -33 18 -85 -56 -153 -37 -34 -52
-42 -78 -39 -26 2 -36 10 -50 40 -16 33 -17 43 -7 75 7 21 20 46 29 57 39 46
122 56 162 20z m-316 -394 c8 -12 -51 -70 -71 -70 -27 0 -14 40 19 60 37 23
43 24 52 10z m-575 -362 c85 -58 89 -122 13 -195 -37 -37 -49 -43 -87 -43 -38
0 -48 5 -80 40 -29 33 -36 48 -36 83 0 51 26 94 72 119 45 23 79 22 118 -4z"/>
<path d="M4793 2587 c-12 -6 -43 -23 -70 -37 -26 -14 -50 -27 -53 -30 -3 -3
-17 -11 -32 -17 -22 -10 -28 -19 -28 -44 l0 -32 58 7 c31 4 93 11 137 16 44 4
93 13 108 19 16 6 43 11 62 11 19 0 36 4 40 9 6 10 -46 51 -64 51 -6 0 -36 14
-66 30 -63 34 -62 34 -92 17z"/>
<path d="M5680 2593 c-8 -3 -17 -9 -20 -13 -3 -4 -25 -14 -50 -22 -25 -8 -45
-19 -45 -25 0 -5 64 -76 143 -158 129 -133 145 -147 168 -141 26 7 27 8 20 74
-3 37 -6 94 -6 128 l0 60 -42 23 c-52 26 -75 40 -107 64 -25 18 -35 19 -61 10z"/>
<path d="M6120 2585 c-14 -8 -34 -19 -45 -25 -11 -6 -33 -19 -50 -30 -16 -11
-37 -23 -46 -26 -14 -5 -17 -26 -21 -117 -3 -62 -3 -116 -1 -122 4 -13 61 -45
79 -45 8 0 17 -7 20 -15 4 -8 14 -15 24 -15 10 0 23 -7 30 -15 7 -8 23 -15 35
-15 12 0 28 7 35 15 7 8 18 15 25 15 7 0 18 7 25 15 7 8 19 15 27 15 8 0 21 7
29 15 9 8 24 15 33 15 15 0 20 12 25 71 7 65 5 73 -14 94 l-22 24 21 13 c27
16 28 58 2 58 -20 0 -130 53 -140 68 -12 18 -46 21 -71 7z m67 -99 c37 -31 67
-121 57 -172 -5 -30 -14 -39 -47 -54 -29 -13 -47 -16 -69 -9 -128 36 -153 173
-45 239 42 26 69 25 104 -4z"/>
<path d="M7883 2587 c-76 -43 -149 -77 -164 -77 -17 0 -18 -9 -12 -117 6 -116
13 -143 38 -143 7 0 18 -7 25 -15 7 -8 21 -15 32 -15 10 0 21 -7 24 -15 4 -8
15 -15 25 -15 11 0 22 -7 25 -15 4 -8 18 -15 34 -15 16 0 30 7 34 15 3 8 14
15 25 15 11 0 22 4 25 9 8 13 84 51 101 51 12 0 15 22 15 125 0 116 -1 125
-19 125 -10 0 -24 7 -31 15 -7 8 -21 15 -32 15 -10 0 -21 7 -24 15 -4 8 -11
15 -17 15 -6 0 -18 6 -26 14 -25 22 -54 27 -78 13z m83 -93 c49 -23 74 -59 74
-107 0 -53 -32 -103 -83 -128 -36 -19 -44 -20 -79 -8 -52 17 -98 70 -98 113 0
40 34 93 79 123 40 27 61 29 107 7z"/>
<path d="M6380 2328 c0 -53 10 -76 39 -87 31 -13 53 -26 102 -63 37 -28 73
-36 83 -19 3 4 -22 33 -57 62 -34 30 -81 73 -105 97 -24 23 -47 42 -53 42 -5
0 -9 -15 -9 -32z"/>
<path d="M5890 2215 c-11 -13 1 -30 81 -113 52 -53 107 -108 123 -122 16 -14
39 -36 50 -49 50 -58 139 -141 157 -146 10 -4 19 -9 19 -13 0 -4 4 -13 9 -20
10 -16 34 -4 84 42 17 15 41 32 52 37 80 36 79 35 86 160 7 129 9 126 -74 169
-27 14 -63 32 -80 41 -30 16 -34 16 -61 0 -60 -34 -68 -39 -79 -50 -6 -6 -18
-11 -27 -11 -32 0 -52 -36 -56 -101 -6 -86 -18 -103 -33 -46 -6 25 -11 60 -11
77 0 26 -8 35 -57 66 -32 20 -78 50 -102 65 -51 33 -63 35 -81 14z m546 -121
c51 -35 54 -39 54 -105 0 -53 -2 -58 -34 -83 -42 -31 -55 -32 -106 -6 -40 20
-82 79 -95 132 -6 23 -2 33 25 58 43 40 100 41 156 4z"/>
<path d="M8100 2212 c-14 -9 -30 -21 -36 -27 -6 -5 -28 -19 -49 -30 -67 -34
-72 -42 -78 -131 -3 -51 -11 -91 -22 -107 -10 -16 -12 -27 -6 -31 11 -7 56 18
65 37 12 23 119 182 167 247 20 26 17 60 -5 59 -6 0 -22 -8 -36 -17z"/>
<path d="M7655 2199 c-16 -10 -39 -23 -50 -29 -11 -5 -27 -14 -35 -18 -8 -5
-28 -16 -44 -24 l-30 -16 3 -113 c3 -111 10 -139 36 -139 7 0 18 -7 25 -15 7
-8 21 -15 32 -15 10 0 21 -6 24 -14 3 -8 16 -17 30 -20 13 -4 24 -11 24 -16 0
-15 36 -12 50 5 7 8 19 15 26 15 8 0 14 4 14 8 0 9 70 42 88 42 6 0 18 10 26
23 11 17 12 36 5 87 -5 36 -8 85 -7 109 3 42 1 44 -37 64 -22 12 -41 25 -43
29 -2 4 -12 8 -22 8 -11 0 -23 6 -27 13 -4 7 -19 17 -33 23 -20 9 -31 7 -55
-7z m70 -84 c57 -23 84 -62 85 -120 0 -45 -4 -54 -40 -88 -55 -54 -100 -59
-157 -18 -38 27 -42 35 -48 85 -9 66 4 92 63 130 44 29 52 30 97 11z"/>
<path d="M1030 2196 c-30 -18 -99 -51 -122 -59 -34 -12 -18 -48 72 -167 50
-66 90 -123 90 -127 0 -11 46 -53 58 -53 5 0 27 16 48 35 21 19 43 35 49 35 7
0 19 8 28 18 14 15 17 40 17 124 l0 104 -46 25 c-25 13 -58 30 -72 38 -15 8
-29 18 -32 22 -11 17 -65 19 -90 5z m119 -100 c33 -21 40 -31 45 -70 11 -69 1
-89 -38 -82 -55 11 -133 129 -106 161 18 22 55 18 99 -9z"/>
<path d="M2325 2187 c-22 -12 -41 -25 -43 -29 -2 -5 -12 -8 -22 -8 -10 0 -25
-6 -32 -13 -7 -7 -21 -16 -31 -20 -15 -6 -17 -13 -10 -44 4 -21 8 -69 8 -108
0 -72 16 -105 49 -105 8 0 18 -5 21 -11 4 -5 17 -15 28 -20 12 -5 36 -18 52
-29 48 -32 55 -33 73 -18 9 8 24 18 32 22 8 3 29 15 45 26 17 10 45 27 63 36
l33 17 -3 114 -3 114 -30 16 c-16 9 -37 20 -45 25 -8 4 -22 11 -30 15 -8 3
-26 15 -39 25 -31 24 -67 22 -116 -5z m146 -90 c40 -27 63 -85 54 -135 -9 -50
-73 -92 -140 -92 -49 0 -55 3 -90 41 -33 37 -37 45 -31 81 8 51 21 71 70 102
49 32 93 33 137 3z"/>
<path d="M6611 2116 c-9 -10 -9 -26 -1 -62 6 -26 10 -74 9 -105 -2 -58 10 -89
36 -89 7 0 18 -7 25 -15 7 -8 21 -15 32 -15 10 0 21 -7 24 -15 4 -8 12 -15 19
-15 7 0 18 -7 25 -15 13 -16 50 -21 50 -7 0 10 71 42 93 42 29 0 18 27 -29 72
-25 23 -91 87 -147 140 -56 54 -107 98 -113 98 -6 0 -17 -6 -23 -14z"/>
<path d="M7880 1840 c0 -6 -8 -13 -17 -17 -10 -3 -34 -19 -54 -35 -20 -15 -42
-28 -47 -28 -6 0 -23 -11 -37 -25 -20 -21 -25 -36 -25 -75 0 -38 4 -50 15 -50
8 0 15 3 15 8 0 7 73 96 126 154 13 14 24 31 24 36 0 5 7 13 16 16 8 3 12 10
9 16 -8 13 -25 13 -25 0z"/>
<path d="M1255 1822 c-16 -10 -32 -20 -35 -24 -3 -3 -18 -10 -33 -13 -56 -15
-48 -39 48 -140 31 -33 84 -90 117 -126 47 -53 64 -66 81 -61 43 11 51 37 48
155 -3 111 -11 137 -44 137 -8 0 -20 7 -27 15 -7 8 -19 15 -27 15 -7 0 -16 7
-19 15 -4 8 -14 15 -24 15 -10 0 -23 7 -30 15 -15 18 -17 18 -55 -3z"/>
<path d="M1706 1825 c-3 -8 -12 -15 -21 -15 -8 0 -15 -4 -15 -10 0 -5 -11 -12
-25 -16 -13 -3 -29 -12 -36 -20 -6 -8 -18 -14 -25 -14 -8 0 -23 -9 -34 -20
-17 -17 -20 -33 -20 -121 0 -92 2 -102 23 -120 12 -10 30 -18 40 -19 10 0 20
-7 23 -15 4 -8 14 -15 24 -15 10 0 23 -6 29 -14 6 -8 25 -19 41 -26 27 -11 33
-10 64 14 19 14 41 26 49 26 8 0 17 7 21 15 3 8 12 15 21 15 9 0 27 7 40 16
24 16 25 21 25 124 0 114 -6 129 -57 144 -13 4 -23 12 -23 17 0 5 -4 9 -9 9
-6 0 -30 14 -54 30 -50 33 -72 37 -81 15z m102 -124 c37 -30 51 -48 56 -75 12
-65 -45 -133 -122 -143 -54 -7 -127 42 -141 94 -19 67 -9 96 49 136 54 39 98
35 158 -12z"/>
<path d="M6568 1833 c-6 -14 -67 -53 -83 -53 -8 0 -15 -4 -15 -9 0 -5 -12 -12
-27 -16 -45 -10 -75 -34 -69 -53 8 -23 274 -292 289 -292 7 0 23 14 37 30 14
17 30 30 36 30 6 0 19 9 28 19 14 16 18 39 18 121 0 107 -13 140 -52 140 -10
0 -20 7 -24 15 -3 8 -15 15 -26 15 -11 0 -23 7 -26 15 -4 8 -12 15 -19 15 -7
0 -18 7 -25 15 -13 16 -36 20 -42 8z m79 -111 c46 -25 74 -64 69 -100 -8 -67
-38 -69 -107 -5 -57 53 -71 89 -44 110 24 17 43 16 82 -5z"/>
<path d="M7450 1825 c-7 -8 -18 -15 -25 -15 -7 0 -18 -7 -25 -15 -7 -8 -20
-15 -30 -15 -10 0 -20 -7 -24 -15 -3 -8 -14 -15 -25 -15 -32 0 -39 -27 -39
-142 1 -121 3 -125 93 -166 11 -6 36 -24 54 -41 18 -17 37 -31 42 -31 5 0 52
43 105 96 l96 97 -7 83 c-6 80 -8 83 -38 99 -18 9 -45 25 -62 35 -16 11 -40
24 -52 29 -11 5 -24 15 -28 20 -9 15 -20 14 -35 -4z m95 -110 c30 -29 32 -63
6 -113 -33 -64 -68 -92 -116 -92 -54 0 -83 23 -95 74 -11 50 5 92 49 129 45
37 120 38 156 2z"/>
<path d="M6950 1807 c0 -8 -10 -19 -22 -26 -13 -6 -36 -19 -53 -29 l-30 -19
-3 -120 -3 -121 41 -18 c22 -10 40 -21 40 -26 0 -4 9 -8 20 -8 11 0 23 -7 26
-15 4 -8 12 -15 19 -15 7 0 18 -7 25 -15 10 -12 16 -13 27 -3 18 14 50 33 80
47 11 5 24 15 28 20 3 6 13 11 21 11 37 0 46 27 47 142 0 106 -1 112 -24 130
-13 10 -35 27 -47 38 -31 26 -38 25 -66 -5 -27 -29 -44 -26 -75 15 -22 31 -51
40 -51 17z m159 -135 c64 -31 64 -99 0 -157 -45 -40 -88 -46 -145 -19 -48 23
-64 50 -64 106 0 71 22 88 108 88 42 -1 80 -7 101 -18z"/>
<path d="M1469 1440 l-24 -20 65 -60 c36 -34 91 -86 122 -116 55 -52 98 -70
98 -40 0 8 -4 17 -9 20 -5 3 -12 33 -16 67 -7 55 -10 62 -36 71 -16 5 -29 13
-29 18 0 4 -8 10 -17 14 -19 6 -43 20 -82 49 -30 22 -43 22 -72 -3z"/>
<path d="M1920 1435 c-7 -8 -19 -15 -26 -15 -8 0 -14 -4 -14 -10 0 -5 -11 -12
-25 -16 -13 -3 -29 -12 -36 -20 -6 -8 -20 -14 -30 -14 -11 0 -19 -6 -20 -12
-6 -109 -11 -143 -19 -153 -11 -13 3 -65 17 -65 7 0 40 -28 120 -101 18 -16
36 -29 41 -29 15 0 216 209 228 237 7 16 8 36 4 48 -5 11 -11 32 -14 48 -4 18
-13 27 -25 27 -11 0 -26 7 -35 15 -8 8 -21 15 -29 15 -8 0 -20 7 -27 15 -7 8
-18 15 -25 15 -7 0 -18 7 -25 15 -7 8 -20 15 -30 15 -10 0 -23 -7 -30 -15z
m84 -96 c14 -11 26 -30 26 -42 0 -29 -86 -127 -111 -127 -11 0 -35 16 -53 35
-31 31 -33 38 -26 71 9 40 10 41 47 65 38 24 85 23 117 -2z"/>
<path d="M6732 1421 c-29 -14 -51 -30 -50 -37 2 -6 67 -78 145 -158 124 -128
145 -146 162 -137 18 10 19 19 14 128 -6 116 -13 143 -38 143 -7 0 -18 7 -25
15 -7 8 -20 15 -30 15 -10 0 -20 7 -24 15 -3 8 -12 15 -19 15 -8 0 -20 7 -27
15 -17 20 -45 17 -108 -14z"/>
<path d="M7225 1439 c-4 -5 -17 -15 -28 -20 -12 -5 -35 -18 -52 -29 -16 -11
-37 -22 -45 -26 -44 -17 -45 -19 -51 -135 -5 -102 -3 -115 13 -128 29 -22 21
-32 -23 -29 -51 4 -57 -8 -24 -45 33 -35 54 -34 68 2 7 19 21 32 36 36 15 4
33 14 42 23 9 9 47 42 84 72 71 58 87 71 154 133 45 41 54 77 21 77 -18 0 -37
7 -80 32 -8 4 -25 12 -37 17 -11 6 -24 15 -28 20 -3 6 -15 11 -25 11 -10 0
-22 -5 -25 -11z m40 -100 c4 -5 -12 -28 -35 -49 -81 -75 -145 -78 -100 -5 32
51 116 85 135 54z"/>
<path d="M4770 10 c0 -5 10 -10 23 -10 18 0 19 2 7 10 -19 13 -30 13 -30 0z"/>
</g>
</svg>
